<?xml version="1.0" encoding="UTF-8" standalone="no"?><!DOCTYPE svg PUBLIC "-//W3C//DTD SVG 1.1//EN" "http://www.w3.org/Graphics/SVG/1.1/DTD/svg11.dtd"><svg width="100%" height="100%" viewBox="0 0 1668 417" version="1.1" xmlns="http://www.w3.org/2000/svg" xmlns:xlink="http://www.w3.org/1999/xlink" xml:space="preserve" xmlns:serif="http://www.serif.com/" style="fill-rule:evenodd;clip-rule:evenodd;stroke-miterlimit:2;"><g><g><path d="M1370.19,170.551c10.099,11.908 5.745,35.689 -3.073,43.168c-7.988,6.774 -32.051,8.999 -43.09,-4.018c-12.439,-14.667 -9.084,-31.661 3.664,-42.472c12.747,-10.811 30.061,-11.345 42.499,3.322Z" style="fill:#afb536;fill-rule:nonzero;"/><path d="M1370.19,170.551c10.099,11.908 5.745,35.689 -3.073,43.168c-7.988,6.774 -32.051,8.999 -43.09,-4.018c-12.439,-14.667 -9.084,-31.661 3.664,-42.472c12.747,-10.811 30.061,-11.345 42.499,3.322Z" style="fill:none;stroke:#616262;stroke-width:2px;"/><path d="M1366.26,175.324c9.063,10.687 7.91,32.421 0.867,38.395c-6.38,5.41 -29.634,2.429 -37.738,-7.127c-12.439,-14.667 -11.87,-30.728 -1.688,-39.363c10.181,-8.634 26.12,-6.573 38.559,8.095Z" style="fill:#c0ca33;fill-rule:nonzero;"/><path d="M1366.26,175.324c9.063,10.687 7.91,32.421 0.867,38.395c-6.38,5.41 -29.634,2.429 -37.738,-7.127c-12.439,-14.667 -11.87,-30.728 -1.688,-39.363c10.181,-8.634 26.12,-6.573 38.559,8.095Z" style="fill:none;stroke:#616262;stroke-width:2px;"/><path d="M1359.66,180.915c9.063,10.687 11.984,28.967 7.46,32.804c-4.098,3.475 -23.041,-3.162 -31.145,-12.718c-12.439,-14.667 -14.822,-28.225 -8.281,-33.772c6.54,-5.546 19.527,-0.981 31.966,13.686Z" style="fill:#afb536;fill-rule:nonzero;"/><path d="M1359.66,180.915c9.063,10.687 11.984,28.967 7.46,32.804c-4.098,3.475 -23.041,-3.162 -31.145,-12.718c-12.439,-14.667 -14.822,-28.225 -8.281,-33.772c6.54,-5.546 19.527,-0.981 31.966,13.686Z" style="fill:none;stroke:#616262;stroke-width:2px;"/><path d="M1352.48,187.006c9.063,10.688 16.423,25.203 14.643,26.713c-1.612,1.367 -15.858,-9.254 -23.962,-18.81c-12.439,-14.667 -18.038,-25.497 -15.464,-27.68c2.573,-2.182 12.344,5.11 24.783,19.777Z" style="fill:#c0ca33;fill-rule:nonzero;"/><path d="M1352.48,187.006c9.063,10.688 16.423,25.203 14.643,26.713c-1.612,1.367 -15.858,-9.254 -23.962,-18.81c-12.439,-14.667 -18.038,-25.497 -15.464,-27.68c2.573,-2.182 12.344,5.11 24.783,19.777Z" style="fill:none;stroke:#616262;stroke-width:2px;"/><path d="M1476.47,209.201c-12.314,16.015 -43.58,16.981 -55.44,7.863c-10.742,-8.26 -20.107,-38.091 -6.647,-55.598c15.167,-19.726 37.575,-20.108 54.72,-6.926c17.144,13.181 22.533,34.935 7.367,54.661Z" style="fill:#afb536;fill-rule:nonzero;"/><path d="M1476.47,209.201c-12.314,16.015 -43.58,16.981 -55.44,7.863c-10.742,-8.26 -20.107,-38.091 -6.647,-55.598c15.167,-19.726 37.575,-20.108 54.72,-6.926c17.144,13.181 22.533,34.935 7.367,54.661Z" style="fill:none;stroke:#616262;stroke-width:2px;"/><path d="M1469.36,205.515c-11.051,14.374 -38.857,18.831 -48.33,11.549c-8.579,-6.597 -11.139,-36.823 -1.258,-49.674c15.167,-19.726 35.637,-23.379 49.331,-12.85c13.693,10.528 15.423,31.25 0.257,50.975Z" style="fill:#c0ca33;fill-rule:nonzero;"/><path d="M1469.36,205.515c-11.051,14.374 -38.857,18.831 -48.33,11.549c-8.579,-6.597 -11.139,-36.823 -1.258,-49.674c15.167,-19.726 35.637,-23.379 49.331,-12.85c13.693,10.528 15.423,31.25 0.257,50.975Z" style="fill:none;stroke:#616262;stroke-width:2px;"/><path d="M1460.49,198.698c-11.051,14.373 -33.378,23.044 -39.463,18.366c-5.511,-4.238 -2.272,-30.005 7.609,-42.857c15.166,-19.726 31.667,-26.43 40.464,-19.667c8.796,6.763 6.556,24.432 -8.61,44.158Z" style="fill:#afb536;fill-rule:nonzero;"/><path d="M1460.49,198.698c-11.051,14.373 -33.378,23.044 -39.463,18.366c-5.511,-4.238 -2.272,-30.005 7.609,-42.857c15.166,-19.726 31.667,-26.43 40.464,-19.667c8.796,6.763 6.556,24.432 -8.61,44.158Z" style="fill:none;stroke:#616262;stroke-width:2px;"/><path d="M1450.83,191.271c-11.051,14.373 -27.407,27.633 -29.802,25.793c-2.168,-1.668 7.388,-22.578 17.27,-35.429c15.166,-19.726 27.342,-29.756 30.803,-27.095c3.46,2.66 -3.104,17.005 -18.271,36.731Z" style="fill:#c0ca33;fill-rule:nonzero;"/><path d="M1450.83,191.271c-11.051,14.373 -27.407,27.633 -29.802,25.793c-2.168,-1.668 7.388,-22.578 17.27,-35.429c15.166,-19.726 27.342,-29.756 30.803,-27.095c3.46,2.66 -3.104,17.005 -18.271,36.731Z" style="fill:none;stroke:#616262;stroke-width:2px;"/><path d="M1397.54,152.961c-8.117,11.757 -28.451,14.756 -36.098,9.476c-6.926,-4.781 -12.806,-24.26 -3.932,-37.113c9.998,-14.482 24.569,-16.421 35.623,-8.789c11.054,7.631 14.405,21.944 4.407,36.426Z" style="fill:#afb536;fill-rule:nonzero;"/><path d="M1397.54,152.961c-8.117,11.757 -28.451,14.756 -36.098,9.476c-6.926,-4.781 -12.806,-24.26 -3.932,-37.113c9.998,-14.482 24.569,-16.421 35.623,-8.789c11.054,7.631 14.405,21.944 4.407,36.426Z" style="fill:none;stroke:#616262;stroke-width:2px;"/><path d="M1391.2,149.795c-7.285,10.553 -24.315,16.398 -29.756,12.642c-4.928,-3.402 -5.239,-22.869 1.275,-32.304c9.998,-14.482 22.551,-19.028 30.416,-13.598c7.865,5.43 8.063,18.778 -1.935,33.26Z" style="fill:#c0ca33;fill-rule:nonzero;"/><path d="M1391.2,149.795c-7.285,10.553 -24.315,16.398 -29.756,12.642c-4.928,-3.402 -5.239,-22.869 1.275,-32.304c9.998,-14.482 22.551,-19.028 30.416,-13.598c7.865,5.43 8.063,18.778 -1.935,33.26Z" style="fill:none;stroke:#616262;stroke-width:2px;"/><path d="M1382.11,143.521c-7.285,10.552 -18.699,20.275 -20.668,18.916c-1.783,-1.231 3.849,-16.595 10.363,-26.03c9.998,-14.482 18.482,-21.837 21.328,-19.872c2.845,1.964 -1.025,12.504 -11.023,26.986Z" style="fill:#afb536;fill-rule:nonzero;"/><path d="M1382.11,143.521c-7.285,10.552 -18.699,20.275 -20.668,18.916c-1.783,-1.231 3.849,-16.595 10.363,-26.03c9.998,-14.482 18.482,-21.837 21.328,-19.872c2.845,1.964 -1.025,12.504 -11.023,26.986Z" style="fill:none;stroke:#616262;stroke-width:2px;"/><path d="M1447.08,244.837c0,24.182 -28.966,47.912 -46.875,47.912c-16.221,0 -46.875,-21.476 -46.875,-47.912c0,-29.787 20.987,-46.499 46.875,-46.499c25.888,0 46.875,16.712 46.875,46.499Z" style="fill:#afb536;fill-rule:nonzero;"/><path d="M1447.08,244.837c0,24.182 -28.966,47.912 -46.875,47.912c-16.221,0 -46.875,-21.476 -46.875,-47.912c0,-29.787 20.987,-46.499 46.875,-46.499c25.888,0 46.875,16.712 46.875,46.499Z" style="fill:none;stroke:#616262;stroke-width:2px;"/><path d="M1437.64,246.527c0,21.703 -23.136,46.222 -37.439,46.222c-12.956,0 -37.439,-26.816 -37.439,-46.222c0,-29.787 16.762,-48.189 37.439,-48.189c20.677,0 37.439,18.402 37.439,48.189Z" style="fill:#c0ca33;fill-rule:nonzero;"/><path d="M1437.64,246.527c0,21.703 -23.136,46.222 -37.439,46.222c-12.956,0 -37.439,-26.816 -37.439,-46.222c0,-29.787 16.762,-48.189 37.439,-48.189c20.677,0 37.439,18.402 37.439,48.189Z" style="fill:none;stroke:#616262;stroke-width:2px;"/><path d="M1424.25,246.527c0,21.703 -14.862,46.222 -24.05,46.222c-8.322,0 -24.05,-26.816 -24.05,-46.222c0,-29.787 10.768,-48.189 24.05,-48.189c13.282,0 24.05,18.402 24.05,48.189Z" style="fill:#afb536;fill-rule:nonzero;"/><path d="M1424.25,246.527c0,21.703 -14.862,46.222 -24.05,46.222c-8.322,0 -24.05,-26.816 -24.05,-46.222c0,-29.787 10.768,-48.189 24.05,-48.189c13.282,0 24.05,18.402 24.05,48.189Z" style="fill:none;stroke:#616262;stroke-width:2px;"/><path d="M1409.66,246.527c0,21.703 -5.847,46.222 -9.462,46.222c-3.274,0 -9.462,-26.816 -9.462,-46.222c0,-29.787 4.236,-48.189 9.462,-48.189c5.226,0 9.462,18.402 9.462,48.189Z" style="fill:#c0ca33;fill-rule:nonzero;"/><path d="M1409.66,246.527c0,21.703 -5.847,46.222 -9.462,46.222c-3.274,0 -9.462,-26.816 -9.462,-46.222c0,-29.787 4.236,-48.189 9.462,-48.189c5.226,0 9.462,18.402 9.462,48.189Z" style="fill:none;stroke:#616262;stroke-width:2px;"/><path d="M1408.32,114.317c4.757,4.521 2.925,8.614 -3.401,8.212c0.401,6.326 -3.691,8.159 -8.212,3.402c-4.52,4.757 -8.613,2.924 -8.212,-3.402c-6.326,0.402 -8.158,-3.691 -3.401,-8.212c-4.757,-4.52 -2.925,-8.613 3.401,-8.211c-0.401,-6.326 3.692,-8.159 8.212,-3.402c4.521,-4.757 8.613,-2.924 8.212,3.402c6.326,-0.402 8.158,3.691 3.401,8.211Z" style="fill:#fcb215;fill-rule:nonzero;"/><path d="M1408.32,114.317c4.757,4.521 2.925,8.614 -3.401,8.212c0.401,6.326 -3.691,8.159 -8.212,3.402c-4.52,4.757 -8.613,2.924 -8.212,-3.402c-6.326,0.402 -8.158,-3.691 -3.401,-8.212c-4.757,-4.52 -2.925,-8.613 3.401,-8.211c-0.401,-6.326 3.692,-8.159 8.212,-3.402c4.521,-4.757 8.613,-2.924 8.212,3.402c6.326,-0.402 8.158,3.691 3.401,8.211Z" style="fill:none;stroke:#616262;stroke-width:2px;"/><path d="M1403.4,114.317c3.774,2.89 2.602,5.506 -1.96,4.731c0.775,4.563 -1.841,5.734 -4.731,1.96c-2.89,3.774 -5.506,2.603 -4.731,-1.96c-4.562,0.775 -5.734,-1.841 -1.959,-4.731c-3.775,-2.889 -2.603,-5.505 1.959,-4.73c-0.775,-4.563 1.841,-5.734 4.731,-1.96c2.89,-3.774 5.506,-2.603 4.731,1.96c4.562,-0.775 5.734,1.841 1.96,4.73Z" style="fill:#ffcb29;fill-rule:nonzero;"/><path d="M1403.4,114.317c3.774,2.89 2.602,5.506 -1.96,4.731c0.775,4.563 -1.841,5.734 -4.731,1.96c-2.89,3.774 -5.506,2.603 -4.731,-1.96c-4.562,0.775 -5.734,-1.841 -1.959,-4.731c-3.775,-2.889 -2.603,-5.505 1.959,-4.73c-0.775,-4.563 1.841,-5.734 4.731,-1.96c2.89,-3.774 5.506,-2.603 4.731,1.96c4.562,-0.775 5.734,1.841 1.96,4.73Z" style="fill:none;stroke:#616262;stroke-width:2px;"/><path d="M1400.06,114.317c0,1.854 -1.503,3.357 -3.357,3.357c-1.854,0 -3.356,-1.503 -3.356,-3.357c0,-1.853 1.502,-3.356 3.356,-3.356c1.854,0 3.357,1.503 3.357,3.356Z" style="fill:#fef9e2;fill-rule:nonzero;"/><path d="M1400.06,114.317c0,1.854 -1.503,3.357 -3.357,3.357c-1.854,0 -3.356,-1.503 -3.356,-3.357c0,-1.853 1.502,-3.356 3.356,-3.356c1.854,0 3.357,1.503 3.357,3.356Z" style="fill:none;stroke:#616262;stroke-width:2px;"/><path d="M1335.99,171.057c4.846,4.605 2.98,8.775 -3.465,8.366c0.409,6.444 -3.76,8.311 -8.366,3.465c-4.605,4.846 -8.774,2.979 -8.366,-3.465c-6.444,0.409 -8.311,-3.761 -3.465,-8.366c-4.846,-4.605 -2.979,-8.775 3.465,-8.366c-0.408,-6.445 3.761,-8.311 8.366,-3.465c4.606,-4.846 8.775,-2.98 8.366,3.465c6.445,-0.409 8.311,3.761 3.465,8.366Z" style="fill:#fcb215;fill-rule:nonzero;"/><path d="M1335.99,171.057c4.846,4.605 2.98,8.775 -3.465,8.366c0.409,6.444 -3.76,8.311 -8.366,3.465c-4.605,4.846 -8.774,2.979 -8.366,-3.465c-6.444,0.409 -8.311,-3.761 -3.465,-8.366c-4.846,-4.605 -2.979,-8.775 3.465,-8.366c-0.408,-6.445 3.761,-8.311 8.366,-3.465c4.606,-4.846 8.775,-2.98 8.366,3.465c6.445,-0.409 8.311,3.761 3.465,8.366Z" style="fill:none;stroke:#616262;stroke-width:2px;"/><path d="M1330.97,171.057c3.845,2.944 2.652,5.609 -1.996,4.82c0.789,4.648 -1.876,5.841 -4.82,1.996c-2.944,3.845 -5.609,2.652 -4.819,-1.996c-4.648,0.789 -5.842,-1.876 -1.997,-4.82c-3.845,-2.944 -2.651,-5.609 1.997,-4.82c-0.79,-4.648 1.875,-5.841 4.819,-1.996c2.944,-3.845 5.609,-2.652 4.82,1.996c4.648,-0.789 5.841,1.876 1.996,4.82Z" style="fill:#ffcb29;fill-rule:nonzero;"/><path d="M1330.97,171.057c3.845,2.944 2.652,5.609 -1.996,4.82c0.789,4.648 -1.876,5.841 -4.82,1.996c-2.944,3.845 -5.609,2.652 -4.819,-1.996c-4.648,0.789 -5.842,-1.876 -1.997,-4.82c-3.845,-2.944 -2.651,-5.609 1.997,-4.82c-0.79,-4.648 1.875,-5.841 4.819,-1.996c2.944,-3.845 5.609,-2.652 4.82,1.996c4.648,-0.789 5.841,1.876 1.996,4.82Z" style="fill:none;stroke:#616262;stroke-width:2px;"/><path d="M1327.57,171.057c0,1.888 -1.531,3.419 -3.42,3.419c-1.888,0 -3.419,-1.531 -3.419,-3.419c0,-1.889 1.531,-3.42 3.419,-3.42c1.889,0 3.42,1.531 3.42,3.42Z" style="fill:#fef9e2;fill-rule:nonzero;"/><path d="M1327.57,171.057c0,1.888 -1.531,3.419 -3.42,3.419c-1.888,0 -3.419,-1.531 -3.419,-3.419c0,-1.889 1.531,-3.42 3.419,-3.42c1.889,0 3.42,1.531 3.42,3.42Z" style="fill:none;stroke:#616262;stroke-width:2px;"/><rect x="1367.96" y="335.771" width="61.275" height="10.03" style="fill:#add580;fill-rule:nonzero;"/><rect x="1367.96" y="335.771" width="61.275" height="10.03" style="fill:none;stroke:#616262;stroke-width:2px;"/><rect x="1349.04" y="272.051" width="99.12" height="13.57" style="fill:#f8aa92;fill-rule:nonzero;"/><rect x="1349.04" y="272.051" width="99.12" height="13.57" style="fill:none;stroke:#616262;stroke-width:2px;"/><path d="M1349.04,285.621l0,11.21c0,15.802 7.404,29.865 18.922,38.94l61.275,0c11.518,-9.075 18.923,-23.138 18.923,-38.94l0,-11.21l-99.12,0Z" style="fill:#c5e0a6;fill-rule:nonzero;"/><path d="M1349.04,285.621l0,11.21c0,15.802 7.404,29.865 18.922,38.94l61.275,0c11.518,-9.075 18.923,-23.138 18.923,-38.94l0,-11.21l-99.12,0Z" style="fill:none;stroke:#616262;stroke-width:2px;"/></g><g><path d="M1026.01,269.128l0,-11.919" style="fill:#7cb342;fill-rule:nonzero;"/><path d="M1026.01,269.128l0,-11.919" style="fill:none;stroke:#616262;stroke-width:2px;"/><path d="M1018.24,263.168l7.772,0" style="fill:none;fill-rule:nonzero;"/><path d="M1018.24,263.168l7.772,0" style="fill:none;stroke:#616262;stroke-width:2px;"/><path d="M1026.01,257.209l0,-11.92" style="fill:#7cb342;fill-rule:nonzero;"/><path d="M1026.01,257.209l0,-11.92" style="fill:none;stroke:#616262;stroke-width:2px;"/><path d="M1018.24,251.249l7.772,0" style="fill:none;fill-rule:nonzero;"/><path d="M1018.24,251.249l7.772,0" style="fill:none;stroke:#616262;stroke-width:2px;"/><path d="M1026.01,245.289l0,-11.92" style="fill:#7cb342;fill-rule:nonzero;"/><path d="M1026.01,245.289l0,-11.92" style="fill:none;stroke:#616262;stroke-width:2px;"/><path d="M1018.24,239.329l7.772,0" style="fill:none;fill-rule:nonzero;"/><path d="M1018.24,239.329l7.772,0" style="fill:none;stroke:#616262;stroke-width:2px;"/><path d="M1026.01,233.369l0,-11.919" style="fill:#7cb342;fill-rule:nonzero;"/><path d="M1026.01,233.369l0,-11.919" style="fill:none;stroke:#616262;stroke-width:2px;"/><path d="M1018.24,227.41l7.772,0" style="fill:none;fill-rule:nonzero;"/><path d="M1018.24,227.41l7.772,0" style="fill:none;stroke:#616262;stroke-width:2px;"/><path d="M1026.01,221.45l0,-11.92" style="fill:#7cb342;fill-rule:nonzero;"/><path d="M1026.01,221.45l0,-11.92" style="fill:none;stroke:#616262;stroke-width:2px;"/><path d="M1018.24,215.49l7.772,0" style="fill:none;fill-rule:nonzero;"/><path d="M1018.24,215.49l7.772,0" style="fill:none;stroke:#616262;stroke-width:2px;"/><path d="M1026.01,209.53l0,-11.919" style="fill:#7cb342;fill-rule:nonzero;"/><path d="M1026.01,209.53l0,-11.919" style="fill:none;stroke:#616262;stroke-width:2px;"/><path d="M1018.24,203.571l7.772,0" style="fill:none;fill-rule:nonzero;"/><path d="M1018.24,203.571l7.772,0" style="fill:none;stroke:#616262;stroke-width:2px;"/><path d="M1026.01,197.611l0,-11.92" style="fill:#7cb342;fill-rule:nonzero;"/><path d="M1026.01,197.611l0,-11.92" style="fill:none;stroke:#616262;stroke-width:2px;"/><path d="M1018.24,191.651l7.772,0" style="fill:none;fill-rule:nonzero;"/><path d="M1018.24,191.651l7.772,0" style="fill:none;stroke:#616262;stroke-width:2px;"/><path d="M1026.01,185.691l0,-11.919" style="fill:#7cb342;fill-rule:nonzero;"/><path d="M1026.01,185.691l0,-11.919" style="fill:none;stroke:#616262;stroke-width:2px;"/><path d="M1018.24,179.731l7.772,0" style="fill:none;fill-rule:nonzero;"/><path d="M1018.24,179.731l7.772,0" style="fill:none;stroke:#616262;stroke-width:2px;"/><path d="M1026.01,173.772l0,-11.92" style="fill:#7cb342;fill-rule:nonzero;"/><path d="M1026.01,173.772l0,-11.92" style="fill:none;stroke:#616262;stroke-width:2px;"/><path d="M1018.24,167.812l7.772,0" style="fill:none;fill-rule:nonzero;"/><path d="M1018.24,167.812l7.772,0" style="fill:none;stroke:#616262;stroke-width:2px;"/><path d="M1026.01,161.852l0,-11.919" style="fill:#7cb342;fill-rule:nonzero;"/><path d="M1026.01,161.852l0,-11.919" style="fill:none;stroke:#616262;stroke-width:2px;"/><path d="M1018.24,155.892l7.772,0" style="fill:none;fill-rule:nonzero;"/><path d="M1018.24,155.892l7.772,0" style="fill:none;stroke:#616262;stroke-width:2px;"/><path d="M1026.01,149.933c-0.013,-0.071 0.032,-1.336 0.134,-2.593c0.096,-0.626 0.193,-1.251 0.265,-1.72c0.12,-0.458 0.2,-0.764 0.2,-0.764c0,0 0.078,-0.306 0.195,-0.766c0.108,-0.462 0.372,-1.041 0.573,-1.639c0.196,-0.602 0.534,-1.146 0.719,-1.582c0.19,-0.435 0.365,-0.7 0.365,-0.7" style="fill:#7cb342;fill-rule:nonzero;"/><path d="M1026.01,149.933c-0.013,-0.071 0.032,-1.336 0.134,-2.593c0.096,-0.626 0.193,-1.251 0.265,-1.72c0.12,-0.458 0.2,-0.764 0.2,-0.764c0,0 0.078,-0.306 0.195,-0.766c0.108,-0.462 0.372,-1.041 0.573,-1.639c0.196,-0.602 0.534,-1.146 0.719,-1.582c0.19,-0.435 0.365,-0.7 0.365,-0.7" style="fill:none;stroke:#616262;stroke-width:2px;"/><path d="M1019.07,142.966l7.538,1.89" style="fill:none;fill-rule:nonzero;"/><path d="M1019.07,142.966l7.538,1.89" style="fill:none;stroke:#616262;stroke-width:2px;"/><path d="M1028.46,140.169c0,0 0.165,-0.27 0.412,-0.675c0.124,-0.203 0.267,-0.439 0.421,-0.693c0.179,-0.237 0.37,-0.49 0.56,-0.743c0.19,-0.253 0.38,-0.506 0.559,-0.743c0.2,-0.219 0.387,-0.423 0.548,-0.599c0.318,-0.352 0.531,-0.587 0.531,-0.587c0,0 0.049,-0.062 0.148,-0.159c0.103,-0.093 0.251,-0.225 0.427,-0.384c0.365,-0.304 0.791,-0.782 1.321,-1.134c0.986,-0.801 2.093,-1.419 2.093,-1.419" style="fill:#7cb342;fill-rule:nonzero;"/><path d="M1028.46,140.169c0,0 0.165,-0.27 0.412,-0.675c0.124,-0.203 0.267,-0.439 0.421,-0.693c0.179,-0.237 0.37,-0.49 0.56,-0.743c0.19,-0.253 0.38,-0.506 0.559,-0.743c0.2,-0.219 0.387,-0.423 0.548,-0.599c0.318,-0.352 0.531,-0.587 0.531,-0.587c0,0 0.049,-0.062 0.148,-0.159c0.103,-0.093 0.251,-0.225 0.427,-0.384c0.365,-0.304 0.791,-0.782 1.321,-1.134c0.986,-0.801 2.093,-1.419 2.093,-1.419" style="fill:none;stroke:#616262;stroke-width:2px;"/><path d="M1025.95,130.684l5.546,5.445" style="fill:none;fill-rule:nonzero;"/><path d="M1025.95,130.684l5.546,5.445" style="fill:none;stroke:#616262;stroke-width:2px;"/><path d="M1035.48,133.033c0,0 0.261,-0.181 0.682,-0.399c0.428,-0.205 0.998,-0.478 1.568,-0.751c0.594,-0.218 1.187,-0.435 1.632,-0.598c0.455,-0.132 0.764,-0.201 0.764,-0.201c0,0 1.215,-0.359 2.476,-0.498c0.621,-0.132 1.262,-0.106 1.735,-0.145c0.475,-0.027 0.791,-0.044 0.791,-0.044" style="fill:#7cb342;fill-rule:nonzero;"/><path d="M1035.48,133.033c0,0 0.261,-0.181 0.682,-0.399c0.428,-0.205 0.998,-0.478 1.568,-0.751c0.594,-0.218 1.187,-0.435 1.632,-0.598c0.455,-0.132 0.764,-0.201 0.764,-0.201c0,0 1.215,-0.359 2.476,-0.498c0.621,-0.132 1.262,-0.106 1.735,-0.145c0.475,-0.027 0.791,-0.044 0.791,-0.044" style="fill:none;stroke:#616262;stroke-width:2px;"/><path d="M1038.1,123.582l2.03,7.502" style="fill:none;fill-rule:nonzero;"/><path d="M1038.1,123.582l2.03,7.502" style="fill:none;stroke:#616262;stroke-width:2px;"/><path d="M1045.13,130.397c0,0 0.317,0.017 0.792,0.044c0.473,0.039 1.113,0.013 1.734,0.145c1.262,0.139 2.477,0.498 2.477,0.498c0,0 0.309,0.069 0.763,0.201c0.446,0.163 1.039,0.38 1.633,0.598c0.57,0.273 1.14,0.546 1.568,0.751c0.42,0.218 0.682,0.399 0.682,0.399" style="fill:#7cb342;fill-rule:nonzero;"/><path d="M1045.13,130.397c0,0 0.317,0.017 0.792,0.044c0.473,0.039 1.113,0.013 1.734,0.145c1.262,0.139 2.477,0.498 2.477,0.498c0,0 0.309,0.069 0.763,0.201c0.446,0.163 1.039,0.38 1.633,0.598c0.57,0.273 1.14,0.546 1.568,0.751c0.42,0.218 0.682,0.399 0.682,0.399" style="fill:none;stroke:#616262;stroke-width:2px;"/><path d="M1052.16,123.582l-2.03,7.502" style="fill:none;fill-rule:nonzero;"/><path d="M1052.16,123.582l-2.03,7.502" style="fill:none;stroke:#616262;stroke-width:2px;"/><path d="M1054.78,133.033c0,0 1.107,0.618 2.093,1.419c0.53,0.352 0.956,0.83 1.32,1.134c0.177,0.159 0.324,0.291 0.427,0.384c0.099,0.097 0.149,0.159 0.149,0.159c0,0 0.212,0.235 0.531,0.587c0.16,0.176 0.348,0.38 0.548,0.599c0.178,0.237 0.368,0.49 0.559,0.743c0.19,0.253 0.381,0.506 0.56,0.743c0.153,0.254 0.297,0.49 0.42,0.693c0.248,0.405 0.413,0.675 0.413,0.675" style="fill:#7cb342;fill-rule:nonzero;"/><path d="M1054.78,133.033c0,0 1.107,0.618 2.093,1.419c0.53,0.352 0.956,0.83 1.32,1.134c0.177,0.159 0.324,0.291 0.427,0.384c0.099,0.097 0.149,0.159 0.149,0.159c0,0 0.212,0.235 0.531,0.587c0.16,0.176 0.348,0.38 0.548,0.599c0.178,0.237 0.368,0.49 0.559,0.743c0.19,0.253 0.381,0.506 0.56,0.743c0.153,0.254 0.297,0.49 0.42,0.693c0.248,0.405 0.413,0.675 0.413,0.675" style="fill:none;stroke:#616262;stroke-width:2px;"/><path d="M1064.32,130.684l-5.546,5.445" style="fill:none;fill-rule:nonzero;"/><path d="M1064.32,130.684l-5.546,5.445" style="fill:none;stroke:#616262;stroke-width:2px;"/><path d="M1061.8,140.169c0,0 0.174,0.265 0.365,0.7c0.185,0.436 0.522,0.98 0.719,1.582c0.201,0.598 0.464,1.177 0.573,1.639c0.117,0.46 0.194,0.766 0.194,0.766c0,0 0.081,0.306 0.201,0.764c0.072,0.469 0.169,1.094 0.265,1.72c0.102,1.257 0.147,2.522 0.134,2.593" style="fill:#7cb342;fill-rule:nonzero;"/><path d="M1061.8,140.169c0,0 0.174,0.265 0.365,0.7c0.185,0.436 0.522,0.98 0.719,1.582c0.201,0.598 0.464,1.177 0.573,1.639c0.117,0.46 0.194,0.766 0.194,0.766c0,0 0.081,0.306 0.201,0.764c0.072,0.469 0.169,1.094 0.265,1.72c0.102,1.257 0.147,2.522 0.134,2.593" style="fill:none;stroke:#616262;stroke-width:2px;"/><path d="M1071.19,142.966l-7.539,1.89" style="fill:none;fill-rule:nonzero;"/><path d="M1071.19,142.966l-7.539,1.89" style="fill:none;stroke:#616262;stroke-width:2px;"/><path d="M1064.25,149.933l0,11.919" style="fill:#7cb342;fill-rule:nonzero;"/><path d="M1064.25,149.933l0,11.919" style="fill:none;stroke:#616262;stroke-width:2px;"/><path d="M1072.02,155.892l-7.772,0" style="fill:none;fill-rule:nonzero;"/><path d="M1072.02,155.892l-7.772,0" style="fill:none;stroke:#616262;stroke-width:2px;"/><path d="M1064.25,161.852l0,11.92" style="fill:#7cb342;fill-rule:nonzero;"/><path d="M1064.25,161.852l0,11.92" style="fill:none;stroke:#616262;stroke-width:2px;"/><path d="M1072.02,167.812l-7.772,0" style="fill:none;fill-rule:nonzero;"/><path d="M1072.02,167.812l-7.772,0" style="fill:none;stroke:#616262;stroke-width:2px;"/><path d="M1064.25,173.772l0,11.919" style="fill:#7cb342;fill-rule:nonzero;"/><path d="M1064.25,173.772l0,11.919" style="fill:none;stroke:#616262;stroke-width:2px;"/><path d="M1072.02,179.731l-7.772,0" style="fill:none;fill-rule:nonzero;"/><path d="M1072.02,179.731l-7.772,0" style="fill:none;stroke:#616262;stroke-width:2px;"/><path d="M1064.25,185.691l0,11.92" style="fill:#7cb342;fill-rule:nonzero;"/><path d="M1064.25,185.691l0,11.92" style="fill:none;stroke:#616262;stroke-width:2px;"/><path d="M1072.02,191.651l-7.772,0" style="fill:none;fill-rule:nonzero;"/><path d="M1072.02,191.651l-7.772,0" style="fill:none;stroke:#616262;stroke-width:2px;"/><path d="M1064.25,197.611l0,11.919" style="fill:#7cb342;fill-rule:nonzero;"/><path d="M1064.25,197.611l0,11.919" style="fill:none;stroke:#616262;stroke-width:2px;"/><path d="M1072.02,203.571l-7.772,0" style="fill:none;fill-rule:nonzero;"/><path d="M1072.02,203.571l-7.772,0" style="fill:none;stroke:#616262;stroke-width:2px;"/><path d="M1064.25,209.53l0,11.92" style="fill:#7cb342;fill-rule:nonzero;"/><path d="M1064.25,209.53l0,11.92" style="fill:none;stroke:#616262;stroke-width:2px;"/><path d="M1072.02,215.49l-7.772,0" style="fill:none;fill-rule:nonzero;"/><path d="M1072.02,215.49l-7.772,0" style="fill:none;stroke:#616262;stroke-width:2px;"/><path d="M1064.25,221.45l0,11.919" style="fill:#7cb342;fill-rule:nonzero;"/><path d="M1064.25,221.45l0,11.919" style="fill:none;stroke:#616262;stroke-width:2px;"/><path d="M1072.02,227.41l-7.772,0" style="fill:none;fill-rule:nonzero;"/><path d="M1072.02,227.41l-7.772,0" style="fill:none;stroke:#616262;stroke-width:2px;"/><path d="M1064.25,233.369l0,11.92" style="fill:#7cb342;fill-rule:nonzero;"/><path d="M1064.25,233.369l0,11.92" style="fill:none;stroke:#616262;stroke-width:2px;"/><path d="M1072.02,239.329l-7.772,0" style="fill:none;fill-rule:nonzero;"/><path d="M1072.02,239.329l-7.772,0" style="fill:none;stroke:#616262;stroke-width:2px;"/><path d="M1064.25,245.289l0,11.92" style="fill:#7cb342;fill-rule:nonzero;"/><path d="M1064.25,245.289l0,11.92" style="fill:none;stroke:#616262;stroke-width:2px;"/><path d="M1072.02,251.249l-7.772,0" style="fill:none;fill-rule:nonzero;"/><path d="M1072.02,251.249l-7.772,0" style="fill:none;stroke:#616262;stroke-width:2px;"/><path d="M1064.25,257.209l0,11.919" style="fill:#7cb342;fill-rule:nonzero;"/><path d="M1064.25,257.209l0,11.919" style="fill:none;stroke:#616262;stroke-width:2px;"/><path d="M1072.02,263.168l-7.772,0" style="fill:none;fill-rule:nonzero;"/><path d="M1072.02,263.168l-7.772,0" style="fill:none;stroke:#616262;stroke-width:2px;"/><path d="M1063.25,270.128l-12.08,0" style="fill:#7cb342;fill-rule:nonzero;"/><path d="M1063.25,270.128l-12.08,0" style="fill:none;stroke:#616262;stroke-width:2px;"/><path d="M1057.21,277.9l0,-7.772" style="fill:none;fill-rule:nonzero;"/><path d="M1057.21,277.9l0,-7.772" style="fill:none;stroke:#616262;stroke-width:2px;"/><path d="M1051.17,270.128l-12.079,0" style="fill:#7cb342;fill-rule:nonzero;"/><path d="M1051.17,270.128l-12.079,0" style="fill:none;stroke:#616262;stroke-width:2px;"/><path d="M1045.13,277.9l0,-7.772" style="fill:none;fill-rule:nonzero;"/><path d="M1045.13,277.9l0,-7.772" style="fill:none;stroke:#616262;stroke-width:2px;"/><path d="M1039.09,270.128l-12.08,0" style="fill:#7cb342;fill-rule:nonzero;"/><path d="M1039.09,270.128l-12.08,0" style="fill:none;stroke:#616262;stroke-width:2px;"/><path d="M1033.05,277.9l0,-7.772" style="fill:none;fill-rule:nonzero;"/><path d="M1033.05,277.9l0,-7.772" style="fill:none;stroke:#616262;stroke-width:2px;"/><path d="M1067.64,273.514l-45.011,0l0,-123.998c0,-12.429 10.076,-22.505 22.505,-22.505c12.43,0 22.506,10.076 22.506,22.505l0,123.998Z" style="fill:#7cb342;fill-rule:nonzero;"/><path d="M1067.64,273.514l-45.011,0l0,-123.998c0,-12.429 10.076,-22.505 22.505,-22.505c12.43,0 22.506,10.076 22.506,22.505l0,123.998Z" style="fill:none;stroke:#616262;stroke-width:2px;"/><path d="M1030.05,141.482l6.093,6.093" style="fill:none;fill-rule:nonzero;"/><path d="M1030.05,141.482l6.093,6.093" style="fill:none;stroke:#616262;stroke-width:2px;"/><path d="M1030.05,153.075l6.093,6.093" style="fill:none;fill-rule:nonzero;"/><path d="M1030.05,153.075l6.093,6.093" style="fill:none;stroke:#616262;stroke-width:2px;"/><path d="M1030.05,164.668l6.093,6.093" style="fill:none;fill-rule:nonzero;"/><path d="M1030.05,164.668l6.093,6.093" style="fill:none;stroke:#616262;stroke-width:2px;"/><path d="M1030.05,176.261l6.093,6.093" style="fill:none;fill-rule:nonzero;"/><path d="M1030.05,176.261l6.093,6.093" style="fill:none;stroke:#616262;stroke-width:2px;"/><path d="M1030.05,187.854l6.093,6.093" style="fill:none;fill-rule:nonzero;"/><path d="M1030.05,187.854l6.093,6.093" style="fill:none;stroke:#616262;stroke-width:2px;"/><path d="M1030.05,199.447l6.093,6.093" style="fill:none;fill-rule:nonzero;"/><path d="M1030.05,199.447l6.093,6.093" style="fill:none;stroke:#616262;stroke-width:2px;"/><path d="M1030.05,211.04l6.093,6.093" style="fill:none;fill-rule:nonzero;"/><path d="M1030.05,211.04l6.093,6.093" style="fill:none;stroke:#616262;stroke-width:2px;"/><path d="M1030.05,222.632l6.093,6.094" style="fill:none;fill-rule:nonzero;"/><path d="M1030.05,222.632l6.093,6.094" style="fill:none;stroke:#616262;stroke-width:2px;"/><path d="M1030.05,234.225l6.093,6.094" style="fill:none;fill-rule:nonzero;"/><path d="M1030.05,234.225l6.093,6.094" style="fill:none;stroke:#616262;stroke-width:2px;"/><path d="M1030.05,245.818l6.093,6.093" style="fill:none;fill-rule:nonzero;"/><path d="M1030.05,245.818l6.093,6.093" style="fill:none;stroke:#616262;stroke-width:2px;"/><path d="M1030.05,257.411l6.093,6.093" style="fill:none;fill-rule:nonzero;"/><path d="M1030.05,257.411l6.093,6.093" style="fill:none;stroke:#616262;stroke-width:2px;"/><path d="M1060.47,141.482l-6.093,6.093" style="fill:none;fill-rule:nonzero;"/><path d="M1060.47,141.482l-6.093,6.093" style="fill:none;stroke:#616262;stroke-width:2px;"/><path d="M1060.47,153.075l-6.093,6.093" style="fill:none;fill-rule:nonzero;"/><path d="M1060.47,153.075l-6.093,6.093" style="fill:none;stroke:#616262;stroke-width:2px;"/><path d="M1060.47,164.668l-6.093,6.093" style="fill:none;fill-rule:nonzero;"/><path d="M1060.47,164.668l-6.093,6.093" style="fill:none;stroke:#616262;stroke-width:2px;"/><path d="M1060.47,176.261l-6.093,6.093" style="fill:none;fill-rule:nonzero;"/><path d="M1060.47,176.261l-6.093,6.093" style="fill:none;stroke:#616262;stroke-width:2px;"/><path d="M1060.47,187.854l-6.093,6.093" style="fill:none;fill-rule:nonzero;"/><path d="M1060.47,187.854l-6.093,6.093" style="fill:none;stroke:#616262;stroke-width:2px;"/><path d="M1060.47,199.447l-6.093,6.093" style="fill:none;fill-rule:nonzero;"/><path d="M1060.47,199.447l-6.093,6.093" style="fill:none;stroke:#616262;stroke-width:2px;"/><path d="M1060.47,211.04l-6.093,6.093" style="fill:none;fill-rule:nonzero;"/><path d="M1060.47,211.04l-6.093,6.093" style="fill:none;stroke:#616262;stroke-width:2px;"/><path d="M1060.47,222.632l-6.093,6.094" style="fill:none;fill-rule:nonzero;"/><path d="M1060.47,222.632l-6.093,6.094" style="fill:none;stroke:#616262;stroke-width:2px;"/><path d="M1060.47,234.225l-6.093,6.094" style="fill:none;fill-rule:nonzero;"/><path d="M1060.47,234.225l-6.093,6.094" style="fill:none;stroke:#616262;stroke-width:2px;"/><path d="M1060.47,245.818l-6.093,6.093" style="fill:none;fill-rule:nonzero;"/><path d="M1060.47,245.818l-6.093,6.093" style="fill:none;stroke:#616262;stroke-width:2px;"/><path d="M1060.47,257.411l-6.093,6.093" style="fill:none;fill-rule:nonzero;"/><path d="M1060.47,257.411l-6.093,6.093" style="fill:none;stroke:#616262;stroke-width:2px;"/><path d="M1045.13,131.703l0,7.779" style="fill:none;fill-rule:nonzero;"/><path d="M1045.13,131.703l0,7.779" style="fill:none;stroke:#616262;stroke-width:2px;"/><path d="M1045.13,145.453l0,7.779" style="fill:none;fill-rule:nonzero;"/><path d="M1045.13,145.453l0,7.779" style="fill:none;stroke:#616262;stroke-width:2px;"/><path d="M1045.13,159.203l0,7.779" style="fill:none;fill-rule:nonzero;"/><path d="M1045.13,159.203l0,7.779" style="fill:none;stroke:#616262;stroke-width:2px;"/><path d="M1045.13,172.953l0,7.779" style="fill:none;fill-rule:nonzero;"/><path d="M1045.13,172.953l0,7.779" style="fill:none;stroke:#616262;stroke-width:2px;"/><path d="M1045.13,186.703l0,7.779" style="fill:none;fill-rule:nonzero;"/><path d="M1045.13,186.703l0,7.779" style="fill:none;stroke:#616262;stroke-width:2px;"/><path d="M1045.13,200.453l0,7.779" style="fill:none;fill-rule:nonzero;"/><path d="M1045.13,200.453l0,7.779" style="fill:none;stroke:#616262;stroke-width:2px;"/><path d="M1045.13,214.203l0,7.779" style="fill:none;fill-rule:nonzero;"/><path d="M1045.13,214.203l0,7.779" style="fill:none;stroke:#616262;stroke-width:2px;"/><path d="M1045.13,227.953l0,7.779" style="fill:none;fill-rule:nonzero;"/><path d="M1045.13,227.953l0,7.779" style="fill:none;stroke:#616262;stroke-width:2px;"/><path d="M1045.13,241.703l0,7.779" style="fill:none;fill-rule:nonzero;"/><path d="M1045.13,241.703l0,7.779" style="fill:none;stroke:#616262;stroke-width:2px;"/><path d="M1045.13,255.453l0,7.779" style="fill:none;fill-rule:nonzero;"/><path d="M1045.13,255.453l0,7.779" style="fill:none;stroke:#616262;stroke-width:2px;"/><path d="M1082.91,324.669l-16.01,21.132l-43.541,0l-16.01,-21.132l0,-44.824l75.561,0l0,44.824Z" style="fill:#7fccc4;fill-rule:nonzero;"/><path d="M1082.91,324.669l-16.01,21.132l-43.541,0l-16.01,-21.132l0,-44.824l75.561,0l0,44.824Z" style="fill:none;stroke:#616262;stroke-width:2px;"/><rect x="1000.95" y="268.319" width="88.367" height="11.526" style="fill:#c5e0a6;fill-rule:nonzero;"/><rect x="1000.95" y="268.319" width="88.367" height="11.526" style="fill:none;stroke:#616262;stroke-width:2px;"/><path d="M1017.28,293.933l55.71,0" style="fill:none;fill-rule:nonzero;"/><path d="M1017.28,293.933l55.71,0" style="fill:none;stroke:#616262;stroke-width:2px;"/><path d="M1017.28,303.538l55.71,0" style="fill:none;fill-rule:nonzero;"/><path d="M1017.28,303.538l55.71,0" style="fill:none;stroke:#616262;stroke-width:2px;"/><path d="M1017.28,313.143l55.71,0" style="fill:none;fill-rule:nonzero;"/><path d="M1017.28,313.143l55.71,0" style="fill:none;stroke:#616262;stroke-width:2px;"/></g><g><path d="M1222.28,181.106c0,43.63 -18.874,78.999 -18.874,78.999c0,0 -18.874,-35.369 -18.874,-78.999c0,-43.629 18.874,-78.998 18.874,-78.998c0,0 18.874,35.369 18.874,78.998Z" style="fill:#7cb342;fill-rule:nonzero;"/><path d="M1222.28,181.106c0,43.63 -18.874,78.999 -18.874,78.999c0,0 -18.874,-35.369 -18.874,-78.999c0,-43.629 18.874,-78.998 18.874,-78.998c0,0 18.874,35.369 18.874,78.998Z" style="fill:none;stroke:#616262;stroke-width:2px;"/><path d="M1203.41,102.108l0,157.997" style="fill:none;fill-rule:nonzero;"/><path d="M1203.41,102.108l0,157.997" style="fill:none;stroke:#616262;stroke-width:2px;"/><path d="M1253.27,213.672c-22.249,34.237 -49.346,56.104 -49.346,56.104c0,0 8.977,-33.642 31.226,-67.88c22.249,-34.237 49.346,-56.104 49.346,-56.104c0,0 -8.977,33.642 -31.226,67.88Z" style="fill:#7cb342;fill-rule:nonzero;"/><path d="M1253.27,213.672c-22.249,34.237 -49.346,56.104 -49.346,56.104c0,0 8.977,-33.642 31.226,-67.88c22.249,-34.237 49.346,-56.104 49.346,-56.104c0,0 -8.977,33.642 -31.226,67.88Z" style="fill:none;stroke:#616262;stroke-width:2px;"/><path d="M1284.5,145.792l-80.572,123.984" style="fill:none;fill-rule:nonzero;"/><path d="M1284.5,145.792l-80.572,123.984" style="fill:none;stroke:#616262;stroke-width:2px;"/><path d="M1153.54,213.672c22.25,34.237 49.347,56.104 49.347,56.104c0,0 -8.977,-33.642 -31.226,-67.88c-22.249,-34.237 -49.346,-56.104 -49.346,-56.104c0,0 8.976,33.642 31.225,67.88Z" style="fill:#7cb342;fill-rule:nonzero;"/><path d="M1153.54,213.672c22.25,34.237 49.347,56.104 49.347,56.104c0,0 -8.977,-33.642 -31.226,-67.88c-22.249,-34.237 -49.346,-56.104 -49.346,-56.104c0,0 8.976,33.642 31.225,67.88Z" style="fill:none;stroke:#616262;stroke-width:2px;"/><path d="M1122.32,145.792l80.572,123.984" style="fill:none;fill-rule:nonzero;"/><path d="M1122.32,145.792l80.572,123.984" style="fill:none;stroke:#616262;stroke-width:2px;"/><path d="M1190.25,178.747c12.787,34.804 8.096,68.551 8.096,68.551c0,0 -25.422,-22.684 -38.209,-57.488c-12.787,-34.805 -8.097,-68.551 -8.097,-68.551c0,0 25.422,22.683 38.21,57.488Z" style="fill:#9ccc65;fill-rule:nonzero;"/><path d="M1190.25,178.747c12.787,34.804 8.096,68.551 8.096,68.551c0,0 -25.422,-22.684 -38.209,-57.488c-12.787,-34.805 -8.097,-68.551 -8.097,-68.551c0,0 25.422,22.683 38.21,57.488Z" style="fill:none;stroke:#616262;stroke-width:2px;"/><path d="M1152.04,121.259l46.306,126.039" style="fill:none;fill-rule:nonzero;"/><path d="M1152.04,121.259l46.306,126.039" style="fill:none;stroke:#616262;stroke-width:2px;"/><path d="M1246.9,189.746c-12.64,34.858 -37.967,57.648 -37.967,57.648c0,0 -4.832,-33.726 7.808,-68.584c12.641,-34.858 37.967,-57.648 37.967,-57.648c0,0 4.833,33.726 -7.808,68.584Z" style="fill:#9ccc65;fill-rule:nonzero;"/><path d="M1246.9,189.746c-12.64,34.858 -37.967,57.648 -37.967,57.648c0,0 -4.832,-33.726 7.808,-68.584c12.641,-34.858 37.967,-57.648 37.967,-57.648c0,0 4.833,33.726 -7.808,68.584Z" style="fill:none;stroke:#616262;stroke-width:2px;"/><path d="M1254.71,121.162l-45.775,126.232" style="fill:none;fill-rule:nonzero;"/><path d="M1254.71,121.162l-45.775,126.232" style="fill:none;stroke:#616262;stroke-width:2px;"/><path d="M1173.12,335.885l60.578,0c11.387,-8.972 18.707,-22.875 18.707,-38.497l0,-67.077l-97.992,0l0,67.077c0,15.622 7.32,29.525 18.707,38.497Z" style="fill:#fcf69f;fill-rule:nonzero;"/><path d="M1173.12,335.885l60.578,0c11.387,-8.972 18.707,-22.875 18.707,-38.497l0,-67.077l-97.992,0l0,67.077c0,15.622 7.32,29.525 18.707,38.497Z" style="fill:none;stroke:#616262;stroke-width:2px;"/><rect x="1173.12" y="335.885" width="60.578" height="9.916" style="fill:#fecc81;fill-rule:nonzero;"/><rect x="1173.12" y="335.885" width="60.578" height="9.916" style="fill:none;stroke:#616262;stroke-width:2px;"/><rect x="1154.41" y="243.143" width="97.992" height="13.415" style="fill:#f8aa92;fill-rule:nonzero;"/><rect x="1154.41" y="243.143" width="97.992" height="13.415" style="fill:none;stroke:#616262;stroke-width:2px;"/><path d="M1163.75,280.806l7.932,4l7.931,-4l7.929,4l7.93,-4l7.93,4l7.932,-4l7.935,4l7.932,-4l7.938,4l7.937,-4" style="fill:none;stroke:#616262;stroke-width:2px;"/><path d="M1163.75,291.889l7.932,4l7.931,-4l7.929,4l7.93,-4l7.93,4l7.932,-4l7.935,4l7.932,-4l7.938,4l7.937,-4" style="fill:none;stroke:#616262;stroke-width:2px;"/></g><g><path d="M638.068,217.721l-5.634,-4.464l1.983,-6.909l-5.632,-4.461l1.986,-6.9l-5.632,-4.458l1.986,-6.902l-5.631,-4.456l1.986,-6.902l-5.631,-4.454l1.988,-6.897l-5.631,-4.456l1.986,-6.901l-5.631,-4.456l1.986,-6.901l-5.632,-4.456l1.987,-6.899l-5.631,-4.456l1.987,-6.899l-5.631,-4.454l1.988,-6.898l-5.631,-4.455l1.987,-6.897c0,0 37.295,27.85 40.097,124.931Z" style="fill:#7cb342;fill-rule:nonzero;"/><path d="M638.068,217.721l-5.634,-4.464l1.983,-6.909l-5.632,-4.461l1.986,-6.9l-5.632,-4.458l1.986,-6.902l-5.631,-4.456l1.986,-6.902l-5.631,-4.454l1.988,-6.897l-5.631,-4.456l1.986,-6.901l-5.631,-4.456l1.986,-6.901l-5.632,-4.456l1.987,-6.899l-5.631,-4.456l1.987,-6.899l-5.631,-4.454l1.988,-6.898l-5.631,-4.455l1.987,-6.897c0,0 37.295,27.85 40.097,124.931Z" style="fill:none;stroke:#616262;stroke-width:2px;"/><path d="M636.632,242.906c-1.501,-2.243 -3.064,-4.389 -4.681,-6.44c1.024,-2.424 1.973,-4.905 2.843,-7.441c-1.744,-2.001 -3.538,-3.906 -5.372,-5.714c0.747,-2.48 1.414,-5.011 1.997,-7.589c-1.953,-1.752 -3.943,-3.405 -5.963,-4.961c0.468,-2.519 0.852,-5.082 1.148,-7.683c-2.13,-1.492 -4.285,-2.885 -6.457,-4.181c0.189,-2.534 0.29,-5.104 0.3,-7.704c-2.274,-1.224 -4.563,-2.35 -6.859,-3.378c-0.087,-2.524 -0.265,-5.074 -0.538,-7.647c-2.391,-0.95 -4.784,-1.804 -7.175,-2.561c-0.364,-2.491 -0.822,-5.001 -1.378,-7.522c-2.477,-0.671 -4.947,-1.246 -7.403,-1.727c-0.638,-2.432 -1.373,-4.872 -2.208,-7.315c-2.535,-0.387 -5.054,-0.681 -7.55,-0.883c-0.908,-2.345 -1.915,-4.689 -3.023,-7.023c-2.567,-0.102 -5.108,-0.112 -7.618,-0.034c-1.175,-2.231 -2.451,-4.45 -3.829,-6.649c-2.572,0.185 -5.111,0.459 -7.609,0.818c-1.437,-2.088 -2.976,-4.153 -4.618,-6.187c-2.554,0.472 -5.066,1.029 -7.53,1.666c-1.694,-1.916 -3.49,-3.797 -5.39,-5.635c-0.191,0.315 12.506,-5.289 36.887,4.139c11.774,5.047 25.868,14.742 37.285,31.82c11.178,16.845 19.677,41.072 14.741,69.831Z" style="fill:#9ccc65;fill-rule:nonzero;"/><path d="M636.632,242.906c-1.501,-2.243 -3.064,-4.389 -4.681,-6.44c1.024,-2.424 1.973,-4.905 2.843,-7.441c-1.744,-2.001 -3.538,-3.906 -5.372,-5.714c0.747,-2.48 1.414,-5.011 1.997,-7.589c-1.953,-1.752 -3.943,-3.405 -5.963,-4.961c0.468,-2.519 0.852,-5.082 1.148,-7.683c-2.13,-1.492 -4.285,-2.885 -6.457,-4.181c0.189,-2.534 0.29,-5.104 0.3,-7.704c-2.274,-1.224 -4.563,-2.35 -6.859,-3.378c-0.087,-2.524 -0.265,-5.074 -0.538,-7.647c-2.391,-0.95 -4.784,-1.804 -7.175,-2.561c-0.364,-2.491 -0.822,-5.001 -1.378,-7.522c-2.477,-0.671 -4.947,-1.246 -7.403,-1.727c-0.638,-2.432 -1.373,-4.872 -2.208,-7.315c-2.535,-0.387 -5.054,-0.681 -7.55,-0.883c-0.908,-2.345 -1.915,-4.689 -3.023,-7.023c-2.567,-0.102 -5.108,-0.112 -7.618,-0.034c-1.175,-2.231 -2.451,-4.45 -3.829,-6.649c-2.572,0.185 -5.111,0.459 -7.609,0.818c-1.437,-2.088 -2.976,-4.153 -4.618,-6.187c-2.554,0.472 -5.066,1.029 -7.53,1.666c-1.694,-1.916 -3.49,-3.797 -5.39,-5.635c-0.191,0.315 12.506,-5.289 36.887,4.139c11.774,5.047 25.868,14.742 37.285,31.82c11.178,16.845 19.677,41.072 14.741,69.831Z" style="fill:#9ccc65;fill-rule:nonzero;"/><path d="M636.632,242.906c-1.501,-2.243 -3.064,-4.389 -4.681,-6.44c1.024,-2.424 1.973,-4.905 2.843,-7.441c-1.744,-2.001 -3.538,-3.906 -5.372,-5.714c0.747,-2.48 1.414,-5.011 1.997,-7.589c-1.953,-1.752 -3.943,-3.405 -5.963,-4.961c0.468,-2.519 0.852,-5.082 1.148,-7.683c-2.13,-1.492 -4.285,-2.885 -6.457,-4.181c0.189,-2.534 0.29,-5.104 0.3,-7.704c-2.274,-1.224 -4.563,-2.35 -6.859,-3.378c-0.087,-2.524 -0.265,-5.074 -0.538,-7.647c-2.391,-0.95 -4.784,-1.804 -7.175,-2.561c-0.364,-2.491 -0.822,-5.001 -1.378,-7.522c-2.477,-0.671 -4.947,-1.246 -7.403,-1.727c-0.638,-2.432 -1.373,-4.872 -2.208,-7.315c-2.535,-0.387 -5.054,-0.681 -7.55,-0.883c-0.908,-2.345 -1.915,-4.689 -3.023,-7.023c-2.567,-0.102 -5.108,-0.112 -7.618,-0.034c-1.175,-2.231 -2.451,-4.45 -3.829,-6.649c-2.572,0.185 -5.111,0.459 -7.609,0.818c-1.437,-2.088 -2.976,-4.153 -4.618,-6.187c-2.554,0.472 -5.066,1.029 -7.53,1.666c-1.694,-1.916 -3.49,-3.797 -5.39,-5.635c-0.191,0.315 12.506,-5.289 36.887,4.139c11.774,5.047 25.868,14.742 37.285,31.82c11.178,16.845 19.677,41.072 14.741,69.831Z" style="fill:none;stroke:#616262;stroke-width:2px;"/><path d="M674.824,247.837c1.285,-1.918 2.622,-3.755 4.005,-5.51c-0.876,-2.073 -1.688,-4.196 -2.432,-6.366c1.492,-1.712 3.027,-3.342 4.596,-4.888c-0.639,-2.122 -1.21,-4.288 -1.708,-6.494c1.671,-1.498 3.373,-2.913 5.101,-4.244c-0.4,-2.155 -0.729,-4.348 -0.982,-6.573c1.822,-1.277 3.666,-2.469 5.525,-3.577c-0.162,-2.169 -0.249,-4.367 -0.258,-6.592c1.946,-1.047 3.905,-2.01 5.869,-2.89c0.074,-2.159 0.227,-4.341 0.46,-6.542c2.046,-0.813 4.094,-1.543 6.139,-2.191c0.311,-2.132 0.704,-4.279 1.179,-6.436c2.119,-0.574 4.232,-1.066 6.334,-1.478c0.546,-2.08 1.175,-4.168 1.889,-6.258c2.169,-0.331 4.323,-0.583 6.459,-0.755c0.777,-2.007 1.639,-4.012 2.587,-6.009c2.196,-0.087 4.37,-0.096 6.517,-0.029c1.006,-1.909 2.097,-3.807 3.276,-5.689c2.201,0.159 4.373,0.393 6.51,0.7c1.23,-1.787 2.546,-3.553 3.951,-5.293c2.186,0.404 4.335,0.88 6.443,1.425c1.449,-1.639 2.986,-3.248 4.611,-4.821c0.164,0.269 -10.7,-4.526 -31.559,3.541c-10.073,4.318 -22.132,12.613 -31.9,27.224c-9.563,14.412 -16.835,35.14 -12.612,59.745Z" style="fill:#7cb342;fill-rule:nonzero;"/><path d="M674.824,247.837c1.285,-1.918 2.622,-3.755 4.005,-5.51c-0.876,-2.073 -1.688,-4.196 -2.432,-6.366c1.492,-1.712 3.027,-3.342 4.596,-4.888c-0.639,-2.122 -1.21,-4.288 -1.708,-6.494c1.671,-1.498 3.373,-2.913 5.101,-4.244c-0.4,-2.155 -0.729,-4.348 -0.982,-6.573c1.822,-1.277 3.666,-2.469 5.525,-3.577c-0.162,-2.169 -0.249,-4.367 -0.258,-6.592c1.946,-1.047 3.905,-2.01 5.869,-2.89c0.074,-2.159 0.227,-4.341 0.46,-6.542c2.046,-0.813 4.094,-1.543 6.139,-2.191c0.311,-2.132 0.704,-4.279 1.179,-6.436c2.119,-0.574 4.232,-1.066 6.334,-1.478c0.546,-2.08 1.175,-4.168 1.889,-6.258c2.169,-0.331 4.323,-0.583 6.459,-0.755c0.777,-2.007 1.639,-4.012 2.587,-6.009c2.196,-0.087 4.37,-0.096 6.517,-0.029c1.006,-1.909 2.097,-3.807 3.276,-5.689c2.201,0.159 4.373,0.393 6.51,0.7c1.23,-1.787 2.546,-3.553 3.951,-5.293c2.186,0.404 4.335,0.88 6.443,1.425c1.449,-1.639 2.986,-3.248 4.611,-4.821c0.164,0.269 -10.7,-4.526 -31.559,3.541c-10.073,4.318 -22.132,12.613 -31.9,27.224c-9.563,14.412 -16.835,35.14 -12.612,59.745Z" style="fill:none;stroke:#616262;stroke-width:2px;"/><path d="M655.899,267.247l6.869,-6.592l-3.482,-8.86l6.867,-6.587l-3.484,-8.849l6.866,-6.584l-3.484,-8.851l6.866,-6.582l-3.483,-8.851l6.865,-6.579l-3.485,-8.843l6.865,-6.582l-3.484,-8.849l6.866,-6.581l-3.484,-8.85l6.866,-6.581l-3.485,-8.847l6.866,-6.58l-3.485,-8.848l6.866,-6.579l-3.485,-8.845l6.865,-6.58l-3.485,-8.844c0,0 -45.68,41.395 -37.201,169.744Z" style="fill:#7cb342;fill-rule:nonzero;"/><path d="M655.899,267.247l6.869,-6.592l-3.482,-8.86l6.867,-6.587l-3.484,-8.849l6.866,-6.584l-3.484,-8.851l6.866,-6.582l-3.483,-8.851l6.865,-6.579l-3.485,-8.843l6.865,-6.582l-3.484,-8.849l6.866,-6.581l-3.484,-8.85l6.866,-6.581l-3.485,-8.847l6.866,-6.58l-3.485,-8.848l6.866,-6.579l-3.485,-8.845l6.865,-6.58l-3.485,-8.844c0,0 -45.68,41.395 -37.201,169.744Z" style="fill:none;stroke:#616262;stroke-width:2px;"/><path d="M666.95,243.839l6.104,-4.504l-1.841,-7.359l6.102,-4.501l-1.844,-7.35l6.102,-4.498l-1.845,-7.352l6.102,-4.497l-1.844,-7.351l6.1,-4.494l-1.846,-7.347l6.102,-4.496l-1.845,-7.351l6.101,-4.496l-1.844,-7.351l6.101,-4.496l-1.845,-7.349l6.101,-4.495l-1.845,-7.349l6.1,-4.494l-1.845,-7.348l6.101,-4.495l-1.846,-7.347c0,0 -40.349,28.022 -46.826,130.32Z" style="fill:#9ccc65;fill-rule:nonzero;"/><path d="M666.95,243.839l6.104,-4.504l-1.841,-7.359l6.102,-4.501l-1.844,-7.35l6.102,-4.498l-1.845,-7.352l6.102,-4.497l-1.844,-7.351l6.1,-4.494l-1.846,-7.347l6.102,-4.496l-1.845,-7.351l6.101,-4.496l-1.844,-7.351l6.101,-4.496l-1.845,-7.349l6.101,-4.495l-1.845,-7.349l6.1,-4.494l-1.845,-7.348l6.101,-4.495l-1.846,-7.347c0,0 -40.349,28.022 -46.826,130.32Z" style="fill:none;stroke:#616262;stroke-width:2px;"/><path d="M650.118,245.295l6.233,-7.196l-4.282,-8.503l6.233,-7.19l-4.284,-8.491l6.232,-7.188l-4.283,-8.493l6.232,-7.185l-4.283,-8.493l6.231,-7.182l-4.283,-8.486l6.231,-7.185l-4.283,-8.492l6.231,-7.184l-4.282,-8.492l6.231,-7.185l-4.283,-8.489l6.231,-7.184l-4.283,-8.489l6.231,-7.182l-4.284,-8.488l6.232,-7.183l-4.284,-8.486c0,0 -41.68,45.42 -21.434,172.446Z" style="fill:#7cb342;fill-rule:nonzero;"/><path d="M650.118,245.295l6.233,-7.196l-4.282,-8.503l6.233,-7.19l-4.284,-8.491l6.232,-7.188l-4.283,-8.493l6.232,-7.185l-4.283,-8.493l6.231,-7.182l-4.283,-8.486l6.231,-7.185l-4.283,-8.492l6.231,-7.184l-4.282,-8.492l6.231,-7.185l-4.283,-8.489l6.231,-7.184l-4.283,-8.489l6.231,-7.182l-4.284,-8.488l6.232,-7.183l-4.284,-8.486c0,0 -41.68,45.42 -21.434,172.446Z" style="fill:none;stroke:#616262;stroke-width:2px;"/><path d="M664.054,296.545l4.05,-8.615l-6.426,-7.025l4.051,-8.61l-6.423,-7.012l4.051,-8.608l-6.424,-7.015l4.052,-8.605l-6.424,-7.015l4.052,-8.602l-6.423,-7.007l4.052,-8.605l-6.424,-7.013l4.052,-8.604l-6.424,-7.015l4.052,-8.604l-6.423,-7.011l4.052,-8.604l-6.423,-7.01l4.052,-8.602l-6.423,-7.01l4.052,-8.602l-6.423,-7.009c0,0 -27.814,55.014 26.092,171.803Z" style="fill:#9ccc65;fill-rule:nonzero;"/><path d="M664.054,296.545l4.05,-8.615l-6.426,-7.025l4.051,-8.61l-6.423,-7.012l4.051,-8.608l-6.424,-7.015l4.052,-8.605l-6.424,-7.015l4.052,-8.602l-6.423,-7.007l4.052,-8.605l-6.424,-7.013l4.052,-8.604l-6.424,-7.015l4.052,-8.604l-6.423,-7.011l4.052,-8.604l-6.423,-7.01l4.052,-8.602l-6.423,-7.01l4.052,-8.602l-6.423,-7.009c0,0 -27.814,55.014 26.092,171.803Z" style="fill:none;stroke:#616262;stroke-width:2px;"/><path d="M684.253,251.549l0,-36.548l-55.431,0l0,36.548c-19.342,10.036 -32.566,30.231 -32.566,53.527c0,15.112 5.575,28.914 14.762,39.494l91.039,0c9.187,-10.58 14.761,-24.382 14.761,-39.494c0,-23.296 -13.223,-43.491 -32.565,-53.527Z" style="fill:#c5e0a6;fill-rule:nonzero;"/><path d="M684.253,251.549l0,-36.548l-55.431,0l0,36.548c-19.342,10.036 -32.566,30.231 -32.566,53.527c0,15.112 5.575,28.914 14.762,39.494l91.039,0c9.187,-10.58 14.761,-24.382 14.761,-39.494c0,-23.296 -13.223,-43.491 -32.565,-53.527Z" style="fill:none;stroke:#616262;stroke-width:2px;"/><rect x="621.893" y="215.001" width="69.289" height="15.589" style="fill:#4ab6ac;fill-rule:nonzero;"/><rect x="621.893" y="215.001" width="69.289" height="15.589" style="fill:none;stroke:#616262;stroke-width:2px;"/><path d="M656.537,261.696l-10.393,12.613l20.787,0l-10.394,-12.613Z" style="fill:#f8aa92;fill-rule:nonzero;"/><path d="M656.537,261.696l-10.393,12.613l20.787,0l-10.394,-12.613Z" style="fill:none;stroke:#616262;stroke-width:2px;"/><path d="M656.537,282.833l-10.393,12.612l20.787,0l-10.394,-12.612Z" style="fill:#f8aa92;fill-rule:nonzero;"/><path d="M656.537,282.833l-10.393,12.612l20.787,0l-10.394,-12.612Z" style="fill:none;stroke:#616262;stroke-width:2px;"/><path d="M656.537,303.97l-10.393,12.612l20.787,0l-10.394,-12.612Z" style="fill:#f8aa92;fill-rule:nonzero;"/><path d="M656.537,303.97l-10.393,12.612l20.787,0l-10.394,-12.612Z" style="fill:none;stroke:#616262;stroke-width:2px;"/><path d="M601.193,328.98c2.473,5.707 5.802,10.958 9.825,15.59l91.039,0c4.023,-4.632 7.352,-9.883 9.825,-15.59l-110.689,0Z" style="fill:#f8aa92;fill-rule:nonzero;"/><path d="M601.193,328.98c2.473,5.707 5.802,10.958 9.825,15.59l91.039,0c4.023,-4.632 7.352,-9.883 9.825,-15.59l-110.689,0Z" style="fill:none;stroke:#616262;stroke-width:2px;"/></g><g><path d="M381.945,223.114c0,36.157 -71.827,93.468 -71.827,93.468c0,0 -71.827,-57.311 -71.827,-93.468c0,-36.157 32.158,-65.467 71.827,-65.467c39.669,0 71.827,29.31 71.827,65.467Z" style="fill:#9ccc65;fill-rule:nonzero;"/><path d="M381.945,223.114c0,36.157 -71.827,93.468 -71.827,93.468c0,0 -71.827,-57.311 -71.827,-93.468c0,-36.157 32.158,-65.467 71.827,-65.467c39.669,0 71.827,29.31 71.827,65.467Z" style="fill:none;stroke:#616262;stroke-width:2px;"/><path d="M367.362,223.114c0,36.157 -57.244,93.468 -57.244,93.468c0,0 -57.244,-57.311 -57.244,-93.468c0,-36.157 25.629,-65.467 57.244,-65.467c31.615,0 57.244,29.31 57.244,65.467Z" style="fill:#9ccc65;fill-rule:nonzero;"/><path d="M367.362,223.114c0,36.157 -57.244,93.468 -57.244,93.468c0,0 -57.244,-57.311 -57.244,-93.468c0,-36.157 25.629,-65.467 57.244,-65.467c31.615,0 57.244,29.31 57.244,65.467Z" style="fill:none;stroke:#616262;stroke-width:2px;"/><path d="M352.673,223.114c0,36.157 -42.555,93.468 -42.555,93.468c0,0 -42.555,-57.311 -42.555,-93.468c0,-36.157 19.052,-65.467 42.555,-65.467c23.503,0 42.555,29.31 42.555,65.467Z" style="fill:#9ccc65;fill-rule:nonzero;"/><path d="M352.673,223.114c0,36.157 -42.555,93.468 -42.555,93.468c0,0 -42.555,-57.311 -42.555,-93.468c0,-36.157 19.052,-65.467 42.555,-65.467c23.503,0 42.555,29.31 42.555,65.467Z" style="fill:none;stroke:#616262;stroke-width:2px;"/><path d="M337.984,223.114c0,36.157 -27.866,93.468 -27.866,93.468c0,0 -27.867,-57.311 -27.867,-93.468c0,-36.157 12.477,-65.467 27.867,-65.467c15.39,0 27.866,29.31 27.866,65.467Z" style="fill:#9ccc65;fill-rule:nonzero;"/><path d="M337.984,223.114c0,36.157 -27.866,93.468 -27.866,93.468c0,0 -27.867,-57.311 -27.867,-93.468c0,-36.157 12.477,-65.467 27.867,-65.467c15.39,0 27.866,29.31 27.866,65.467Z" style="fill:none;stroke:#616262;stroke-width:2px;"/><path d="M310.601,315.167c-0.312,0.922 -0.483,1.415 -0.483,1.415c0,0 -0.172,-0.493 -0.483,-1.415" style="fill:none;stroke:#616262;stroke-width:2px;"/><path d="M306.86,306.618c-5.658,-18.011 -16.7,-56.609 -16.7,-83.504c0,-36.157 8.936,-65.467 19.958,-65.467c11.022,0 19.958,29.31 19.958,65.467c0,29.274 -13.083,72.416 -18.064,87.779" style="fill:none;stroke:#616262;stroke-width:2px;stroke-dasharray:3,8.99;"/><path d="M310.898,315.306c-0.504,0.833 -0.78,1.276 -0.78,1.276c0,0 -0.276,-0.443 -0.78,-1.276" style="fill:none;stroke:#616262;stroke-width:2px;"/><path d="M304.748,307.438c-9.974,-17.635 -30.357,-57.014 -30.357,-84.324c0,-36.157 15.996,-65.467 35.727,-65.467c19.731,0 35.727,29.31 35.727,65.467c0,29.592 -23.931,73.353 -32.621,88.269" style="fill:none;stroke:#616262;stroke-width:2px;stroke-dasharray:3.04,9.11;"/><path d="M311.105,315.459c-0.639,0.734 -0.987,1.123 -0.987,1.123c0,0 -0.348,-0.389 -0.987,-1.123" style="fill:none;stroke:#616262;stroke-width:2px;"/><path d="M303.269,308.493c-13.969,-17.073 -44.44,-57.51 -44.44,-85.379c0,-36.157 22.963,-65.467 51.289,-65.467c28.326,0 51.288,29.31 51.288,65.467c0,30.007 -35.324,74.583 -47.341,88.88" style="fill:none;stroke:#616262;stroke-width:2px;stroke-dasharray:3.04,9.11;"/><path d="M311.229,315.581c-0.721,0.655 -1.111,1.001 -1.111,1.001c0,0 -0.391,-0.346 -1.111,-1.001" style="fill:none;stroke:#616262;stroke-width:2px;"/><path d="M302.378,309.363c-17.174,-16.533 -56.963,-57.895 -56.963,-86.249c0,-36.157 28.969,-65.467 64.703,-65.467c35.734,0 64.703,29.31 64.703,65.467c0,30.363 -45.628,75.643 -60.251,89.376" style="fill:none;stroke:#616262;stroke-width:2px;stroke-dasharray:3.03,9.09;"/><path d="M321.028,223.114c0,36.157 -10.91,93.468 -10.91,93.468c0,0 -10.91,-57.311 -10.91,-93.468c0,-36.157 4.885,-65.467 10.91,-65.467c6.025,0 10.91,29.31 10.91,65.467Z" style="fill:#9ccc65;fill-rule:nonzero;"/><path d="M321.028,223.114c0,36.157 -10.91,93.468 -10.91,93.468c0,0 -10.91,-57.311 -10.91,-93.468c0,-36.157 4.885,-65.467 10.91,-65.467c6.025,0 10.91,29.31 10.91,65.467Z" style="fill:none;stroke:#616262;stroke-width:2px;"/><path d="M310.118,157.647l0,132.608" style="fill:none;stroke:#616262;stroke-width:2px;stroke-dasharray:3,9;"/><path d="M339.282,327.072l-58.328,0l-17.499,-40.83l93.326,0l-17.499,40.83Z" style="fill:#f8aa92;fill-rule:nonzero;"/><path d="M339.282,327.072l-58.328,0l-17.499,-40.83l93.326,0l-17.499,40.83Z" style="fill:none;stroke:#616262;stroke-width:2px;"/><path d="M280.954,327.072l58.328,0l6.999,17.498l-72.327,0l7,-17.498Z" style="fill:#f58967;fill-rule:nonzero;"/><path d="M280.954,327.072l58.328,0l6.999,17.498l-72.327,0l7,-17.498Z" style="fill:none;stroke:#616262;stroke-width:2px;"/><rect x="259.372" y="276.034" width="101.492" height="10.208" style="fill:#fecc81;fill-rule:nonzero;"/><rect x="259.372" y="276.034" width="101.492" height="10.208" style="fill:none;stroke:#616262;stroke-width:2px;"/><path d="M277.454,286.242l17.499,40.83" style="fill:none;fill-rule:nonzero;"/><path d="M277.454,286.242l17.499,40.83" style="fill:none;stroke:#616262;stroke-width:2px;"/><path d="M286.203,286.242l17.499,40.83" style="fill:none;fill-rule:nonzero;"/><path d="M286.203,286.242l17.499,40.83" style="fill:none;stroke:#616262;stroke-width:2px;"/><path d="M294.953,286.242l17.498,40.83" style="fill:none;fill-rule:nonzero;"/><path d="M294.953,286.242l17.498,40.83" style="fill:none;stroke:#616262;stroke-width:2px;"/></g><g><path d="M517.189,189.165l-4.999,-3.952l5.432,-3.327" style="fill:none;stroke:#616262;stroke-width:2px;stroke-linejoin:round;"/><path d="M512.495,175.562c0,0 -0.055,1.205 -0.139,3.013c-0.08,1.809 -0.194,4.22 -0.351,6.627c-0.132,2.41 -0.302,4.816 -0.442,6.619c-0.134,1.804 -0.224,3.007 -0.224,3.007" style="fill:none;stroke:#616262;stroke-width:2px;stroke-linejoin:round;"/><path d="M515.424,208.625c0,0 -1.193,-1.05 -2.387,-2.1c-1.208,-1.039 -2.416,-2.078 -2.416,-2.078l5.574,-3.084" style="fill:none;stroke:#616262;stroke-width:2px;stroke-linejoin:round;"/><path d="M511.339,194.828c0,0 -0.105,1.2 -0.264,3.002c-0.146,1.803 -0.383,4.201 -0.637,6.597c-0.228,2.4 -0.547,4.787 -0.748,6.583c-0.232,1.791 -0.387,2.984 -0.387,2.984" style="fill:none;stroke:#616262;stroke-width:2px;stroke-linejoin:round;"/><path d="M512.63,228.004c0,0 -1.136,-1.123 -2.273,-2.246c-1.14,-1.107 -2.279,-2.213 -2.279,-2.213c0,0 1.437,-0.683 2.874,-1.366c1.428,-0.7 2.855,-1.4 2.855,-1.4" style="fill:none;stroke:#616262;stroke-width:2px;stroke-linejoin:round;"/><path d="M509.303,213.994c0,0 -0.16,1.194 -0.4,2.983c-0.274,1.783 -0.605,4.168 -1.007,6.538c-0.761,4.75 -1.726,9.454 -1.726,9.454" style="fill:none;stroke:#616262;stroke-width:2px;stroke-linejoin:round;"/><path d="M508.396,247.198c0,0 -1.005,-1.228 -2.056,-2.436c-1.048,-1.197 -2.097,-2.394 -2.097,-2.394c0,0 1.49,-0.563 2.98,-1.127c1.476,-0.59 2.953,-1.181 2.953,-1.181" style="fill:none;stroke:#616262;stroke-width:2px;stroke-linejoin:round;"/><path d="M506.17,232.969c0,0 -0.931,4.712 -2.105,9.355c-0.562,2.329 -1.218,4.626 -1.698,6.353c-0.517,1.713 -0.861,2.855 -0.861,2.855" style="fill:none;stroke:#616262;stroke-width:2px;stroke-linejoin:round;"/><path d="M501.916,265.949c0,0 -0.818,-1.394 -1.661,-2.733c-0.838,-1.343 -1.742,-2.657 -1.742,-2.657c0,0 1.54,-0.334 3.098,-0.715c1.54,-0.384 3.082,-0.814 3.082,-0.814" style="fill:none;stroke:#616262;stroke-width:2px;stroke-linejoin:round;"/><path d="M501.506,251.532c0,0 -1.401,4.566 -3.164,8.959c-0.865,2.204 -1.848,4.343 -2.622,5.92c-0.368,0.802 -0.739,1.425 -0.97,1.881c-0.239,0.451 -0.376,0.708 -0.376,0.708" style="fill:none;stroke:#616262;stroke-width:2px;stroke-linejoin:round;"/><path d="M494.374,269c0,0 -0.126,0.265 -0.39,0.696c-0.258,0.435 -0.626,1.057 -1.068,1.803c-0.939,1.439 -2.22,3.347 -3.714,4.974c-1.486,1.632 -3.169,2.933 -4.481,3.555c-0.319,0.203 -0.631,0.265 -0.895,0.383c-0.267,0.108 -0.498,0.205 -0.692,0.229c-0.384,0.09 -0.604,0.141 -0.604,0.141" style="fill:none;stroke:#616262;stroke-width:2px;stroke-linejoin:round;"/><path d="M482.53,280.781c0,0 -0.055,0.014 -0.157,0.04c-0.103,0.007 -0.253,0.017 -0.444,0.03c-0.194,0.002 -0.416,0.062 -0.694,0.038c-0.279,-0.02 -0.593,-0.042 -0.936,-0.066c-0.34,-0.073 -0.709,-0.152 -1.099,-0.235c-0.386,-0.14 -0.792,-0.287 -1.213,-0.439c-0.406,-0.226 -0.839,-0.42 -1.264,-0.672c-0.412,-0.295 -0.851,-0.544 -1.26,-0.873c-1.665,-1.267 -3.128,-2.971 -4.128,-4.331c-0.253,-0.338 -0.485,-0.649 -0.691,-0.923c-0.191,-0.291 -0.358,-0.544 -0.495,-0.753c-0.275,-0.417 -0.432,-0.655 -0.432,-0.655" style="fill:none;stroke:#616262;stroke-width:2px;stroke-linejoin:round;"/><path d="M459.032,262.404c0,0 1.543,0.403 3.106,0.741c1.567,0.342 3.11,0.628 3.11,0.628c0,0 -0.867,1.335 -1.653,2.704c-0.8,1.37 -1.569,2.804 -1.569,2.804" style="fill:none;stroke:#616262;stroke-width:2px;stroke-linejoin:round;"/><path d="M469.717,271.942c0,0 -0.167,-0.23 -0.423,-0.664c-0.255,-0.436 -0.62,-1.058 -1.057,-1.805c-0.411,-0.768 -0.887,-1.668 -1.381,-2.643c-0.455,-1.002 -0.995,-2.036 -1.439,-3.13c-0.941,-2.156 -1.789,-4.368 -2.377,-6.048c-0.295,-0.84 -0.541,-1.54 -0.713,-2.03c-0.16,-0.495 -0.251,-0.778 -0.251,-0.778" style="fill:none;stroke:#616262;stroke-width:2px;stroke-linejoin:round;"/><path d="M453.275,243.474c0,0 1.485,0.578 2.97,1.155c1.474,0.57 2.981,1.1 2.981,1.1c0,0 -1.033,1.207 -2.066,2.413c-1.038,1.219 -2.036,2.461 -2.036,2.461" style="fill:none;stroke:#616262;stroke-width:2px;stroke-linejoin:round;"/><path d="M462.076,254.844c0,0 -0.361,-1.135 -0.903,-2.836c-0.504,-1.717 -1.177,-4.006 -1.768,-6.325c-0.597,-2.316 -1.164,-4.643 -1.543,-6.402c-0.386,-1.756 -0.644,-2.928 -0.644,-2.928" style="fill:none;stroke:#616262;stroke-width:2px;stroke-linejoin:round;"/><path d="M449.503,224.215c0,0 1.438,0.69 2.876,1.38c1.435,0.674 2.87,1.349 2.87,1.349c0,0 -1.13,1.113 -2.26,2.226c-1.124,1.13 -2.249,2.26 -2.249,2.26" style="fill:none;stroke:#616262;stroke-width:2px;stroke-linejoin:round;"/><path d="M457.218,236.353c0,0 -0.974,-4.7 -1.788,-9.44c-0.806,-4.742 -1.472,-9.512 -1.472,-9.512" style="fill:none;stroke:#616262;stroke-width:2px;stroke-linejoin:round;"/><path d="M446.985,204.82c0,0 1.393,0.766 2.786,1.532c1.403,0.754 2.805,1.507 2.805,1.507l-4.776,4.215" style="fill:none;stroke:#616262;stroke-width:2px;stroke-linejoin:round;"/><path d="M453.958,217.401c0,0 -0.158,-1.194 -0.395,-2.985c-0.248,-1.789 -0.531,-4.182 -0.804,-6.577c-0.288,-2.393 -0.503,-4.796 -0.696,-6.594c-0.166,-1.802 -0.277,-3.003 -0.277,-3.003" style="fill:none;stroke:#616262;stroke-width:2px;stroke-linejoin:round;"/><path d="M445.37,185.366l5.453,3.269l-4.941,4.002" style="fill:none;stroke:#616262;stroke-width:2px;stroke-linejoin:round;"/><path d="M451.786,198.242c0,0 -0.107,-1.201 -0.267,-3.003c-0.14,-1.805 -0.326,-4.211 -0.512,-6.617c-0.155,-2.409 -0.309,-4.818 -0.425,-6.625c-0.095,-1.809 -0.158,-3.015 -0.158,-3.015" style="fill:none;stroke:#616262;stroke-width:2px;stroke-linejoin:round;"/><path d="M444.522,165.851c0,0 1.325,0.882 2.651,1.765c1.326,0.868 2.653,1.737 2.653,1.737l-5.091,3.803" style="fill:none;stroke:#616262;stroke-width:2px;stroke-linejoin:round;"/><path d="M450.424,178.982c0,0 -0.063,-1.206 -0.157,-3.015c-0.07,-1.805 -0.164,-4.213 -0.258,-6.62c-0.045,-2.406 -0.091,-4.812 -0.125,-6.617c0,-1.804 -0.001,-3.006 -0.001,-3.006" style="fill:none;stroke:#616262;stroke-width:2px;stroke-linejoin:round;"/><path d="M444.821,146.239c0,0 1.265,0.978 2.53,1.957c1.268,0.957 2.536,1.915 2.536,1.915c0,0 -1.345,0.855 -2.691,1.71c-1.326,0.875 -2.652,1.75 -2.652,1.75" style="fill:none;stroke:#616262;stroke-width:2px;stroke-linejoin:round;"/><path d="M449.883,159.724c0,0 0.006,-1.202 0.013,-3.005c0.055,-1.799 0.046,-4.206 0.175,-6.601c0.052,-1.198 0.104,-2.396 0.153,-3.52c0.074,-1.12 0.144,-2.166 0.203,-3.062c0.106,-1.795 0.231,-2.984 0.231,-2.984" style="fill:none;stroke:#616262;stroke-width:2px;stroke-linejoin:round;"/><path d="M446.979,126.619c0,0 0.281,0.283 0.702,0.708c0.418,0.422 0.986,0.981 1.57,1.534c1.159,1.089 2.318,2.178 2.318,2.178c0,0 -1.427,0.707 -2.855,1.414c-1.406,0.743 -2.812,1.486 -2.812,1.486" style="fill:none;stroke:#616262;stroke-width:2px;stroke-linejoin:round;"/><path d="M450.658,140.552c0,0 0.109,-1.191 0.274,-2.977c0.084,-0.893 0.225,-1.927 0.352,-3.039c0.123,-1.113 0.279,-2.295 0.467,-3.47c0.324,-2.363 0.778,-4.694 1.103,-6.445c0.378,-1.737 0.63,-2.894 0.63,-2.894" style="fill:none;stroke:#616262;stroke-width:2px;stroke-linejoin:round;"/><path d="M452.348,107.337c0,0 0.853,1.391 1.738,2.704c0.865,1.312 1.834,2.584 1.834,2.584c0,0 -1.518,0.386 -3.06,0.842c-1.532,0.453 -3.039,0.98 -3.039,0.98" style="fill:none;stroke:#616262;stroke-width:2px;stroke-linejoin:round;"/><path d="M453.484,121.727c0,0 1.039,-4.63 2.609,-9.041c0.765,-2.214 1.702,-4.34 2.441,-5.908c0.383,-0.777 0.73,-1.405 0.959,-1.854c0.231,-0.448 0.372,-0.697 0.372,-0.697" style="fill:none;stroke:#616262;stroke-width:2px;stroke-linejoin:round;"/><path d="M464.372,90.515c0,0 0.019,1.68 0.19,3.238c0.194,1.609 0.533,3.107 0.533,3.107c0,0 -0.389,-0.097 -0.959,-0.194c-0.57,-0.098 -1.345,-0.215 -2.142,-0.307c-0.799,-0.096 -1.614,-0.161 -2.208,-0.181c-0.608,-0.02 -1.013,-0.034 -1.013,-0.034" style="fill:none;stroke:#616262;stroke-width:2px;stroke-linejoin:round;"/><path d="M459.865,104.227c0,0 0.147,-0.245 0.404,-0.674c0.27,-0.418 0.595,-1.065 1.091,-1.755c0.926,-1.433 2.312,-3.218 3.866,-4.808c1.545,-1.604 3.326,-2.902 4.732,-3.725c0.688,-0.443 1.311,-0.715 1.733,-0.932c0.421,-0.222 0.676,-0.314 0.676,-0.314" style="fill:none;stroke:#616262;stroke-width:2px;stroke-linejoin:round;"/><path d="M484.596,84.895c0,0 -1.042,1.233 -1.976,2.538c-0.471,0.644 -0.923,1.289 -1.252,1.773c-0.312,0.5 -0.519,0.834 -0.519,0.834c0,0 -0.221,-0.32 -0.552,-0.8c-0.342,-0.488 -0.817,-1.118 -1.331,-1.716c-0.511,-0.603 -1.064,-1.222 -1.494,-1.652c-0.441,-0.424 -0.734,-0.708 -0.734,-0.708" style="fill:none;stroke:#616262;stroke-width:2px;stroke-linejoin:round;"/><path d="M472.367,92.019c0,0 0.252,-0.102 0.692,-0.279c0.431,-0.2 1.083,-0.392 1.858,-0.641c1.564,-0.452 3.724,-0.841 5.936,-0.875c2.265,-0.024 4.609,0.098 6.272,0.343c0.848,0.092 1.525,0.257 2.013,0.329c0.488,0.075 0.75,0.161 0.75,0.161" style="fill:none;stroke:#616262;stroke-width:2px;stroke-linejoin:round;"/><path d="M504.106,92.686c0,0 -1.677,0.238 -3.188,0.631c-1.574,0.433 -2.97,1.019 -2.97,1.019c0,0 0.036,-0.397 0.036,-0.965c0.005,-0.575 -0.011,-1.358 -0.067,-2.165c-0.045,-0.823 -0.176,-1.589 -0.275,-2.202c-0.114,-0.61 -0.191,-1.016 -0.191,-1.016" style="fill:none;stroke:#616262;stroke-width:2px;stroke-linejoin:round;"/><path d="M489.888,91.057c0,0 0.27,0.066 0.741,0.182c0.48,0.097 1.133,0.31 1.915,0.568c1.553,0.534 3.542,1.426 5.297,2.679c1.781,1.217 3.272,2.828 4.299,4.114c0.513,0.646 0.934,1.192 1.186,1.614c0.269,0.406 0.422,0.638 0.422,0.638" style="fill:none;stroke:#616262;stroke-width:2px;stroke-linejoin:round;"/><path d="M513.857,110.927c0,0 -1.522,-0.555 -3.022,-1.035c-1.527,-0.483 -3.053,-0.868 -3.053,-0.868c0,0 0.237,-0.316 0.593,-0.79c0.355,-0.478 0.83,-1.127 1.259,-1.782c0.881,-1.31 1.718,-2.723 1.718,-2.723" style="fill:none;stroke:#616262;stroke-width:2px;stroke-linejoin:round;"/><path d="M503.748,100.852c0,0 0.163,0.225 0.415,0.645c0.241,0.43 0.586,1.043 0.999,1.78c0.756,1.525 1.719,3.598 2.446,5.807c1.529,4.381 2.413,9.045 2.413,9.045" style="fill:none;stroke:#616262;stroke-width:2px;stroke-linejoin:round;"/><path d="M517.281,130.531c0,0 -1.398,-0.776 -2.795,-1.553c-1.395,-0.747 -2.789,-1.495 -2.789,-1.495c0,0 1.178,-1.055 2.358,-2.11c1.173,-1.089 2.346,-2.178 2.346,-2.178" style="fill:none;stroke:#616262;stroke-width:2px;stroke-linejoin:round;"/><path d="M510.021,118.129c0,0 0.059,0.289 0.161,0.796c0.109,0.505 0.249,1.23 0.386,2.111c0.317,1.748 0.644,4.106 0.947,6.469c0.259,2.374 0.51,4.749 0.634,6.543c0.156,1.789 0.22,2.987 0.22,2.987" style="fill:none;stroke:#616262;stroke-width:2px;stroke-linejoin:round;"/><path d="M518.293,150.14l-5.306,-3.515c0,0 1.279,-0.941 2.559,-1.883c1.271,-0.959 2.543,-1.918 2.543,-1.918" style="fill:none;stroke:#616262;stroke-width:2px;stroke-linejoin:round;"/><path d="M512.369,137.035c0,0 0.071,1.196 0.177,2.992c0.092,1.798 0.186,4.2 0.256,6.603c0.051,2.406 0.112,4.811 0.106,6.619c0.009,1.807 0.014,3.012 0.014,3.012" style="fill:none;stroke:#616262;stroke-width:2px;stroke-linejoin:round;"/><path d="M518.119,169.674l-5.14,-3.762l5.307,-3.525" style="fill:none;stroke:#616262;stroke-width:2px;stroke-linejoin:round;"/><path d="M512.922,156.261c0,0 -0.008,1.205 -0.021,3.013c-0.013,1.809 -0.04,4.22 -0.107,6.634c-0.044,2.412 -0.127,4.826 -0.193,6.636c-0.063,1.811 -0.106,3.018 -0.106,3.018" style="fill:none;stroke:#616262;stroke-width:2px;stroke-linejoin:round;"/><path d="M513.904,175.981c-2.776,69.12 -18.429,104.258 -32.532,104.258c-15.182,0 -29.312,-35.138 -32.533,-104.258c-3.15,-67.593 14.565,-85.111 32.533,-85.111c23.857,0 35.35,14.966 32.532,85.111Z" style="fill:#afb536;fill-rule:nonzero;"/><path d="M513.904,175.981c-2.776,69.12 -18.429,104.258 -32.532,104.258c-15.182,0 -29.312,-35.138 -32.533,-104.258c-3.15,-67.593 14.565,-85.111 32.533,-85.111c23.857,0 35.35,14.966 32.532,85.111Z" style="fill:none;stroke:#616262;stroke-width:2px;"/><path d="M506.473,188.708l-5.065,-3.913l5.376,-3.468" style="fill:none;stroke:#616262;stroke-width:2px;stroke-linejoin:round;"/><path d="M501.571,174.984c0,0 -0.04,1.225 -0.099,3.064c-0.054,1.839 -0.139,4.29 -0.248,6.739c-0.199,4.9 -0.482,9.794 -0.482,9.794" style="fill:none;stroke:#616262;stroke-width:2px;stroke-linejoin:round;"/><path d="M505.204,208.459l-4.922,-4.085l5.477,-3.29" style="fill:none;stroke:#616262;stroke-width:2px;stroke-linejoin:round;"/><path d="M500.742,194.581c0,0 -0.277,4.894 -0.644,9.779c-0.365,4.885 -0.83,9.758 -0.83,9.758" style="fill:none;stroke:#616262;stroke-width:2px;stroke-linejoin:round;"/><path d="M503.152,228.176c0,0 -1.179,-1.082 -2.358,-2.165c-1.19,-1.07 -2.38,-2.141 -2.38,-2.141l5.617,-3.052" style="fill:none;stroke:#616262;stroke-width:2px;stroke-linejoin:round;"/><path d="M499.268,214.118c0,0 -0.449,4.876 -1.037,9.73c-0.566,4.858 -1.283,9.687 -1.283,9.687" style="fill:none;stroke:#616262;stroke-width:2px;stroke-linejoin:round;"/><path d="M499.98,247.813c0,0 -1.106,-1.166 -2.212,-2.332c-1.113,-1.146 -2.227,-2.291 -2.227,-2.291c0,0 1.448,-0.664 2.896,-1.329c1.446,-0.684 2.893,-1.368 2.893,-1.368" style="fill:none;stroke:#616262;stroke-width:2px;stroke-linejoin:round;"/><path d="M496.948,233.535c0,0 -0.172,1.209 -0.463,3.014c-0.275,1.81 -0.691,4.211 -1.125,6.607c-0.857,4.797 -1.982,9.512 -1.982,9.512" style="fill:none;stroke:#616262;stroke-width:2px;stroke-linejoin:round;"/><path d="M494.782,267.235c0,0 -0.885,-1.349 -1.846,-2.648c-0.946,-1.304 -1.91,-2.552 -1.91,-2.552c0,0 1.512,-0.481 3.023,-0.962c1.527,-0.499 3.03,-1.049 3.03,-1.049" style="fill:none;stroke:#616262;stroke-width:2px;stroke-linejoin:round;"/><path d="M493.378,252.668c0,0 -1.088,4.732 -2.528,9.311c-0.746,2.272 -1.524,4.532 -2.226,6.146c-0.322,0.827 -0.646,1.474 -0.853,1.941c-0.212,0.463 -0.336,0.726 -0.336,0.726" style="fill:none;stroke:#616262;stroke-width:2px;stroke-linejoin:round;"/><path d="M487.435,270.792c0,0 -0.132,0.254 -0.362,0.7c-0.224,0.453 -0.559,1.084 -0.998,1.795c-0.206,0.374 -0.454,0.741 -0.722,1.12c-0.132,0.192 -0.268,0.389 -0.406,0.59c-0.149,0.181 -0.3,0.365 -0.454,0.553c-0.604,0.759 -1.327,1.423 -1.978,1.778c-0.682,0.372 -1.074,0.409 -1.68,0.297c-0.568,-0.109 -1.184,-0.55 -1.707,-0.945c-0.516,-0.472 -0.949,-0.909 -1.227,-1.28c-0.145,-0.172 -0.259,-0.308 -0.337,-0.4c-0.077,-0.092 -0.113,-0.154 -0.113,-0.154" style="fill:none;stroke:#616262;stroke-width:2px;stroke-linejoin:round;"/><path d="M466.996,265.106c0,0 0.383,0.12 0.958,0.3c0.57,0.178 1.338,0.407 2.116,0.618c1.547,0.428 3.069,0.786 3.069,0.786c0,0 -0.893,1.287 -1.751,2.66c-0.437,0.686 -0.839,1.38 -1.134,1.911c-0.296,0.537 -0.492,0.894 -0.492,0.894" style="fill:none;stroke:#616262;stroke-width:2px;stroke-linejoin:round;"/><path d="M477.451,274.846c0,0 -0.154,-0.222 -0.423,-0.61c-0.284,-0.367 -0.63,-0.982 -1.061,-1.699c-0.828,-1.477 -1.809,-3.587 -2.657,-5.793c-1.675,-4.433 -2.871,-9.127 -2.871,-9.127" style="fill:none;stroke:#616262;stroke-width:2px;stroke-linejoin:round;"/><path d="M462.25,245.61c0,0 1.452,0.664 2.905,1.328c1.463,0.639 2.926,1.278 2.926,1.278c0,0 -1.099,1.166 -2.198,2.331c-1.078,1.188 -2.155,2.375 -2.155,2.375" style="fill:none;stroke:#616262;stroke-width:2px;stroke-linejoin:round;"/><path d="M470.439,257.617c0,0 -0.325,-1.159 -0.741,-2.927c-0.436,-1.759 -0.964,-4.127 -1.437,-6.511c-0.969,-4.762 -1.726,-9.583 -1.726,-9.583" style="fill:none;stroke:#616262;stroke-width:2px;stroke-linejoin:round;"/><path d="M459.328,225.952l5.646,2.999c0,0 -1.178,1.082 -2.356,2.164c-1.169,1.094 -2.339,2.189 -2.339,2.189" style="fill:none;stroke:#616262;stroke-width:2px;stroke-linejoin:round;"/><path d="M466.535,238.596c0,0 -0.763,-4.819 -1.378,-9.668c-0.634,-4.847 -1.123,-9.718 -1.123,-9.718" style="fill:none;stroke:#616262;stroke-width:2px;stroke-linejoin:round;"/><path d="M457.43,206.233l5.509,3.241l-4.889,4.128" style="fill:none;stroke:#616262;stroke-width:2px;stroke-linejoin:round;"/><path d="M464.034,219.21c0,0 -0.508,-4.869 -0.912,-9.751c-0.413,-4.882 -0.734,-9.774 -0.734,-9.774" style="fill:none;stroke:#616262;stroke-width:2px;stroke-linejoin:round;"/><path d="M456.225,186.491l5.407,3.413l-5.03,3.962" style="fill:none;stroke:#616262;stroke-width:2px;stroke-linejoin:round;"/><path d="M462.388,199.685c0,0 -0.077,-1.224 -0.191,-3.059c-0.12,-1.834 -0.259,-4.282 -0.381,-6.732c-0.256,-4.898 -0.443,-9.802 -0.443,-9.802" style="fill:none;stroke:#616262;stroke-width:2px;stroke-linejoin:round;"/><path d="M455.582,166.719c0,0 1.32,0.899 2.64,1.799c1.33,0.889 2.659,1.778 2.659,1.778l-5.132,3.82" style="fill:none;stroke:#616262;stroke-width:2px;stroke-linejoin:round;"/><path d="M461.373,180.092c0,0 -0.2,-4.907 -0.308,-9.8c-0.072,-2.449 -0.077,-4.896 -0.111,-6.731c-0.006,-1.835 -0.01,-3.058 -0.01,-3.058" style="fill:none;stroke:#616262;stroke-width:2px;stroke-linejoin:round;"/><path d="M455.748,146.877l5.12,3.844c0,0 -1.329,0.886 -2.658,1.772c-1.321,0.901 -2.641,1.801 -2.641,1.801" style="fill:none;stroke:#616262;stroke-width:2px;stroke-linejoin:round;"/><path d="M460.944,160.503c0,0 0,-1.223 -0.001,-3.058c0.027,-1.833 0.042,-4.278 0.109,-6.72c0.064,-2.441 0.145,-4.881 0.243,-6.708c0.075,-1.828 0.157,-3.042 0.157,-3.042" style="fill:none;stroke:#616262;stroke-width:2px;stroke-linejoin:round;"/><path d="M457.255,126.996c0,0 1.172,1.091 2.375,2.154c1.206,1.052 2.412,2.104 2.412,2.104c0,0 -1.396,0.779 -2.791,1.558c-1.379,0.806 -2.759,1.611 -2.759,1.611" style="fill:none;stroke:#616262;stroke-width:2px;stroke-linejoin:round;"/><path d="M461.452,140.975c0,0 0.264,-4.872 0.773,-9.703c0.469,-4.839 1.251,-9.609 1.251,-9.609" style="fill:none;stroke:#616262;stroke-width:2px;stroke-linejoin:round;"/><path d="M461.247,107.203c0,0 0.938,1.309 1.967,2.561c1.011,1.256 2.039,2.447 2.039,2.447c0,0 -1.478,0.532 -2.966,1.123c-1.491,0.584 -2.97,1.228 -2.97,1.228" style="fill:none;stroke:#616262;stroke-width:2px;stroke-linejoin:round;"/><path d="M463.476,121.663c0,0 0.21,-1.187 0.526,-2.967c0.339,-1.774 0.837,-4.124 1.429,-6.438c0.623,-2.299 1.293,-4.582 1.93,-6.22c0.287,-0.837 0.576,-1.504 0.771,-1.975c0.194,-0.471 0.306,-0.74 0.306,-0.74" style="fill:none;stroke:#616262;stroke-width:2px;stroke-linejoin:round;"/><path d="M468.438,103.323c0,0 0.109,-0.271 0.33,-0.723c0.228,-0.447 0.498,-1.13 0.923,-1.867c0.788,-1.52 1.977,-3.462 3.44,-5.028c1.449,-1.586 3.149,-2.732 4.513,-3.272c0.346,-0.118 0.663,-0.227 0.944,-0.324c0.289,-0.068 0.541,-0.128 0.748,-0.177c0.416,-0.09 0.662,-0.106 0.662,-0.106" style="fill:none;stroke:#616262;stroke-width:2px;stroke-linejoin:round;"/><path d="M479.998,91.826c0,0 0.061,-0.009 0.174,-0.025c0.113,-0.017 0.279,-0.046 0.496,-0.047c0.218,-0.008 0.483,-0.019 0.786,-0.031c0.335,0.01 0.713,0.021 1.126,0.034c1.64,0.073 3.751,0.41 5.566,1.297c0.929,0.404 1.75,0.999 2.507,1.576c0.35,0.333 0.708,0.628 1.02,0.947c0.302,0.334 0.588,0.651 0.852,0.942c0.478,0.647 0.903,1.158 1.142,1.581c0.258,0.404 0.405,0.634 0.405,0.634" style="fill:none;stroke:#616262;stroke-width:2px;stroke-linejoin:round;"/><path d="M503.703,109.378c0,0 -1.496,-0.637 -2.975,-1.203c-1.502,-0.568 -3.002,-1.045 -3.002,-1.045c0,0 1.036,-1.216 1.973,-2.502c0.477,-0.644 0.947,-1.308 1.295,-1.816c0.353,-0.507 0.559,-0.852 0.559,-0.852" style="fill:none;stroke:#616262;stroke-width:2px;stroke-linejoin:round;"/><path d="M494.072,98.734c0,0 0.158,0.221 0.38,0.659c0.223,0.437 0.587,1.023 0.922,1.813c0.743,1.522 1.527,3.715 2.175,5.976c0.669,2.252 1.143,4.6 1.491,6.358c0.334,1.765 0.516,2.956 0.516,2.956" style="fill:none;stroke:#616262;stroke-width:2px;stroke-linejoin:round;"/><path d="M506.434,129.306c0,0 -1.372,-0.819 -2.743,-1.638c-1.387,-0.794 -2.775,-1.588 -2.775,-1.588c0,0 1.217,-1.039 2.434,-2.079c1.197,-1.066 2.393,-2.132 2.393,-2.132" style="fill:none;stroke:#616262;stroke-width:2px;stroke-linejoin:round;"/><path d="M499.556,116.496c0,0 0.048,0.297 0.133,0.816c0.073,0.523 0.178,1.27 0.303,2.166c0.244,1.794 0.53,4.199 0.741,6.619c0.456,4.836 0.683,9.714 0.683,9.714" style="fill:none;stroke:#616262;stroke-width:2px;stroke-linejoin:round;"/><path d="M507.229,149.16l-5.287,-3.588l5.13,-3.818" style="fill:none;stroke:#616262;stroke-width:2px;stroke-linejoin:round;"/><path d="M501.416,135.811c0,0 0.235,4.875 0.342,9.765c0.099,4.892 0.098,9.792 0.098,9.792" style="fill:none;stroke:#616262;stroke-width:2px;stroke-linejoin:round;"/><path d="M507.132,168.948l-5.17,-3.772l5.281,-3.612" style="fill:none;stroke:#616262;stroke-width:2px;stroke-linejoin:round;"/><path d="M501.856,155.368c0,0 0.005,4.9 -0.078,9.805c-0.049,2.452 -0.097,4.905 -0.134,6.745c-0.044,1.839 -0.073,3.066 -0.073,3.066" style="fill:none;stroke:#616262;stroke-width:2px;stroke-linejoin:round;"/><path d="M492.894,189.284l-5.168,-3.694l5.285,-3.524" style="fill:none;stroke:#616262;stroke-width:2px;stroke-linejoin:round;"/><path d="M487.672,175.954c0,0 -0.065,4.816 -0.13,9.633c-0.093,4.815 -0.185,9.631 -0.185,9.631" style="fill:none;stroke:#616262;stroke-width:2px;stroke-linejoin:round;"/><path d="M492.414,208.612l-5.12,-3.761l5.329,-3.458" style="fill:none;stroke:#616262;stroke-width:2px;stroke-linejoin:round;"/><path d="M487.357,195.218c0,0 -0.123,4.814 -0.246,9.627c-0.158,4.812 -0.316,9.624 -0.316,9.624" style="fill:none;stroke:#616262;stroke-width:2px;stroke-linejoin:round;"/><path d="M491.636,227.944l-5.053,-3.85l5.384,-3.371" style="fill:none;stroke:#616262;stroke-width:2px;stroke-linejoin:round;"/><path d="M486.795,214.469c0,0 -0.198,4.808 -0.396,9.616c-0.246,4.804 -0.492,9.608 -0.492,9.608" style="fill:none;stroke:#616262;stroke-width:2px;stroke-linejoin:round;"/><path d="M490.43,247.282l-4.95,-3.983l5.464,-3.241" style="fill:none;stroke:#616262;stroke-width:2px;stroke-linejoin:round;"/><path d="M485.907,233.693c0,0 -0.268,4.801 -0.61,9.593c-0.335,4.792 -0.77,9.567 -0.77,9.567" style="fill:none;stroke:#616262;stroke-width:2px;stroke-linejoin:round;"/><path d="M484.527,252.853c0,0 -0.418,4.78 -0.999,9.518c-0.29,2.368 -0.621,4.723 -0.907,6.471c-0.217,1.255 -0.362,2.092 -0.362,2.092" style="fill:none;stroke:#616262;stroke-width:2px;stroke-linejoin:round;"/><path d="M477.811,280.743c0,0 0.312,-0.21 0.706,-0.586c0.398,-0.375 0.845,-0.895 1.202,-1.348c0.146,-0.057 0.419,-0.856 0.595,-1.407c0.193,-0.603 0.349,-1.217 0.473,-1.777c0.244,-1.118 0.348,-1.979 0.348,-1.979c0,0 0.003,0.237 0.008,0.652c0.012,0.418 0.041,1.021 0.126,1.735c0.085,0.71 0.233,1.509 0.42,2.271c0.089,0.376 0.195,0.759 0.296,1.117l0.082,0.271l0.042,0.134l0.032,0.033l0.131,0.141c0.349,0.38 0.723,0.865 1.06,1.277c0.175,0.208 0.32,0.381 0.422,0.502c0.11,0.123 0.172,0.193 0.172,0.193" style="fill:none;stroke:#616262;stroke-width:2px;stroke-linejoin:round;"/><path d="M482.259,270.934c0,0 -0.061,0.34 -0.183,0.843c-0.062,0.251 -0.14,0.544 -0.255,0.847c-0.06,0.149 -0.125,0.306 -0.226,0.443c-0.08,0.155 -0.303,0.23 -0.429,0.078c-0.433,-0.547 -0.526,-1.271 -0.658,-1.761c-0.052,-0.259 -0.095,-0.474 -0.125,-0.625c-0.042,-0.234 -0.066,-0.368 -0.066,-0.368" style="fill:none;stroke:#616262;stroke-width:2px;stroke-linejoin:round;"/><path d="M473.236,257.981c0,0 1.394,0.766 2.789,1.531c1.398,0.749 2.796,1.498 2.796,1.498c0,0 -1.195,1.044 -2.389,2.087c-1.184,1.065 -2.367,2.129 -2.367,2.129" style="fill:none;stroke:#616262;stroke-width:2px;stroke-linejoin:round;"/><path d="M480.317,270.391c0,0 -0.21,-1.153 -0.472,-2.911c-0.262,-1.758 -0.574,-4.117 -0.841,-6.491c-0.541,-4.746 -0.931,-9.53 -0.931,-9.53" style="fill:none;stroke:#616262;stroke-width:2px;stroke-linejoin:round;"/><path d="M471.724,238.63l5.449,3.266l-4.97,3.958" style="fill:none;stroke:#616262;stroke-width:2px;stroke-linejoin:round;"/><path d="M478.073,251.459c0,0 -0.405,-4.779 -0.717,-9.575c-0.285,-4.799 -0.57,-9.598 -0.57,-9.598" style="fill:none;stroke:#616262;stroke-width:2px;stroke-linejoin:round;"/><path d="M470.767,219.297l5.376,3.385l-5.066,3.835" style="fill:none;stroke:#616262;stroke-width:2px;stroke-linejoin:round;"/><path d="M476.786,232.286c0,0 -0.23,-4.806 -0.46,-9.612c-0.186,-4.809 -0.373,-9.619 -0.373,-9.619" style="fill:none;stroke:#616262;stroke-width:2px;stroke-linejoin:round;"/><path d="M470.143,199.971l5.326,3.463l-5.124,3.755" style="fill:none;stroke:#616262;stroke-width:2px;stroke-linejoin:round;"/><path d="M475.953,213.055c0,0 -0.15,-4.813 -0.3,-9.626c-0.12,-4.815 -0.239,-9.63 -0.239,-9.63" style="fill:none;stroke:#616262;stroke-width:2px;stroke-linejoin:round;"/><path d="M469.758,180.648l5.287,3.522l-5.167,3.695" style="fill:none;stroke:#616262;stroke-width:2px;stroke-linejoin:round;"/><path d="M475.414,193.799c0,0 -0.092,-4.816 -0.185,-9.633c-0.067,-4.816 -0.135,-9.633 -0.135,-9.633" style="fill:none;stroke:#616262;stroke-width:2px;stroke-linejoin:round;"/><path d="M469.599,161.311l5.237,3.595l-5.212,3.631" style="fill:none;stroke:#616262;stroke-width:2px;stroke-linejoin:round;"/><path d="M475.094,174.533c0,0 -0.037,-4.814 -0.074,-9.628c0.005,-4.812 0.01,-9.624 0.01,-9.624" style="fill:none;stroke:#616262;stroke-width:2px;stroke-linejoin:round;"/><path d="M469.799,141.95l5.158,3.71l-5.286,3.525" style="fill:none;stroke:#616262;stroke-width:2px;stroke-linejoin:round;"/><path d="M475.03,155.281c0,0 0.056,-4.809 0.111,-9.617c0.076,-4.808 0.24,-9.607 0.24,-9.607" style="fill:none;stroke:#616262;stroke-width:2px;stroke-linejoin:round;"/><path d="M470.591,122.553l5.011,3.907l-5.402,3.344" style="fill:none;stroke:#616262;stroke-width:2px;stroke-linejoin:round;"/><path d="M475.381,136.057c0,0 0.146,-4.801 0.405,-9.587c0.243,-4.789 0.652,-9.548 0.652,-9.548" style="fill:none;stroke:#616262;stroke-width:2px;stroke-linejoin:round;"/><path d="M472.673,103.061c0,0 1.139,1.141 2.287,2.231c1.149,1.094 2.329,2.15 2.329,2.15c0,0 -1.426,0.692 -2.828,1.428c-1.409,0.747 -2.818,1.494 -2.818,1.494" style="fill:none;stroke:#616262;stroke-width:2px;stroke-linejoin:round;"/><path d="M476.438,116.922c0,0 0.368,-4.771 1.034,-9.454c0.319,-2.345 0.721,-4.66 1.096,-6.353c0.363,-1.701 0.682,-2.777 0.682,-2.777" style="fill:none;stroke:#616262;stroke-width:2px;stroke-linejoin:round;"/><path d="M479.25,98.338c0,0 0.278,-1.124 0.863,-2.599c0.152,-0.352 0.315,-0.751 0.507,-1.102c0.098,-0.166 0.189,-0.381 0.295,-0.522l0.056,-0.087c0.018,-0.03 0.045,-0.064 0.071,-0.094c0.185,-0.268 0.549,-0.439 0.889,-0.312c0.164,0.05 0.321,0.135 0.44,0.256c0.085,0.07 0.079,0.086 0.197,0.224c0.116,0.113 0.216,0.326 0.328,0.476c0.422,0.714 0.783,1.547 1.035,2.314c0.259,0.76 0.451,1.43 0.569,1.907c0.119,0.479 0.188,0.753 0.188,0.753" style="fill:none;stroke:#616262;stroke-width:2px;stroke-linejoin:round;"/><path d="M491.888,111.832c0,0 -1.387,-0.787 -2.773,-1.573c-1.378,-0.777 -2.784,-1.514 -2.784,-1.514c0,0 1.212,-1.02 2.396,-2.076c1.18,-1.077 2.36,-2.153 2.36,-2.153" style="fill:none;stroke:#616262;stroke-width:2px;stroke-linejoin:round;"/><path d="M484.688,99.552c0,0 0.272,1.097 0.574,2.814c0.311,1.71 0.64,4.041 0.886,6.399c0.262,2.353 0.444,4.732 0.58,6.516c0.117,1.788 0.195,2.98 0.195,2.98" style="fill:none;stroke:#616262;stroke-width:2px;stroke-linejoin:round;"/><path d="M492.891,131.267l-5.342,-3.439l5.088,-3.807" style="fill:none;stroke:#616262;stroke-width:2px;stroke-linejoin:round;"/><path d="M486.923,118.261c0,0 0.287,4.775 0.442,9.574c0.169,4.796 0.256,9.604 0.256,9.604" style="fill:none;stroke:#616262;stroke-width:2px;stroke-linejoin:round;"/><path d="M493.184,150.628l-5.252,-3.571l5.193,-3.656" style="fill:none;stroke:#616262;stroke-width:2px;stroke-linejoin:round;"/><path d="M487.621,137.439c0,0 0.064,4.81 0.127,9.619c0.018,4.814 0.035,9.628 0.035,9.628" style="fill:none;stroke:#616262;stroke-width:2px;stroke-linejoin:round;"/><path d="M493.144,169.96l-5.208,-3.64l5.251,-3.578" style="fill:none;stroke:#616262;stroke-width:2px;stroke-linejoin:round;"/><path d="M487.783,156.686c0,0 -0.015,4.816 -0.031,9.633c-0.04,4.817 -0.08,9.635 -0.08,9.635" style="fill:none;stroke:#616262;stroke-width:2px;stroke-linejoin:round;"/><path d="M510.28,331.884l-57.745,0l-17.499,-76.702l92.742,0l-17.498,76.702Z" style="fill:#b3e0dc;fill-rule:nonzero;"/><path d="M510.28,331.884l-57.745,0l-17.499,-76.702l92.742,0l-17.498,76.702Z" style="fill:none;stroke:#616262;stroke-width:2px;"/><path d="M439.407,274.339l84.001,0" style="fill:none;fill-rule:nonzero;"/><path d="M439.407,274.339l84.001,0" style="fill:none;stroke:#616262;stroke-width:2px;"/><path d="M467.117,285.221l28.581,0" style="fill:none;fill-rule:nonzero;"/><path d="M467.117,285.221l28.581,0" style="fill:none;stroke:#616262;stroke-width:2px;"/><path d="M467.117,293.533l28.581,0" style="fill:none;fill-rule:nonzero;"/><path d="M467.117,293.533l28.581,0" style="fill:none;stroke:#616262;stroke-width:2px;"/><path d="M467.117,301.845l28.581,0" style="fill:none;fill-rule:nonzero;"/><path d="M467.117,301.845l28.581,0" style="fill:none;stroke:#616262;stroke-width:2px;"/><path d="M439.407,331.884l84.001,0l-5.25,12.686l-73.502,0l-5.249,-12.686Z" style="fill:#f58967;fill-rule:nonzero;"/><path d="M439.407,331.884l84.001,0l-5.25,12.686l-73.502,0l-5.249,-12.686Z" style="fill:none;stroke:#616262;stroke-width:2px;"/></g><g><path d="M928.8,180.205c0,25.684 -34.28,74.701 -55.473,74.701c-19.197,0 -55.474,-51.736 -55.474,-74.701c0,-35.249 24.836,-57.027 55.474,-57.027c30.636,0 55.473,21.778 55.473,57.027Z" style="fill:#afb536;fill-rule:nonzero;"/><path d="M928.8,180.205c0,25.684 -34.28,74.701 -55.473,74.701c-19.197,0 -55.474,-51.736 -55.474,-74.701c0,-35.249 24.836,-57.027 55.474,-57.027c30.636,0 55.473,21.778 55.473,57.027Z" style="fill:none;stroke:#616262;stroke-width:2px;"/><path d="M917.632,180.205c0,25.684 -27.379,74.701 -44.305,74.701c-15.332,0 -44.306,-51.736 -44.306,-74.701c0,-35.249 19.836,-57.027 44.306,-57.027c24.469,0 44.305,21.778 44.305,57.027Z" style="fill:none;stroke:#616262;stroke-width:2px;stroke-dasharray:4.03,6.05;"/><path d="M901.787,180.205c0,25.684 -17.588,74.701 -28.46,74.701c-9.849,0 -28.462,-51.736 -28.462,-74.701c0,-35.249 12.743,-57.027 28.462,-57.027c15.718,0 28.46,21.778 28.46,57.027Z" style="fill:none;stroke:#616262;stroke-width:2px;stroke-dasharray:4.05,6.08;"/><path d="M884.525,180.205c0,25.684 -6.92,74.701 -11.198,74.701c-3.875,0 -11.198,-51.736 -11.198,-74.701c0,-35.249 5.013,-57.027 11.198,-57.027c6.184,0 11.198,21.778 11.198,57.027Z" style="fill:none;stroke:#616262;stroke-width:2px;stroke-dasharray:4.03,6.05;"/><path d="M879.035,107.695c0,12.592 -5.418,22.799 -5.418,22.799c0,0 -5.417,-10.207 -5.417,-22.799c0,-12.592 5.417,-22.8 5.417,-22.8c0,0 5.418,10.208 5.418,22.8Z" style="fill:#f58967;fill-rule:nonzero;"/><path d="M879.035,107.695c0,12.592 -5.418,22.799 -5.418,22.799c0,0 -5.417,-10.207 -5.417,-22.799c0,-12.592 5.417,-22.8 5.417,-22.8c0,0 5.418,10.208 5.418,22.8Z" style="fill:none;stroke:#616262;stroke-width:2px;"/><path d="M870.91,107.217c4.307,11.832 2.707,23.277 2.707,23.277c0,0 -8.582,-7.739 -12.889,-19.571c-4.306,-11.833 -2.707,-23.278 -2.707,-23.278c0,0 8.582,7.739 12.889,19.572Z" style="fill:#f58967;fill-rule:nonzero;"/><path d="M870.91,107.217c4.307,11.832 2.707,23.277 2.707,23.277c0,0 -8.582,-7.739 -12.889,-19.571c-4.306,-11.833 -2.707,-23.278 -2.707,-23.278c0,0 8.582,7.739 12.889,19.572Z" style="fill:none;stroke:#616262;stroke-width:2px;"/><path d="M863.112,109.546c8.094,9.646 10.505,20.948 10.505,20.948c0,0 -10.711,-4.337 -18.805,-13.983c-8.095,-9.646 -10.506,-20.948 -10.506,-20.948c0,0 10.712,4.337 18.806,13.983Z" style="fill:#f58967;fill-rule:nonzero;"/><path d="M863.112,109.546c8.094,9.646 10.505,20.948 10.505,20.948c0,0 -10.711,-4.337 -18.805,-13.983c-8.095,-9.646 -10.506,-20.948 -10.506,-20.948c0,0 10.712,4.337 18.806,13.983Z" style="fill:none;stroke:#616262;stroke-width:2px;"/><path d="M892.423,116.511c-8.094,9.646 -18.806,13.983 -18.806,13.983c0,0 2.412,-11.302 10.505,-20.948c8.094,-9.646 18.806,-13.983 18.806,-13.983c0,0 -2.411,11.302 -10.505,20.948Z" style="fill:#f58967;fill-rule:nonzero;"/><path d="M892.423,116.511c-8.094,9.646 -18.806,13.983 -18.806,13.983c0,0 2.412,-11.302 10.505,-20.948c8.094,-9.646 18.806,-13.983 18.806,-13.983c0,0 -2.411,11.302 -10.505,20.948Z" style="fill:none;stroke:#616262;stroke-width:2px;"/><path d="M886.506,110.923c-4.307,11.832 -12.889,19.571 -12.889,19.571c0,0 -1.599,-11.445 2.707,-23.277c4.307,-11.833 12.889,-19.572 12.889,-19.572c0,0 1.6,11.445 -2.707,23.278Z" style="fill:#f58967;fill-rule:nonzero;"/><path d="M886.506,110.923c-4.307,11.832 -12.889,19.571 -12.889,19.571c0,0 -1.599,-11.445 2.707,-23.277c4.307,-11.833 12.889,-19.572 12.889,-19.572c0,0 1.6,11.445 -2.707,23.278Z" style="fill:none;stroke:#616262;stroke-width:2px;"/><path d="M836.907,332.339l72.838,0c20.157,-12.296 33.615,-34.489 33.615,-59.828c0,-15.374 -4.966,-29.581 -13.365,-41.132l-113.337,0c-8.399,11.551 -13.366,25.758 -13.366,41.132c0,25.339 13.459,47.532 33.615,59.828Z" style="fill:#f8aa92;fill-rule:nonzero;"/><path d="M836.907,332.339l72.838,0c20.157,-12.296 33.615,-34.489 33.615,-59.828c0,-15.374 -4.966,-29.581 -13.365,-41.132l-113.337,0c-8.399,11.551 -13.366,25.758 -13.366,41.132c0,25.339 13.459,47.532 33.615,59.828Z" style="fill:none;stroke:#616262;stroke-width:2px;"/><rect x="836.907" y="332.339" width="72.838" height="13.462" style="fill:#f58967;fill-rule:nonzero;"/><rect x="836.907" y="332.339" width="72.838" height="13.462" style="fill:none;stroke:#616262;stroke-width:2px;"/><path d="M803.292,272.511c0,6.751 0.982,13.267 2.765,19.444l134.539,0c1.783,-6.177 2.764,-12.693 2.764,-19.444c0,-6.075 -0.802,-11.956 -2.259,-17.575l-135.55,0c-1.456,5.619 -2.259,11.5 -2.259,17.575Z" style="fill:#fcf69f;fill-rule:nonzero;"/><path d="M803.292,272.511c0,6.751 0.982,13.267 2.765,19.444l134.539,0c1.783,-6.177 2.764,-12.693 2.764,-19.444c0,-6.075 -0.802,-11.956 -2.259,-17.575l-135.55,0c-1.456,5.619 -2.259,11.5 -2.259,17.575Z" style="fill:none;stroke:#616262;stroke-width:2px;"/><path d="M827.614,273.446c0,3.717 -3.014,6.731 -6.731,6.731c-3.717,0 -6.731,-3.014 -6.731,-6.731c0,-3.717 3.014,-6.731 6.731,-6.731c3.717,0 6.731,3.014 6.731,6.731Z" style="fill:#f58967;fill-rule:nonzero;"/><path d="M827.614,273.446c0,3.717 -3.014,6.731 -6.731,6.731c-3.717,0 -6.731,-3.014 -6.731,-6.731c0,-3.717 3.014,-6.731 6.731,-6.731c3.717,0 6.731,3.014 6.731,6.731Z" style="fill:none;stroke:#616262;stroke-width:2px;"/><path d="M853.835,273.446c0,3.717 -3.013,6.731 -6.731,6.731c-3.717,0 -6.73,-3.014 -6.73,-6.731c0,-3.717 3.013,-6.731 6.73,-6.731c3.718,0 6.731,3.014 6.731,6.731Z" style="fill:#f58967;fill-rule:nonzero;"/><path d="M853.835,273.446c0,3.717 -3.013,6.731 -6.731,6.731c-3.717,0 -6.73,-3.014 -6.73,-6.731c0,-3.717 3.013,-6.731 6.73,-6.731c3.718,0 6.731,3.014 6.731,6.731Z" style="fill:none;stroke:#616262;stroke-width:2px;"/><path d="M880.057,273.446c0,3.717 -3.013,6.731 -6.73,6.731c-3.718,0 -6.731,-3.014 -6.731,-6.731c0,-3.717 3.013,-6.731 6.731,-6.731c3.717,0 6.73,3.014 6.73,6.731Z" style="fill:#f58967;fill-rule:nonzero;"/><path d="M880.057,273.446c0,3.717 -3.013,6.731 -6.73,6.731c-3.718,0 -6.731,-3.014 -6.731,-6.731c0,-3.717 3.013,-6.731 6.731,-6.731c3.717,0 6.73,3.014 6.73,6.731Z" style="fill:none;stroke:#616262;stroke-width:2px;"/><path d="M906.279,273.446c0,3.717 -3.014,6.731 -6.731,6.731c-3.717,0 -6.73,-3.014 -6.73,-6.731c0,-3.717 3.013,-6.731 6.73,-6.731c3.717,0 6.731,3.014 6.731,6.731Z" style="fill:#f58967;fill-rule:nonzero;"/><path d="M906.279,273.446c0,3.717 -3.014,6.731 -6.731,6.731c-3.717,0 -6.73,-3.014 -6.73,-6.731c0,-3.717 3.013,-6.731 6.73,-6.731c3.717,0 6.731,3.014 6.731,6.731Z" style="fill:none;stroke:#616262;stroke-width:2px;"/><path d="M932.501,273.446c0,3.717 -3.014,6.731 -6.731,6.731c-3.717,0 -6.731,-3.014 -6.731,-6.731c0,-3.717 3.014,-6.731 6.731,-6.731c3.717,0 6.731,3.014 6.731,6.731Z" style="fill:#f58967;fill-rule:nonzero;"/><path d="M932.501,273.446c0,3.717 -3.014,6.731 -6.731,6.731c-3.717,0 -6.731,-3.014 -6.731,-6.731c0,-3.717 3.014,-6.731 6.731,-6.731c3.717,0 6.731,3.014 6.731,6.731Z" style="fill:none;stroke:#616262;stroke-width:2px;"/></g><g><path d="M137.206,156.974c-2.776,69.121 -18.43,104.259 -32.533,104.259c-15.182,0 -29.312,-35.138 -32.533,-104.259c-3.15,-67.592 14.565,-85.111 32.533,-85.111c23.857,0 35.35,14.967 32.533,85.111Z" style="fill:#afb536;fill-rule:nonzero;"/><path d="M137.206,156.974c-2.776,69.121 -18.43,104.259 -32.533,104.259c-15.182,0 -29.312,-35.138 -32.533,-104.259c-3.15,-67.592 14.565,-85.111 32.533,-85.111c23.857,0 35.35,14.967 32.533,85.111Z" style="fill:none;stroke:#616262;stroke-width:2px;"/><path d="M130.462,156.974c-2.201,69.121 -14.606,104.259 -25.784,104.259c-12.033,0 -23.231,-35.138 -25.784,-104.259c-2.496,-67.592 11.544,-85.111 25.784,-85.111c18.909,0 28.017,14.967 25.784,85.111Z" style="fill:#afb536;fill-rule:nonzero;"/><path d="M130.462,156.974c-2.201,69.121 -14.606,104.259 -25.784,104.259c-12.033,0 -23.231,-35.138 -25.784,-104.259c-2.496,-67.592 11.544,-85.111 25.784,-85.111c18.909,0 28.017,14.967 25.784,85.111Z" style="fill:none;stroke:#616262;stroke-width:2px;"/><path d="M122.217,156.974c-1.496,69.121 -9.932,104.259 -17.532,104.259c-8.182,0 -15.797,-35.138 -17.533,-104.259c-1.698,-67.592 7.849,-85.111 17.533,-85.111c12.857,0 19.051,14.967 17.532,85.111Z" style="fill:#afb536;fill-rule:nonzero;"/><path d="M122.217,156.974c-1.496,69.121 -9.932,104.259 -17.532,104.259c-8.182,0 -15.797,-35.138 -17.533,-104.259c-1.698,-67.592 7.849,-85.111 17.533,-85.111c12.857,0 19.051,14.967 17.532,85.111Z" style="fill:none;stroke:#616262;stroke-width:2px;"/><path d="M104.691,71.863c-5.704,0 -11.327,17.519 -10.327,85.111c1.022,69.121 5.507,104.259 10.327,104.259c4.476,0 9.445,-35.138 10.326,-104.259c0.894,-70.144 -2.754,-85.111 -10.326,-85.111Z" style="fill:#afb536;fill-rule:nonzero;"/><path d="M104.691,71.863c-5.704,0 -11.327,17.519 -10.327,85.111c1.022,69.121 5.507,104.259 10.327,104.259c4.476,0 9.445,-35.138 10.326,-104.259c0.894,-70.144 -2.754,-85.111 -10.326,-85.111Z" style="fill:none;stroke:#616262;stroke-width:2px;"/><path d="M104.696,71.863c-2.252,0 -4.472,17.519 -4.077,85.111c0.403,69.121 2.174,104.259 4.077,104.259c1.767,0 3.729,-35.138 4.077,-104.259c0.353,-70.144 -1.088,-85.111 -4.077,-85.111Z" style="fill:#afb536;fill-rule:nonzero;"/><path d="M104.696,71.863c-2.252,0 -4.472,17.519 -4.077,85.111c0.403,69.121 2.174,104.259 4.077,104.259c1.767,0 3.729,-35.138 4.077,-104.259c0.353,-70.144 -1.088,-85.111 -4.077,-85.111Z" style="fill:none;stroke:#616262;stroke-width:2px;"/><path d="M170.864,199.131c-2.004,49.891 -13.302,75.253 -23.482,75.253c-10.958,0 -21.157,-25.362 -23.482,-75.253c-2.273,-48.788 10.513,-61.432 23.482,-61.432c17.22,0 25.515,10.802 23.482,61.432Z" style="fill:#d4e059;fill-rule:nonzero;"/><path d="M170.864,199.131c-2.004,49.891 -13.302,75.253 -23.482,75.253c-10.958,0 -21.157,-25.362 -23.482,-75.253c-2.273,-48.788 10.513,-61.432 23.482,-61.432c17.22,0 25.515,10.802 23.482,61.432Z" style="fill:none;stroke:#616262;stroke-width:2px;"/><path d="M165.997,199.131c-1.589,49.891 -10.543,75.253 -18.611,75.253c-8.685,0 -16.768,-25.362 -18.612,-75.253c-1.801,-48.788 8.333,-61.432 18.612,-61.432c13.648,0 20.222,10.802 18.611,61.432Z" style="fill:#d4e059;fill-rule:nonzero;"/><path d="M165.997,199.131c-1.589,49.891 -10.543,75.253 -18.611,75.253c-8.685,0 -16.768,-25.362 -18.612,-75.253c-1.801,-48.788 8.333,-61.432 18.612,-61.432c13.648,0 20.222,10.802 18.611,61.432Z" style="fill:none;stroke:#616262;stroke-width:2px;"/><path d="M160.046,199.131c-1.08,49.891 -7.169,75.253 -12.655,75.253c-5.906,0 -11.402,-25.362 -12.655,-75.253c-1.226,-48.788 5.665,-61.432 12.655,-61.432c9.28,0 13.75,10.802 12.655,61.432Z" style="fill:#d4e059;fill-rule:nonzero;"/><path d="M160.046,199.131c-1.08,49.891 -7.169,75.253 -12.655,75.253c-5.906,0 -11.402,-25.362 -12.655,-75.253c-1.226,-48.788 5.665,-61.432 12.655,-61.432c9.28,0 13.75,10.802 12.655,61.432Z" style="fill:none;stroke:#616262;stroke-width:2px;"/><path d="M147.395,137.699c-4.117,0 -8.175,12.644 -7.454,61.432c0.738,49.891 3.976,75.253 7.454,75.253c3.231,0 6.817,-25.362 7.453,-75.253c0.646,-50.63 -1.987,-61.432 -7.453,-61.432Z" style="fill:#d4e059;fill-rule:nonzero;"/><path d="M147.395,137.699c-4.117,0 -8.175,12.644 -7.454,61.432c0.738,49.891 3.976,75.253 7.454,75.253c3.231,0 6.817,-25.362 7.453,-75.253c0.646,-50.63 -1.987,-61.432 -7.453,-61.432Z" style="fill:none;stroke:#616262;stroke-width:2px;"/><path d="M147.398,137.699c-1.625,0 -3.227,12.644 -2.942,61.432c0.291,49.891 1.569,75.253 2.942,75.253c1.276,0 2.692,-25.362 2.943,-75.253c0.255,-50.63 -0.785,-61.432 -2.943,-61.432Z" style="fill:#d4e059;fill-rule:nonzero;"/><path d="M147.398,137.699c-1.625,0 -3.227,12.644 -2.942,61.432c0.291,49.891 1.569,75.253 2.942,75.253c1.276,0 2.692,-25.362 2.943,-75.253c0.255,-50.63 -0.785,-61.432 -2.943,-61.432Z" style="fill:none;stroke:#616262;stroke-width:2px;"/><rect x="69.33" y="251.542" width="112.873" height="77.427" style="fill:#7fccc4;fill-rule:nonzero;"/><rect x="69.33" y="251.542" width="112.873" height="77.427" style="fill:none;stroke:#616262;stroke-width:2px;"/><path d="M191.448,344.57l-131.363,0l9.245,-15.601l112.873,0l9.245,15.601Z" style="fill:#4ab6ac;fill-rule:nonzero;"/><path d="M191.448,344.57l-131.363,0l9.245,-15.601l112.873,0l9.245,15.601Z" style="fill:none;stroke:#616262;stroke-width:2px;"/><rect x="69.33" y="272.054" width="112.873" height="36.403" style="fill:#fcf69f;fill-rule:nonzero;"/><rect x="69.33" y="272.054" width="112.873" height="36.403" style="fill:none;stroke:#616262;stroke-width:2px;"/><path d="M81.275,272.054l0,36.403" style="fill:none;fill-rule:nonzero;"/><path d="M81.275,272.054l0,36.403" style="fill:none;stroke:#616262;stroke-width:2px;"/><path d="M93.986,272.054l0,36.403" style="fill:none;fill-rule:nonzero;"/><path d="M93.986,272.054l0,36.403" style="fill:none;stroke:#616262;stroke-width:2px;"/><path d="M106.699,272.054l0,36.403" style="fill:none;fill-rule:nonzero;"/><path d="M106.699,272.054l0,36.403" style="fill:none;stroke:#616262;stroke-width:2px;"/><path d="M119.411,272.054l0,36.403" style="fill:none;fill-rule:nonzero;"/><path d="M119.411,272.054l0,36.403" style="fill:none;stroke:#616262;stroke-width:2px;"/><path d="M132.123,272.054l0,36.403" style="fill:none;fill-rule:nonzero;"/><path d="M132.123,272.054l0,36.403" style="fill:none;stroke:#616262;stroke-width:2px;"/><path d="M144.835,272.054l0,36.403" style="fill:none;fill-rule:nonzero;"/><path d="M144.835,272.054l0,36.403" style="fill:none;stroke:#616262;stroke-width:2px;"/><path d="M157.547,272.054l0,36.403" style="fill:none;fill-rule:nonzero;"/><path d="M157.547,272.054l0,36.403" style="fill:none;stroke:#616262;stroke-width:2px;"/><path d="M170.258,272.054l0,36.403" style="fill:none;fill-rule:nonzero;"/><path d="M170.258,272.054l0,36.403" style="fill:none;stroke:#616262;stroke-width:2px;"/></g></g></svg>