<?xml version="1.0" encoding="UTF-8" standalone="no"?><!DOCTYPE svg PUBLIC "-//W3C//DTD SVG 1.1//EN" "http://www.w3.org/Graphics/SVG/1.1/DTD/svg11.dtd"><svg width="100%" height="100%" viewBox="0 0 320 440" version="1.1" xmlns="http://www.w3.org/2000/svg" xmlns:xlink="http://www.w3.org/1999/xlink" xml:space="preserve" xmlns:serif="http://www.serif.com/" style="fill-rule:evenodd;clip-rule:evenodd;stroke-linecap:round;stroke-linejoin:round;stroke-miterlimit:1.5;"><rect x="0.145" y="293.651" width="320.239" height="77.081" style="fill:#fff;"/><rect x="0.145" y="233.371" width="145.41" height="43.326" style="fill:#fff;"/><rect x="0.145" y="64.029" width="278.699" height="151.816" style="fill:#fff;"/><rect x="0.145" y="395.554" width="52.229" height="43.326" style="fill:#fff;"/><rect x="58.14" y="395.554" width="52.229" height="43.326" style="fill:#fff;"/><rect x="116.677" y="395.554" width="52.229" height="43.326" style="fill:#fff;"/><rect x="178.37" y="395.554" width="57.63" height="43.326" style="fill:#fff;"/><rect x="174.974" y="233.371" width="145.41" height="43.326" style="fill:#fff;"/><text x="33.718px" y="259.642px" style="font-family:'FiraSans-Regular', 'Fira Sans', sans-serif;font-size:12px;">AR F<tspan x="56.506px " y="259.642px ">o</tspan>undation</text><g transform="matrix(1,0,0,1,-37.4398,-69.2617)"><text x="116.856px" y="151.637px" style="font-family:'FiraSans-Regular', 'Fira Sans', sans-serif;font-size:12px;">Mix<tspan x="135.288px " y="151.637px ">e</tspan>d and Augment<tspan x="224.208px " y="151.637px ">e</tspan>d</text><text x="119.154px" y="163.637px" style="font-family:'FiraSans-Regular', 'Fira Sans', sans-serif;font-size:12px;">R<tspan x="126.234px 132.654px 139.062px " y="163.637px 163.637px 163.637px ">eal</tspan>ity Studio (MAR<tspan x="225.198px " y="163.637px ">S</tspan>)</text></g><text x="189.383px" y="259.642px" style="font-family:'FiraSans-Regular', 'Fira Sans', sans-serif;font-size:12px;">XR Int<tspan x="221.027px 227.567px 231.779px " y="259.642px 259.642px 259.642px ">era</tspan>ction T<tspan x="274.523px " y="259.642px ">o</tspan>olkit</text><text x="94.528px" y="312.824px" style="font-family:'FiraSans-Regular', 'Fira Sans', sans-serif;font-size:12px;">XR Subs<tspan x="137.5px " y="312.824px ">y</tspan>st<tspan x="153.076px " y="312.824px ">e</tspan>ms / XR SDK</text><g transform="matrix(1,0,0,1,-104.058,46.7153)"><text x="112.892px" y="283.595px" style="font-family:'FiraSans-Regular', 'Fira Sans', sans-serif;font-size:9px;">Displa<tspan x="138.128px " y="283.595px ">y</tspan></text><rect x="112.892" y="284.27" width="29.664" height="0.45"/></g><g transform="matrix(1,0,0,1,-60.0508,46.7153)"><text x="112.892px" y="283.595px" style="font-family:'FiraSans-Regular', 'Fira Sans', sans-serif;font-size:9px;">Input</text><rect x="112.892" y="284.27" width="21.762" height="0.45"/></g><g transform="matrix(1,0,0,1,-20.4846,46.7153)"><text x="112.892px" y="283.595px" style="font-family:'FiraSans-Regular', 'Fira Sans', sans-serif;font-size:9px;">En<tspan x="122.828px " y="283.595px ">v</tspan>ir<tspan x="132.998px " y="283.595px ">o</tspan>nment</text><rect x="112.892" y="284.27" width="51.777" height="0.45"/></g><g transform="matrix(1,0,0,1,55.1165,46.7153)"><text x="112.892px" y="283.595px" style="font-family:'FiraSans-Regular', 'Fira Sans', sans-serif;font-size:9px;">F<tspan x="116.771px 121.667px 125.789px " y="283.595px 283.595px 283.595px ">ace</tspan>s</text><rect x="112.892" y="284.27" width="22.005" height="0.45"/></g><g transform="matrix(1,0,0,1,55.1165,66.4947)"><text x="109.913px" y="283.595px" style="font-family:'FiraSans-Regular', 'Fira Sans', sans-serif;font-size:9px;">P<tspan x="114.872px " y="283.595px ">e</tspan>ople</text><rect x="109.913" y="284.27" width="27.963" height="0.45"/></g><g transform="matrix(1,0,0,1,166.283,46.7153)"><text x="112.892px" y="283.595px" style="font-family:'FiraSans-Regular', 'Fira Sans', sans-serif;font-size:9px;">Ra<tspan x="123.008px 127.4px 131.612px " y="283.595px 283.595px 283.595px ">yca</tspan>st</text><rect x="112.892" y="284.27" width="30.978" height="0.45"/></g><g transform="matrix(1,0,0,1,-104.058,66.4947)"><text x="112.892px" y="283.595px" style="font-family:'FiraSans-Regular', 'Fira Sans', sans-serif;font-size:9px;">Camer<tspan x="138.515px " y="283.595px ">a</tspan></text><rect x="112.892" y="284.27" width="30.519" height="0.45"/></g><g transform="matrix(1,0,0,1,-60.0508,66.4947)"><text x="112.892px" y="283.595px" style="font-family:'FiraSans-Regular', 'Fira Sans', sans-serif;font-size:9px;">Pl<tspan x="120.623px " y="283.595px ">a</tspan>nes</text><rect x="112.892" y="284.27" width="27.009" height="0.45"/></g><g transform="matrix(1,0,0,1,-20.4846,66.4947)"><text x="112.892px" y="283.595px" style="font-family:'FiraSans-Regular', 'Fira Sans', sans-serif;font-size:9px;">Imag<tspan x="132.602px " y="283.595px ">e</tspan> T<tspan x="144.275px 147.434px " y="283.595px 283.595px ">ra</tspan>cking</text><rect x="112.892" y="284.27" width="60.84" height="0.45"/></g><g transform="matrix(1,0,0,1,89.9922,66.4947)"><text x="112.892px" y="283.595px" style="font-family:'FiraSans-Regular', 'Fira Sans', sans-serif;font-size:9px;">Object T<tspan x="146.21px 149.369px " y="283.595px 283.595px ">ra</tspan>cking</text><rect x="112.892" y="284.27" width="62.775" height="0.45"/></g><g transform="matrix(1,0,0,1,89.9922,46.7153)"><text x="116.672px" y="283.595px" style="font-family:'FiraSans-Regular', 'Fira Sans', sans-serif;font-size:9px;">C<tspan x="121.532px " y="283.595px ">o</tspan>llabor<tspan x="150.674px " y="283.595px ">a</tspan>tion</text><rect x="116.672" y="284.27" width="55.215" height="0.45"/></g><g transform="matrix(1,0,0,1,-69.3733,-171.044)"><text x="112.734px" y="283.595px" style="font-family:'FiraSans-Regular', 'Fira Sans', sans-serif;font-size:9px;">Actions</text><rect x="112.734" y="284.27" width="29.979" height="0.45"/></g><g transform="matrix(1,0,0,1,-19.0867,-171.044)"><text x="104.846px" y="283.595px" style="font-family:'FiraSans-Regular', 'Fira Sans', sans-serif;font-size:9px;">Dat<tspan x="118.634px " y="283.595px ">a</tspan>ba<tspan x="133.592px " y="283.595px ">s</tspan>e</text><rect x="104.846" y="284.27" width="37.854" height="0.45"/></g><text x="113.593px" y="155.345px" style="font-family:'FiraSans-Regular', 'Fira Sans', sans-serif;font-size:12px;">P<tspan x="120.325px 124.597px " y="155.345px 155.345px ">ro</tspan>vider<tspan x="159.013px " y="155.345px ">s</tspan></text><g transform="matrix(1,0,0,1,89.5024,-171.044)"><text x="98.438px" y="283.595px" style="font-family:'FiraSans-Regular', 'Fira Sans', sans-serif;font-size:9px;">C<tspan x="103.298px " y="283.595px ">o</tspan>mpositing</text><rect x="98.438" y="284.27" width="50.913" height="0.45"/></g><g transform="matrix(1,0,0,1,89.4574,-151.265)"><text x="109.175px" y="283.595px" style="font-family:'FiraSans-Regular', 'Fira Sans', sans-serif;font-size:9px;">P<tspan x="114.224px 117.428px " y="283.595px 283.595px ">ro</tspan>xies</text><rect x="109.175" y="284.27" width="29.439" height="0.45"/></g><g transform="matrix(1,0,0,1,-70.0213,-151.265)"><text x="106.236px" y="283.595px" style="font-family:'FiraSans-Regular', 'Fira Sans', sans-serif;font-size:9px;">C<tspan x="111.096px " y="283.595px ">o</tspan>nditions</text><rect x="106.236" y="284.27" width="43.83" height="0.45"/></g><g transform="matrix(1,0,0,1,-19.0867,-151.265)"><text x="113.499px" y="283.595px" style="font-family:'FiraSans-Regular', 'Fira Sans', sans-serif;font-size:9px;">F<tspan x="117.603px 122.859px 126.063px 130.185px " y="283.595px 283.595px 283.595px 283.595px ">orce</tspan>s</text><rect x="113.499" y="284.27" width="25.794" height="0.45"/></g><g transform="matrix(1,0,0,1,12.6939,-151.265)"><text x="127.971px" y="283.595px" style="font-family:'FiraSans-Regular', 'Fira Sans', sans-serif;font-size:9px;">Entities</text><rect x="127.971" y="284.27" width="30.681" height="0.45"/></g><g transform="matrix(1,0,0,1,11.5689,-171.044)"><text x="123.201px" y="283.595px" style="font-family:'FiraSans-Regular', 'Fira Sans', sans-serif;font-size:9px;">R<tspan x="128.511px 133.326px 138.132px " y="283.595px 283.595px 283.595px ">eas</tspan>oning</text><rect x="123.201" y="284.27" width="42.156" height="0.45"/></g><g transform="matrix(1,0,0,1,166.283,66.4947)"><text x="112.892px" y="283.595px" style="font-family:'FiraSans-Regular', 'Fira Sans', sans-serif;font-size:9px;">Meshing</text><rect x="112.892" y="284.27" width="33.876" height="0.45"/></g><g transform="matrix(1,0,0,1,-108.431,-109.636)"><text x="112.892px" y="283.595px" style="font-family:'FiraSans-Regular', 'Fira Sans', sans-serif;font-size:9px;">Displa<tspan x="138.128px " y="283.595px ">y</tspan></text><rect x="112.892" y="284.27" width="29.664" height="0.45"/></g><g transform="matrix(1,0,0,1,-72.6534,-109.636)"><text x="112.892px" y="283.595px" style="font-family:'FiraSans-Regular', 'Fira Sans', sans-serif;font-size:9px;">Input</text><rect x="112.892" y="284.27" width="21.762" height="0.45"/></g><g transform="matrix(1,0,0,1,-39.7742,-109.636)"><text x="112.892px" y="283.595px" style="font-family:'FiraSans-Regular', 'Fira Sans', sans-serif;font-size:9px;">En<tspan x="122.828px " y="283.595px ">v</tspan>ir<tspan x="132.998px " y="283.595px ">o</tspan>nment</text><rect x="112.892" y="284.27" width="51.777" height="0.45"/></g><g transform="matrix(1,0,0,1,28.3682,-109.636)"><text x="112.892px" y="283.595px" style="font-family:'FiraSans-Regular', 'Fira Sans', sans-serif;font-size:9px;">F<tspan x="116.771px 121.667px 125.789px " y="283.595px 283.595px 283.595px ">ace</tspan>s</text><rect x="112.892" y="284.27" width="22.005" height="0.45"/></g><g transform="matrix(1,0,0,1,28.3682,-89.8568)"><text x="109.913px" y="283.595px" style="font-family:'FiraSans-Regular', 'Fira Sans', sans-serif;font-size:9px;">P<tspan x="114.872px " y="283.595px ">e</tspan>ople</text><rect x="109.913" y="284.27" width="27.963" height="0.45"/></g><g transform="matrix(1,0,0,1,126.418,-109.636)"><text x="112.892px" y="283.595px" style="font-family:'FiraSans-Regular', 'Fira Sans', sans-serif;font-size:9px;">Ra<tspan x="123.008px 127.4px 131.612px " y="283.595px 283.595px 283.595px ">yca</tspan>st</text><rect x="112.892" y="284.27" width="30.978" height="0.45"/></g><g transform="matrix(1,0,0,1,-108.431,-89.8568)"><text x="112.892px" y="283.595px" style="font-family:'FiraSans-Regular', 'Fira Sans', sans-serif;font-size:9px;">Camer<tspan x="138.515px " y="283.595px ">a</tspan></text><rect x="112.892" y="284.27" width="30.519" height="0.45"/></g><g transform="matrix(1,0,0,1,-72.6534,-89.8568)"><text x="112.892px" y="283.595px" style="font-family:'FiraSans-Regular', 'Fira Sans', sans-serif;font-size:9px;">Pl<tspan x="120.623px " y="283.595px ">a</tspan>nes</text><rect x="112.892" y="284.27" width="27.009" height="0.45"/></g><g transform="matrix(1,0,0,1,-39.7742,-89.8568)"><text x="112.892px" y="283.595px" style="font-family:'FiraSans-Regular', 'Fira Sans', sans-serif;font-size:9px;">Imag<tspan x="132.602px " y="283.595px ">e</tspan> T<tspan x="144.275px 147.434px " y="283.595px 283.595px ">ra</tspan>cking</text><rect x="112.892" y="284.27" width="60.84" height="0.45"/></g><g transform="matrix(1,0,0,1,58.3572,-89.8568)"><text x="112.892px" y="283.595px" style="font-family:'FiraSans-Regular', 'Fira Sans', sans-serif;font-size:9px;">Object T<tspan x="146.21px 149.369px " y="283.595px 283.595px ">ra</tspan>cking</text><rect x="112.892" y="284.27" width="62.775" height="0.45"/></g><g transform="matrix(1,0,0,1,58.3572,-109.636)"><text x="116.672px" y="283.595px" style="font-family:'FiraSans-Regular', 'Fira Sans', sans-serif;font-size:9px;">C<tspan x="121.532px " y="283.595px ">o</tspan>llabor<tspan x="150.674px " y="283.595px ">a</tspan>tion</text><rect x="116.672" y="284.27" width="55.215" height="0.45"/></g><g transform="matrix(1,0,0,1,126.418,-89.8568)"><text x="112.892px" y="283.595px" style="font-family:'FiraSans-Regular', 'Fira Sans', sans-serif;font-size:9px;">Meshing</text><rect x="112.892" y="284.27" width="33.876" height="0.45"/></g><g transform="matrix(1,0,0,1,-108.498,131.304)"><text x="112.892px" y="283.595px" style="font-family:'FiraSans-Regular', 'Fira Sans', sans-serif;font-size:9px;">AR C<tspan x="130.739px 135.995px 139.199px " y="283.595px 283.595px 283.595px ">ore</tspan> XR</text><text x="122.09px" y="292.595px" style="font-family:'FiraSans-Regular', 'Fira Sans', sans-serif;font-size:9px;">Plugin</text></g><g transform="matrix(1,0,0,1,-45.286,131.304)"><text x="112.892px" y="283.595px" style="font-family:'FiraSans-Regular', 'Fira Sans', sans-serif;font-size:9px;">ARKit XR</text><text x="117.329px" y="292.595px" style="font-family:'FiraSans-Regular', 'Fira Sans', sans-serif;font-size:9px;">Plugin</text></g><g transform="matrix(1,0,0,1,9.54153,131.304)"><text x="112.892px" y="283.595px" style="font-family:'FiraSans-Regular', 'Fira Sans', sans-serif;font-size:9px;">Oculus XR</text><text x="120.362px" y="292.595px" style="font-family:'FiraSans-Regular', 'Fira Sans', sans-serif;font-size:9px;">Plugin</text></g><g transform="matrix(1,0,0,1,69.8968,131.304)"><text x="112.892px" y="283.595px" style="font-family:'FiraSans-Regular', 'Fira Sans', sans-serif;font-size:9px;">Windows XR</text><text x="124.754px" y="292.595px" style="font-family:'FiraSans-Regular', 'Fira Sans', sans-serif;font-size:9px;">Plugin</text></g><text x="255.555px" y="414.899px" style="font-family:'FiraSans-Regular', 'Fira Sans', sans-serif;font-size:9px;">...</text><text x="255.555px" y="120.465px" style="font-family:'FiraSans-Regular', 'Fira Sans', sans-serif;font-size:9px;">...</text><path d="M69.85,212.703l3,-6l3,6c-1.5,-1.5 -4.5,-1.5 -6,0Z"/><path d="M72.85,240.267l0,-28.764" style="fill:none;stroke:#000;stroke-width:1px;"/><path d="M69.85,274.816l3,-6l3,6c-1.5,-1.5 -4.5,-1.5 -6,0Z"/><path d="M72.85,302.38l0,-28.764" style="fill:none;stroke:#000;stroke-width:1px;"/><path d="M23.26,371.902l3,-6l3,6c-1.5,-1.5 -4.5,-1.5 -6,0Z"/><path d="M26.26,399.466l0,-28.764" style="fill:none;stroke:#000;stroke-width:1px;"/><path d="M81.255,371.902l3,-6l3,6c-1.5,-1.5 -4.5,-1.5 -6,0Z"/><path d="M84.255,399.466l0,-28.764" style="fill:none;stroke:#000;stroke-width:1px;"/><path d="M139.496,371.902l3,-6l3,6c-1.5,-1.5 -4.5,-1.5 -6,0Z"/><path d="M142.496,399.466l0,-28.764" style="fill:none;stroke:#000;stroke-width:1px;"/><path d="M202.47,371.902l3,-6l3,6c-1.5,-1.5 -4.5,-1.5 -6,0Z"/><path d="M205.47,399.466l0,-28.764" style="fill:none;stroke:#000;stroke-width:1px;"/><path d="M246.929,274.816l3,-6l3,6c-1.5,-1.5 -4.5,-1.5 -6,0Z"/><path d="M249.929,302.38l0,-28.764" style="fill:none;stroke:#000;stroke-width:1px;"/><path d="M201.631,212.318l3,-6l3,6c-1.5,-1.5 -4.5,-1.5 -6,0Z"/><path d="M204.631,239.882l0,-28.764" style="fill:none;stroke:#000;stroke-width:1px;"/><rect x="196.353" y="0.817" width="55.931" height="43.326" style="fill:#fff;"/><rect x="263.544" y="0.817" width="55.931" height="43.326" style="fill:#fff;"/><rect x="0.145" y="0.817" width="76.186" height="43.326" style="fill:#fff;"/><g transform="matrix(1,0,0,1,87.0143,-133.344)"><text x="116.388px" y="151.637px" style="font-family:'FiraSans-Regular', 'Fira Sans', sans-serif;font-size:12px;">Y<tspan x="122.28px " y="151.637px ">o</tspan>ur AR</text><text x="126.738px" y="163.637px" style="font-family:'FiraSans-Regular', 'Fira Sans', sans-serif;font-size:12px;">App</text></g><g transform="matrix(1,0,0,1,154.206,-133.344)"><text x="125.046px" y="151.637px" style="font-family:'FiraSans-Regular', 'Fira Sans', sans-serif;font-size:12px;">Y<tspan x="130.938px " y="151.637px ">o</tspan>ur</text><text x="118.182px" y="163.637px" style="font-family:'FiraSans-Regular', 'Fira Sans', sans-serif;font-size:12px;">VR App</text></g><g transform="matrix(1,0,0,1,-106.306,-270.187)"><text x="129.315px" y="283.595px" style="font-family:'FiraSans-Regular', 'Fira Sans', sans-serif;font-size:12px;">MARS</text><text x="113.397px" y="295.595px" style="font-family:'FiraSans-Regular', 'Fira Sans', sans-serif;font-size:12px;">C<tspan x="119.877px " y="295.595px ">o</tspan>mp<tspan x="144.177px " y="295.595px ">a</tspan>nion</text><text x="130.911px" y="307.595px" style="font-family:'FiraSans-Regular', 'Fira Sans', sans-serif;font-size:12px;">Apps</text></g><path d="M40.763,65.499l-3,6l-3,-6c1.5,1.5 4.5,1.5 6,0Z"/><path d="M37.763,42.436l0,24.263" style="fill:none;stroke:#000;stroke-width:1px;"/><path d="M203.896,42.783l3,-6l3,6c-1.5,-1.5 -4.5,-1.5 -6,0Z"/><path d="M206.896,70.347l0,-28.764" style="fill:none;stroke:#000;stroke-width:1px;"/><path d="M237.397,43.134l3,-6l3,6c-1.5,-1.5 -4.5,-1.5 -6,0Z"/><path d="M240.397,64.029l0,-22.095" style="fill:none;stroke:#000;stroke-width:1px;"/><path d="M240.397,240.584l0,-24.739" style="fill:none;stroke:#000;stroke-width:1px;"/><path d="M289.403,41.138l3,-6l3,6c-1.5,-1.5 -4.5,-1.5 -6,0Z"/><path d="M292.403,239.882l0,-199.944" style="fill:none;stroke:#000;stroke-width:1px;"/></svg>