<?xml version="1.0" encoding="UTF-8" standalone="no"?><!DOCTYPE svg PUBLIC "-//W3C//DTD SVG 1.1//EN" "http://www.w3.org/Graphics/SVG/1.1/DTD/svg11.dtd"><svg width="100%" height="100%" viewBox="0 0 686 939" version="1.1" xmlns="http://www.w3.org/2000/svg" xmlns:xlink="http://www.w3.org/1999/xlink" xml:space="preserve" xmlns:serif="http://www.serif.com/" style="fill-rule:evenodd;clip-rule:evenodd;stroke-linecap:round;stroke-linejoin:round;stroke-miterlimit:1.5;"><rect x="1.546" y="628.033" width="683.002" height="164.398" style="fill:#fff;stroke:#c2c2c2;stroke-width:1.07px;"/><rect x="1.546" y="499.468" width="310.129" height="92.406" style="fill:#fff;stroke:#c2c2c2;stroke-width:1.07px;"/><rect x="1.546" y="138.297" width="594.406" height="323.791" style="fill:#fff;stroke:#c2c2c2;stroke-width:1.07px;"/><rect x="1.546" y="845.369" width="111.394" height="92.406" style="fill:#fff;stroke:#c2c2c2;stroke-width:1.07px;"/><rect x="125.237" y="845.369" width="111.394" height="92.406" style="fill:#fff;stroke:#c2c2c2;stroke-width:1.07px;"/><rect x="250.085" y="845.369" width="111.394" height="92.406" style="fill:#fff;stroke:#c2c2c2;stroke-width:1.07px;"/><rect x="381.662" y="845.369" width="122.913" height="92.406" style="fill:#fff;stroke:#c2c2c2;stroke-width:1.07px;"/><rect x="374.419" y="499.468" width="310.129" height="92.406" style="fill:#fff;stroke:#c2c2c2;stroke-width:1.07px;"/><text x="73.15px" y="555.499px" style="font-family:'FiraSans-Regular', 'Fira Sans', sans-serif;font-size:25.593px;">AR F<tspan x="121.752px " y="555.499px ">o</tspan>undation</text><g transform="matrix(2.13279,0,0,2.13279,-78.6139,-145.984)"><text x="116.856px" y="151.637px" style="font-family:'FiraSans-Regular', 'Fira Sans', sans-serif;font-size:12px;">Mix<tspan x="135.288px " y="151.637px ">e</tspan>d and Augment<tspan x="224.208px " y="151.637px ">e</tspan>d</text><text x="119.154px" y="163.637px" style="font-family:'FiraSans-Regular', 'Fira Sans', sans-serif;font-size:12px;">R<tspan x="126.234px 132.654px 139.062px " y="163.637px 163.637px 163.637px ">eal</tspan>ity Studio (MAR<tspan x="225.198px " y="163.637px ">S</tspan>)</text></g><text x="405.151px" y="555.499px" style="font-family:'FiraSans-Regular', 'Fira Sans', sans-serif;font-size:25.593px;">XR Int<tspan x="472.64px 486.589px 495.572px " y="555.499px 555.499px 555.499px ">era</tspan>ction T<tspan x="586.736px " y="555.499px ">o</tspan>olkit</text><text x="202.846px" y="668.925px" style="font-family:'FiraSans-Regular', 'Fira Sans', sans-serif;font-size:25.593px;">XR Subs<tspan x="294.496px 306.909px 318.861px 327.717px " y="668.925px 668.925px 668.925px 668.925px ">yste</tspan>ms / XR SDK</text><g transform="matrix(2.13279,0,0,2.13279,-220.697,101.37)"><text x="112.892px" y="283.595px" style="font-family:'FiraSans-Regular', 'Fira Sans', sans-serif;font-size:9px;">Displa<tspan x="138.128px " y="283.595px ">y</tspan></text><rect x="112.892" y="284.27" width="29.664" height="0.45"/></g><g transform="matrix(2.13279,0,0,2.13279,-126.839,101.37)"><text x="112.892px" y="283.595px" style="font-family:'FiraSans-Regular', 'Fira Sans', sans-serif;font-size:9px;">Input</text><rect x="112.892" y="284.27" width="21.762" height="0.45"/></g><g transform="matrix(2.13279,0,0,2.13279,-42.4521,101.37)"><text x="112.892px" y="283.595px" style="font-family:'FiraSans-Regular', 'Fira Sans', sans-serif;font-size:9px;">En<tspan x="122.828px " y="283.595px ">v</tspan>ir<tspan x="132.998px " y="283.595px ">o</tspan>nment</text><rect x="112.892" y="284.27" width="51.777" height="0.45"/></g><g transform="matrix(2.13279,0,0,2.13279,118.789,101.37)"><text x="112.892px" y="283.595px" style="font-family:'FiraSans-Regular', 'Fira Sans', sans-serif;font-size:9px;">F<tspan x="116.771px 121.667px 125.789px " y="283.595px 283.595px 283.595px ">ace</tspan>s</text><rect x="112.892" y="284.27" width="22.005" height="0.45"/></g><g transform="matrix(2.13279,0,0,2.13279,118.789,143.556)"><text x="109.913px" y="283.595px" style="font-family:'FiraSans-Regular', 'Fira Sans', sans-serif;font-size:9px;">P<tspan x="114.872px " y="283.595px ">e</tspan>ople</text><rect x="109.913" y="284.27" width="27.963" height="0.45"/></g><g transform="matrix(2.13279,0,0,2.13279,355.883,101.37)"><text x="112.892px" y="283.595px" style="font-family:'FiraSans-Regular', 'Fira Sans', sans-serif;font-size:9px;">Ra<tspan x="123.008px 127.4px 131.612px " y="283.595px 283.595px 283.595px ">yca</tspan>st</text><rect x="112.892" y="284.27" width="30.978" height="0.45"/></g><g transform="matrix(2.13279,0,0,2.13279,-220.697,143.556)"><text x="112.892px" y="283.595px" style="font-family:'FiraSans-Regular', 'Fira Sans', sans-serif;font-size:9px;">Camer<tspan x="138.515px " y="283.595px ">a</tspan></text><rect x="112.892" y="284.27" width="30.519" height="0.45"/></g><g transform="matrix(2.13279,0,0,2.13279,-126.839,143.556)"><text x="112.892px" y="283.595px" style="font-family:'FiraSans-Regular', 'Fira Sans', sans-serif;font-size:9px;">Pl<tspan x="120.623px " y="283.595px ">a</tspan>nes</text><rect x="112.892" y="284.27" width="27.009" height="0.45"/></g><g transform="matrix(2.13279,0,0,2.13279,-42.4521,143.556)"><text x="112.892px" y="283.595px" style="font-family:'FiraSans-Regular', 'Fira Sans', sans-serif;font-size:9px;">Imag<tspan x="132.602px " y="283.595px ">e</tspan> T<tspan x="144.275px 147.434px " y="283.595px 283.595px ">ra</tspan>cking</text><rect x="112.892" y="284.27" width="60.84" height="0.45"/></g><g transform="matrix(2.13279,0,0,2.13279,193.172,143.556)"><text x="112.892px" y="283.595px" style="font-family:'FiraSans-Regular', 'Fira Sans', sans-serif;font-size:9px;">Object T<tspan x="146.21px 149.369px " y="283.595px 283.595px ">ra</tspan>cking</text><rect x="112.892" y="284.27" width="62.775" height="0.45"/></g><g transform="matrix(2.13279,0,0,2.13279,193.172,101.37)"><text x="116.672px" y="283.595px" style="font-family:'FiraSans-Regular', 'Fira Sans', sans-serif;font-size:9px;">C<tspan x="121.532px " y="283.595px ">o</tspan>llabor<tspan x="150.674px " y="283.595px ">a</tspan>tion</text><rect x="116.672" y="284.27" width="55.215" height="0.45"/></g><g transform="matrix(2.13279,0,0,2.13279,-146.721,-363.065)"><text x="112.734px" y="283.595px" style="font-family:'FiraSans-Regular', 'Fira Sans', sans-serif;font-size:9px;">Actions</text><rect x="112.734" y="284.27" width="29.979" height="0.45"/></g><g transform="matrix(2.13279,0,0,2.13279,-39.4706,-363.065)"><text x="104.846px" y="283.595px" style="font-family:'FiraSans-Regular', 'Fira Sans', sans-serif;font-size:9px;">Dat<tspan x="118.634px " y="283.595px ">a</tspan>ba<tspan x="133.592px " y="283.595px ">s</tspan>e</text><rect x="104.846" y="284.27" width="37.854" height="0.45"/></g><text x="243.506px" y="333.055px" style="font-family:'FiraSans-Regular', 'Fira Sans', sans-serif;font-size:25.593px;">P<tspan x="257.864px 266.975px 281.82px " y="333.055px 333.055px 333.055px ">rov</tspan>ider<tspan x="340.377px " y="333.055px ">s</tspan></text><g transform="matrix(2.13279,0,0,2.13279,192.127,-363.065)"><text x="98.438px" y="283.595px" style="font-family:'FiraSans-Regular', 'Fira Sans', sans-serif;font-size:9px;">C<tspan x="103.298px " y="283.595px ">o</tspan>mpositing</text><rect x="98.438" y="284.27" width="50.913" height="0.45"/></g><g transform="matrix(2.13279,0,0,2.13279,192.031,-320.88)"><text x="109.175px" y="283.595px" style="font-family:'FiraSans-Regular', 'Fira Sans', sans-serif;font-size:9px;">P<tspan x="114.224px 117.428px " y="283.595px 283.595px ">ro</tspan>xies</text><rect x="109.175" y="284.27" width="29.439" height="0.45"/></g><g transform="matrix(2.13279,0,0,2.13279,-148.103,-320.88)"><text x="106.236px" y="283.595px" style="font-family:'FiraSans-Regular', 'Fira Sans', sans-serif;font-size:9px;">C<tspan x="111.096px " y="283.595px ">o</tspan>nditions</text><rect x="106.236" y="284.27" width="43.83" height="0.45"/></g><g transform="matrix(2.13279,0,0,2.13279,-39.4706,-320.88)"><text x="113.499px" y="283.595px" style="font-family:'FiraSans-Regular', 'Fira Sans', sans-serif;font-size:9px;">F<tspan x="117.603px 122.859px 126.063px 130.185px " y="283.595px 283.595px 283.595px 283.595px ">orce</tspan>s</text><rect x="113.499" y="284.27" width="25.794" height="0.45"/></g><g transform="matrix(2.13279,0,0,2.13279,28.3106,-320.88)"><text x="127.971px" y="283.595px" style="font-family:'FiraSans-Regular', 'Fira Sans', sans-serif;font-size:9px;">Entities</text><rect x="127.971" y="284.27" width="30.681" height="0.45"/></g><g transform="matrix(2.13279,0,0,2.13279,25.9112,-363.065)"><text x="123.201px" y="283.595px" style="font-family:'FiraSans-Regular', 'Fira Sans', sans-serif;font-size:9px;">R<tspan x="128.511px 133.326px 138.132px " y="283.595px 283.595px 283.595px ">eas</tspan>oning</text><rect x="123.201" y="284.27" width="42.156" height="0.45"/></g><g transform="matrix(2.13279,0,0,2.13279,355.883,143.556)"><text x="112.892px" y="283.595px" style="font-family:'FiraSans-Regular', 'Fira Sans', sans-serif;font-size:9px;">Meshing</text><rect x="112.892" y="284.27" width="33.876" height="0.45"/></g><g transform="matrix(2.13279,0,0,2.13279,-230.022,-232.094)"><text x="112.892px" y="283.595px" style="font-family:'FiraSans-Regular', 'Fira Sans', sans-serif;font-size:9px;">Displa<tspan x="138.128px " y="283.595px ">y</tspan></text><rect x="112.892" y="284.27" width="29.664" height="0.45"/></g><g transform="matrix(2.13279,0,0,2.13279,-153.717,-232.094)"><text x="112.892px" y="283.595px" style="font-family:'FiraSans-Regular', 'Fira Sans', sans-serif;font-size:9px;">Input</text><rect x="112.892" y="284.27" width="21.762" height="0.45"/></g><g transform="matrix(2.13279,0,0,2.13279,-83.5928,-232.094)"><text x="112.892px" y="283.595px" style="font-family:'FiraSans-Regular', 'Fira Sans', sans-serif;font-size:9px;">En<tspan x="122.828px " y="283.595px ">v</tspan>ir<tspan x="132.998px " y="283.595px ">o</tspan>nment</text><rect x="112.892" y="284.27" width="51.777" height="0.45"/></g><g transform="matrix(2.13279,0,0,2.13279,61.7405,-232.094)"><text x="112.892px" y="283.595px" style="font-family:'FiraSans-Regular', 'Fira Sans', sans-serif;font-size:9px;">F<tspan x="116.771px 121.667px 125.789px " y="283.595px 283.595px 283.595px ">ace</tspan>s</text><rect x="112.892" y="284.27" width="22.005" height="0.45"/></g><g transform="matrix(2.13279,0,0,2.13279,61.7405,-189.909)"><text x="109.913px" y="283.595px" style="font-family:'FiraSans-Regular', 'Fira Sans', sans-serif;font-size:9px;">P<tspan x="114.872px " y="283.595px ">e</tspan>ople</text><rect x="109.913" y="284.27" width="27.963" height="0.45"/></g><g transform="matrix(2.13279,0,0,2.13279,270.859,-232.094)"><text x="112.892px" y="283.595px" style="font-family:'FiraSans-Regular', 'Fira Sans', sans-serif;font-size:9px;">Ra<tspan x="123.008px 127.4px 131.612px " y="283.595px 283.595px 283.595px ">yca</tspan>st</text><rect x="112.892" y="284.27" width="30.978" height="0.45"/></g><g transform="matrix(2.13279,0,0,2.13279,-230.022,-189.909)"><text x="112.892px" y="283.595px" style="font-family:'FiraSans-Regular', 'Fira Sans', sans-serif;font-size:9px;">Camer<tspan x="138.515px " y="283.595px ">a</tspan></text><rect x="112.892" y="284.27" width="30.519" height="0.45"/></g><g transform="matrix(2.13279,0,0,2.13279,-153.717,-189.909)"><text x="112.892px" y="283.595px" style="font-family:'FiraSans-Regular', 'Fira Sans', sans-serif;font-size:9px;">Pl<tspan x="120.623px " y="283.595px ">a</tspan>nes</text><rect x="112.892" y="284.27" width="27.009" height="0.45"/></g><g transform="matrix(2.13279,0,0,2.13279,-83.5928,-189.909)"><text x="112.892px" y="283.595px" style="font-family:'FiraSans-Regular', 'Fira Sans', sans-serif;font-size:9px;">Imag<tspan x="132.602px " y="283.595px ">e</tspan> T<tspan x="144.275px 147.434px " y="283.595px 283.595px ">ra</tspan>cking</text><rect x="112.892" y="284.27" width="60.84" height="0.45"/></g><g transform="matrix(2.13279,0,0,2.13279,125.701,-189.909)"><text x="112.892px" y="283.595px" style="font-family:'FiraSans-Regular', 'Fira Sans', sans-serif;font-size:9px;">Object T<tspan x="146.21px 149.369px " y="283.595px 283.595px ">ra</tspan>cking</text><rect x="112.892" y="284.27" width="62.775" height="0.45"/></g><g transform="matrix(2.13279,0,0,2.13279,125.701,-232.094)"><text x="116.672px" y="283.595px" style="font-family:'FiraSans-Regular', 'Fira Sans', sans-serif;font-size:9px;">C<tspan x="121.532px " y="283.595px ">o</tspan>llabor<tspan x="150.674px " y="283.595px ">a</tspan>tion</text><rect x="116.672" y="284.27" width="55.215" height="0.45"/></g><g transform="matrix(2.13279,0,0,2.13279,270.859,-189.909)"><text x="112.892px" y="283.595px" style="font-family:'FiraSans-Regular', 'Fira Sans', sans-serif;font-size:9px;">Meshing</text><rect x="112.892" y="284.27" width="33.876" height="0.45"/></g><g transform="matrix(2.13279,0,0,2.13279,-230.165,281.779)"><text x="112.892px" y="283.595px" style="font-family:'FiraSans-Regular', 'Fira Sans', sans-serif;font-size:9px;">AR C<tspan x="130.739px 135.995px 139.199px " y="283.595px 283.595px 283.595px ">ore</tspan> XR</text><text x="122.09px" y="292.595px" style="font-family:'FiraSans-Regular', 'Fira Sans', sans-serif;font-size:9px;">Plugin</text></g><g transform="matrix(2.13279,0,0,2.13279,-95.3482,281.779)"><text x="112.892px" y="283.595px" style="font-family:'FiraSans-Regular', 'Fira Sans', sans-serif;font-size:9px;">ARKit XR</text><text x="117.329px" y="292.595px" style="font-family:'FiraSans-Regular', 'Fira Sans', sans-serif;font-size:9px;">Plugin</text></g><g transform="matrix(2.13279,0,0,2.13279,21.5873,281.779)"><text x="112.892px" y="283.595px" style="font-family:'FiraSans-Regular', 'Fira Sans', sans-serif;font-size:9px;">Oculus XR</text><text x="120.362px" y="292.595px" style="font-family:'FiraSans-Regular', 'Fira Sans', sans-serif;font-size:9px;">Plugin</text></g><g transform="matrix(2.13279,0,0,2.13279,150.312,281.779)"><text x="112.892px" y="283.595px" style="font-family:'FiraSans-Regular', 'Fira Sans', sans-serif;font-size:9px;">Windows XR</text><text x="124.754px" y="292.595px" style="font-family:'FiraSans-Regular', 'Fira Sans', sans-serif;font-size:9px;">Plugin</text></g><text x="546.283px" y="886.305px" style="font-family:'FiraSans-Regular', 'Fira Sans', sans-serif;font-size:19.195px;">...</text><text x="546.283px" y="258.664px" style="font-family:'FiraSans-Regular', 'Fira Sans', sans-serif;font-size:19.195px;">...</text><path d="M150.212,455.388l6.399,-12.797l6.398,12.797c-3.199,-3.199 -9.597,-3.199 -12.797,0Z"/><path d="M156.611,514.176l0,-61.348" style="fill:none;stroke:#000;stroke-width:2.13px;"/><path d="M150.212,587.861l6.399,-12.797l6.398,12.797c-3.199,-3.199 -9.597,-3.199 -12.797,0Z"/><path d="M156.611,646.649l0,-61.347" style="fill:none;stroke:#000;stroke-width:2.13px;"/><path d="M50.845,794.925l6.398,-12.796l6.399,12.796c-3.2,-3.199 -9.598,-3.199 -12.797,0Z"/><path d="M57.243,853.714l0,-61.348" style="fill:none;stroke:#000;stroke-width:2.13px;"/><path d="M174.536,794.925l6.398,-12.796l6.399,12.796c-3.199,-3.199 -9.598,-3.199 -12.797,0Z"/><path d="M180.934,853.714l0,-61.348" style="fill:none;stroke:#000;stroke-width:2.13px;"/><path d="M298.753,794.925l6.398,-12.796l6.399,12.796c-3.2,-3.199 -9.598,-3.199 -12.797,0Z"/><path d="M305.151,853.714l0,-61.348" style="fill:none;stroke:#000;stroke-width:2.13px;"/><path d="M433.063,794.925l6.398,-12.796l6.398,12.796c-3.199,-3.199 -9.597,-3.199 -12.796,0Z"/><path d="M439.461,853.714l0,-61.348" style="fill:none;stroke:#000;stroke-width:2.13px;"/><path d="M527.885,587.861l6.398,-12.797l6.399,12.797c-3.2,-3.199 -9.598,-3.199 -12.797,0Z"/><path d="M534.283,646.649l0,-61.347" style="fill:none;stroke:#000;stroke-width:2.13px;"/><path d="M431.273,454.565l6.398,-12.797l6.398,12.797c-3.199,-3.199 -9.597,-3.199 -12.796,0Z"/><path d="M437.671,513.353l0,-61.347" style="fill:none;stroke:#000;stroke-width:2.13px;"/><rect x="420.017" y="3.478" width="119.29" height="92.406" style="fill:#fff;stroke:#c2c2c2;stroke-width:1.07px;"/><rect x="563.322" y="3.478" width="119.29" height="92.406" style="fill:#fff;stroke:#c2c2c2;stroke-width:1.07px;"/><rect x="1.546" y="3.478" width="162.488" height="92.406" style="fill:#fff;stroke:#c2c2c2;stroke-width:1.07px;"/><g transform="matrix(2.13279,0,0,2.13279,186.82,-282.657)"><text x="116.388px" y="151.637px" style="font-family:'FiraSans-Regular', 'Fira Sans', sans-serif;font-size:12px;">Y<tspan x="122.28px " y="151.637px ">o</tspan>ur AR</text><text x="126.738px" y="163.637px" style="font-family:'FiraSans-Regular', 'Fira Sans', sans-serif;font-size:12px;">App</text></g><g transform="matrix(2.13279,0,0,2.13279,330.125,-282.657)"><text x="125.046px" y="151.637px" style="font-family:'FiraSans-Regular', 'Fira Sans', sans-serif;font-size:12px;">Y<tspan x="130.938px " y="151.637px ">o</tspan>ur</text><text x="118.182px" y="163.637px" style="font-family:'FiraSans-Regular', 'Fira Sans', sans-serif;font-size:12px;">VR App</text></g><g transform="matrix(2.13279,0,0,2.13279,-225.492,-574.516)"><text x="129.315px" y="283.595px" style="font-family:'FiraSans-Regular', 'Fira Sans', sans-serif;font-size:12px;">MARS</text><text x="113.397px" y="295.595px" style="font-family:'FiraSans-Regular', 'Fira Sans', sans-serif;font-size:12px;">C<tspan x="119.877px " y="295.595px ">o</tspan>mp<tspan x="144.177px " y="295.595px ">a</tspan>nion</text><text x="130.911px" y="307.595px" style="font-family:'FiraSans-Regular', 'Fira Sans', sans-serif;font-size:12px;">Apps</text></g><path d="M88.175,141.432l-6.398,12.797l-6.398,-12.797c3.199,3.199 9.597,3.199 12.796,0Z"/><path d="M81.777,92.244l0,51.748" style="fill:none;stroke:#000;stroke-width:2.13px;"/><path d="M436.105,92.983l6.398,-12.797l6.399,12.797c-3.2,-3.199 -9.598,-3.199 -12.797,0Z"/><path d="M442.503,151.771l0,-61.347" style="fill:none;stroke:#000;stroke-width:2.13px;"/><path d="M507.554,93.733l6.399,-12.797l6.398,12.797c-3.199,-3.199 -9.597,-3.199 -12.797,0Z"/><path d="M513.953,138.297l0,-47.124" style="fill:none;stroke:#000;stroke-width:2.13px;"/><path d="M513.953,514.851l0,-52.764" style="fill:none;stroke:#000;stroke-width:2.13px;"/><path d="M618.473,89.476l6.398,-12.797l6.398,12.797c-3.199,-3.199 -9.597,-3.199 -12.796,0Z"/><path d="M624.871,513.353l0,-426.437" style="fill:none;stroke:#000;stroke-width:2.13px;"/></svg>