<?xml version="1.0" encoding="UTF-8" standalone="no"?><!DOCTYPE svg PUBLIC "-//W3C//DTD SVG 1.1//EN" "http://www.w3.org/Graphics/SVG/1.1/DTD/svg11.dtd"><svg width="100%" height="100%" viewBox="0 0 694 574" version="1.1" xmlns="http://www.w3.org/2000/svg" xmlns:xlink="http://www.w3.org/1999/xlink" xml:space="preserve" xmlns:serif="http://www.serif.com/" style="fill-rule:evenodd;clip-rule:evenodd;stroke-linecap:round;stroke-linejoin:round;stroke-miterlimit:1.5;"><rect x="2.107" y="259.033" width="683.002" height="164.398" style="fill:#fff;stroke:#c2c2c2;stroke-width:1.07px;"/><rect x="2.107" y="130.468" width="310.129" height="92.406" style="fill:#fff;stroke:#c2c2c2;stroke-width:1.07px;"/><rect x="565.787" y="5.418" width="119.29" height="92.406" style="fill:#fff;stroke:#c2c2c2;stroke-width:1.07px;"/><rect x="2.107" y="476.369" width="111.394" height="92.406" style="fill:#fff;stroke:#c2c2c2;stroke-width:1.07px;"/><rect x="125.798" y="476.369" width="111.394" height="92.406" style="fill:#fff;stroke:#c2c2c2;stroke-width:1.07px;"/><rect x="250.645" y="476.369" width="111.394" height="92.406" style="fill:#fff;stroke:#c2c2c2;stroke-width:1.07px;"/><rect x="382.223" y="476.369" width="122.913" height="92.406" style="fill:#fff;stroke:#c2c2c2;stroke-width:1.07px;"/><rect x="546.069" y="476.369" width="142.813" height="92.406" style="fill:#fff;stroke:#ff9800;stroke-width:6.4px;"/><rect x="386.48" y="130.468" width="224.32" height="92.406" style="fill:#ebebeb;fill-opacity:0;stroke:#000;stroke-opacity:0.16;stroke-width:2.13px;"/><text x="73.711px" y="186.499px" style="font-family:'FiraSans-Regular', 'Fira Sans', sans-serif;font-size:25.593px;">AR F<tspan x="122.313px " y="186.499px ">o</tspan>undation</text><g transform="matrix(2.13279,0,0,2.13279,345.633,-280.717)"><text x="123.33px" y="151.637px" style="font-family:'FiraSans-Regular', 'Fira Sans', sans-serif;font-size:12px;">VR</text><text x="116.928px" y="163.637px" style="font-family:'FiraSans-Regular', 'Fira Sans', sans-serif;font-size:12px;">Apps</text></g><g transform="matrix(2.13279,0,0,2.13279,133.549,-433.718)"><text x="127.458px" y="283.595px" style="font-family:'FiraSans-Regular', 'Fira Sans', sans-serif;font-size:9px;fill-opacity:0.47;">XR Int<tspan x="151.191px 156.096px 159.255px " y="283.595px 283.595px 283.595px ">era</tspan>ction T<tspan x="191.313px " y="283.595px ">o</tspan>olkit</text><text x="151.061px" y="292.595px" style="font-family:'FiraSans-Regular', 'Fira Sans', sans-serif;font-size:9px;fill-opacity:0.47;">(optional)</text></g><text x="203.407px" y="299.925px" style="font-family:'FiraSans-Regular', 'Fira Sans', sans-serif;font-size:25.593px;">XR Subs<tspan x="295.057px 307.47px 319.422px 328.278px " y="299.925px 299.925px 299.925px 299.925px ">yste</tspan>ms / XR SDK</text><g transform="matrix(2.13279,0,0,2.13279,-220.136,-267.63)"><text x="112.892px" y="283.595px" style="font-family:'FiraSans-Regular', 'Fira Sans', sans-serif;font-size:9px;">Displa<tspan x="138.128px " y="283.595px ">y</tspan></text><rect x="112.892" y="284.27" width="29.664" height="0.45"/></g><circle cx="13.935" cy="329.848" r="3.33" style="fill:#ff9800;stroke:#ff9800;stroke-width:2.13px;"/><circle cx="13.935" cy="373.963" r="3.33" style="fill:none;stroke:#ff9800;stroke-width:2.13px;"/><circle cx="109.848" cy="373.963" r="3.33" style="fill:#ff9800;stroke:#ff9800;stroke-width:2.13px;"/><circle cx="192.012" cy="373.963" r="3.33" style="fill:#ff9800;stroke:#ff9800;stroke-width:2.13px;"/><circle cx="590.774" cy="373.963" r="3.33" style="fill:none;stroke:#ff9800;stroke-width:2.13px;"/><circle cx="109.848" cy="331.263" r="3.33" style="fill:#ff9800;stroke:#ff9800;stroke-width:2.13px;"/><circle cx="192.012" cy="331.263" r="3.33" style="fill:none;stroke:#ff9800;stroke-width:2.13px;"/><circle cx="590.774" cy="331.263" r="3.33" style="fill:#ff9800;stroke:#ff9800;stroke-width:2.13px;"/><g transform="matrix(2.13279,0,0,2.13279,-126.278,-267.63)"><text x="112.892px" y="283.595px" style="font-family:'FiraSans-Regular', 'Fira Sans', sans-serif;font-size:9px;">Input</text><rect x="112.892" y="284.27" width="21.762" height="0.45"/></g><g transform="matrix(2.13279,0,0,2.13279,-41.8912,-267.63)"><text x="112.892px" y="283.595px" style="font-family:'FiraSans-Regular', 'Fira Sans', sans-serif;font-size:9px;">En<tspan x="122.828px " y="283.595px ">v</tspan>ir<tspan x="132.998px " y="283.595px ">o</tspan>nment</text><rect x="112.892" y="284.27" width="51.777" height="0.45"/></g><g transform="matrix(2.13279,0,0,2.13279,119.35,-267.63)"><text x="112.892px" y="283.595px" style="font-family:'FiraSans-Regular', 'Fira Sans', sans-serif;font-size:9px;">F<tspan x="116.771px 121.667px 125.789px " y="283.595px 283.595px 283.595px ">ace</tspan>s</text><rect x="112.892" y="284.27" width="22.005" height="0.45"/></g><g transform="matrix(2.13279,0,0,2.13279,119.35,-225.444)"><text x="109.913px" y="283.595px" style="font-family:'FiraSans-Regular', 'Fira Sans', sans-serif;font-size:9px;">P<tspan x="114.872px " y="283.595px ">e</tspan>ople</text><rect x="109.913" y="284.27" width="27.963" height="0.45"/></g><g transform="matrix(2.13279,0,0,2.13279,356.444,-267.63)"><text x="112.892px" y="283.595px" style="font-family:'FiraSans-Regular', 'Fira Sans', sans-serif;font-size:9px;">Ra<tspan x="123.008px 127.4px 131.612px " y="283.595px 283.595px 283.595px ">yca</tspan>st</text><rect x="112.892" y="284.27" width="30.978" height="0.45"/></g><g transform="matrix(2.13279,0,0,2.13279,-220.136,-225.444)"><text x="112.892px" y="283.595px" style="font-family:'FiraSans-Regular', 'Fira Sans', sans-serif;font-size:9px;">Camer<tspan x="138.515px " y="283.595px ">a</tspan></text><rect x="112.892" y="284.27" width="30.519" height="0.45"/></g><g transform="matrix(2.13279,0,0,2.13279,-126.278,-225.444)"><text x="112.892px" y="283.595px" style="font-family:'FiraSans-Regular', 'Fira Sans', sans-serif;font-size:9px;">Pl<tspan x="120.623px " y="283.595px ">a</tspan>nes</text><rect x="112.892" y="284.27" width="27.009" height="0.45"/></g><g transform="matrix(2.13279,0,0,2.13279,-41.8912,-225.444)"><text x="112.892px" y="283.595px" style="font-family:'FiraSans-Regular', 'Fira Sans', sans-serif;font-size:9px;">Imag<tspan x="132.602px " y="283.595px ">e</tspan> T<tspan x="144.275px 147.434px " y="283.595px 283.595px ">ra</tspan>cking</text><rect x="112.892" y="284.27" width="60.84" height="0.45"/></g><g transform="matrix(2.13279,0,0,2.13279,193.732,-225.444)"><text x="112.892px" y="283.595px" style="font-family:'FiraSans-Regular', 'Fira Sans', sans-serif;font-size:9px;">Object T<tspan x="146.21px 149.369px " y="283.595px 283.595px ">ra</tspan>cking</text><rect x="112.892" y="284.27" width="62.775" height="0.45"/></g><g transform="matrix(2.13279,0,0,2.13279,193.732,-267.63)"><text x="116.672px" y="283.595px" style="font-family:'FiraSans-Regular', 'Fira Sans', sans-serif;font-size:9px;">C<tspan x="121.532px " y="283.595px ">o</tspan>llabor<tspan x="150.674px " y="283.595px ">a</tspan>tion</text><rect x="116.672" y="284.27" width="55.215" height="0.45"/></g><g transform="matrix(2.13279,0,0,2.13279,356.444,-225.444)"><text x="112.892px" y="283.595px" style="font-family:'FiraSans-Regular', 'Fira Sans', sans-serif;font-size:9px;">Meshing</text><rect x="112.892" y="284.27" width="33.876" height="0.45"/></g><g transform="matrix(2.13279,0,0,2.13279,-229.604,-87.2207)"><text x="112.892px" y="283.595px" style="font-family:'FiraSans-Regular', 'Fira Sans', sans-serif;font-size:9px;">AR C<tspan x="130.739px 135.995px 139.199px " y="283.595px 283.595px 283.595px ">ore</tspan> XR</text><text x="122.09px" y="292.595px" style="font-family:'FiraSans-Regular', 'Fira Sans', sans-serif;font-size:9px;">Plugin</text></g><g transform="matrix(2.13279,0,0,2.13279,-94.7873,-87.2207)"><text x="112.892px" y="283.595px" style="font-family:'FiraSans-Regular', 'Fira Sans', sans-serif;font-size:9px;">ARKit XR</text><text x="117.329px" y="292.595px" style="font-family:'FiraSans-Regular', 'Fira Sans', sans-serif;font-size:9px;">Plugin</text></g><g transform="matrix(2.13279,0,0,2.13279,22.1482,-87.2207)"><text x="112.892px" y="283.595px" style="font-family:'FiraSans-Regular', 'Fira Sans', sans-serif;font-size:9px;">Oculus XR</text><text x="120.362px" y="292.595px" style="font-family:'FiraSans-Regular', 'Fira Sans', sans-serif;font-size:9px;">Plugin</text></g><g transform="matrix(2.13279,0,0,2.13279,150.873,-87.2207)"><text x="112.892px" y="283.595px" style="font-family:'FiraSans-Regular', 'Fira Sans', sans-serif;font-size:9px;">Windows XR</text><text x="124.754px" y="292.595px" style="font-family:'FiraSans-Regular', 'Fira Sans', sans-serif;font-size:9px;">Plugin</text></g><g transform="matrix(2.13279,0,0,2.13279,315.323,-87.2207)"><text x="112.892px" y="283.595px" style="font-family:'FiraSans-Regular', 'Fira Sans', sans-serif;font-size:9px;">AR Simulation</text><text x="128.732px" y="292.595px" style="font-family:'FiraSans-Regular', 'Fira Sans', sans-serif;font-size:9px;">Plugin</text></g><path d="M150.773,218.861l6.399,-12.797l6.398,12.797c-3.199,-3.199 -9.598,-3.199 -12.797,0Z"/><path d="M157.172,277.649l0,-61.347" style="fill:none;stroke:#000;stroke-width:2.13px;"/><path d="M51.406,425.925l6.398,-12.796l6.398,12.796c-3.199,-3.199 -9.597,-3.199 -12.796,0Z"/><path d="M57.804,484.714l0,-61.348" style="fill:none;stroke:#000;stroke-width:2.13px;"/><path d="M175.097,425.925l6.398,-12.796l6.399,12.796c-3.2,-3.199 -9.598,-3.199 -12.797,0Z"/><path d="M181.495,484.714l0,-61.348" style="fill:none;stroke:#000;stroke-width:2.13px;"/><path d="M299.314,425.925l6.398,-12.796l6.399,12.796c-3.2,-3.199 -9.598,-3.199 -12.797,0Z"/><path d="M305.712,484.714l0,-61.348" style="fill:none;stroke:#000;stroke-width:2.13px;"/><path d="M433.623,425.925l6.399,-12.796l6.398,12.796c-3.199,-3.199 -9.597,-3.199 -12.797,0Z"/><path d="M440.022,484.714l0,-61.348" style="fill:none;stroke:#000;stroke-width:2.13px;"/><path d="M605.823,425.925l6.398,-12.796l6.399,12.796c-3.199,-3.199 -9.598,-3.199 -12.797,0Z"/><path d="M612.221,484.714l0,-61.348" style="fill:none;stroke:#000;stroke-width:2.13px;"/><path d="M505.446,218.861l6.398,-12.797l6.398,12.797c-3.199,-3.199 -9.597,-3.199 -12.796,0Z" style="fill:#c2c2c2;"/><path d="M511.844,277.649l0,-61.347" style="fill:none;stroke:#c2c2c2;stroke-width:2.13px;"/><path d="M657.072,97.062l6.399,-12.797l6.398,12.797c-3.199,-3.199 -9.597,-3.199 -12.797,0Z"/><path d="M663.471,284.124l0,-189.621" style="fill:none;stroke:#000;stroke-width:2.13px;"/><rect x="195.376" y="5.418" width="234.073" height="92.406" style="fill:#fff;stroke:#c2c2c2;stroke-width:1.07px;"/><g transform="matrix(2.13279,0,0,2.13279,14.348,-280.717)"><text x="118.837px" y="151.637px" style="font-family:'FiraSans-Regular', 'Fira Sans', sans-serif;font-size:12px;">Y<tspan x="124.729px " y="151.637px ">o</tspan>ur AR</text><text x="129.187px" y="163.637px" style="font-family:'FiraSans-Regular', 'Fira Sans', sans-serif;font-size:12px;">App</text></g><path d="M230.291,97.53l6.398,-12.797l6.399,12.797c-3.2,-3.199 -9.598,-3.199 -12.797,0Z"/><path d="M236.689,142.41l0,-47.439" style="fill:none;stroke:#000;stroke-width:2.13px;"/><path d="M71.058,97.53l6.399,-12.797l6.398,12.797c-3.199,-3.199 -9.598,-3.199 -12.797,0Z" style="fill:#c2c2c2;"/><path d="M77.457,142.41l0,-47.439" style="fill:none;stroke:#c2c2c2;stroke-width:2.13px;"/><path d="M190.453,45.223l12.797,6.398l-12.797,6.399c3.199,-3.199 3.199,-9.598 0,-12.797Z" style="fill:#c2c2c2;"/><path d="M145.573,51.621l47.439,0" style="fill:none;stroke:#c2c2c2;stroke-width:2.13px;"/><rect x="2.107" y="5.418" width="150.698" height="92.406" style="fill:#ebebeb;fill-opacity:0;stroke:#000;stroke-opacity:0.16;stroke-width:2.13px;"/><g transform="matrix(2.13279,0,0,2.13279,-224.961,-272.326)"><text x="130.571px" y="149.387px" style="font-family:'FiraSans-Regular', 'Fira Sans', sans-serif;font-size:9px;fill-opacity:0.47;">MARS</text><text x="121.697px" y="158.387px" style="font-family:'FiraSans-Regular', 'Fira Sans', sans-serif;font-size:9px;fill-opacity:0.47;">(optional)</text></g><path d="M400.203,97.53l6.399,-12.797l6.398,12.797c-3.199,-3.199 -9.598,-3.199 -12.797,0Z" style="fill:#c2c2c2;"/><path d="M406.602,144.353l0,-49.382" style="fill:none;stroke:#c2c2c2;stroke-width:2.13px;"/><path d="M580.973,97.53l6.398,-12.797l6.398,12.797c-3.199,-3.199 -9.597,-3.199 -12.796,0Z" style="fill:#c2c2c2;"/><path d="M587.371,144.353l0,-49.382" style="fill:none;stroke:#c2c2c2;stroke-width:2.13px;"/></svg>