<?xml version="1.0" encoding="UTF-8" standalone="no"?><!DOCTYPE svg PUBLIC "-//W3C//DTD SVG 1.1//EN" "http://www.w3.org/Graphics/SVG/1.1/DTD/svg11.dtd"><svg width="100%" height="100%" viewBox="0 0 323 267" version="1.1" xmlns="http://www.w3.org/2000/svg" xmlns:xlink="http://www.w3.org/1999/xlink" xml:space="preserve" xmlns:serif="http://www.serif.com/" style="fill-rule:evenodd;clip-rule:evenodd;stroke-linecap:round;stroke-linejoin:round;stroke-miterlimit:1.5;"><rect x="0.126" y="120.651" width="320.239" height="77.081" style="fill:#fff;"/><rect x="0.126" y="60.371" width="145.41" height="43.326" style="fill:#fff;"/><rect x="264.418" y="1.739" width="55.931" height="43.326" style="fill:#fff;"/><rect x="0.126" y="222.554" width="52.229" height="43.326" style="fill:#fff;"/><rect x="58.121" y="222.554" width="52.229" height="43.326" style="fill:#fff;"/><rect x="116.658" y="222.554" width="52.229" height="43.326" style="fill:#fff;"/><rect x="178.351" y="222.554" width="57.63" height="43.326" style="fill:#fff;"/><rect x="255.173" y="222.554" width="66.96" height="43.326" style="fill:#fff;stroke:#ff9800;stroke-width:1px;"/><rect x="180.347" y="60.371" width="105.177" height="43.326" style="fill:#ebebeb;fill-opacity:0;stroke:#000;stroke-opacity:0.16;stroke-width:1px;"/><text x="33.699px" y="86.642px" style="font-family:'FiraSans-Regular', 'Fira Sans', sans-serif;font-size:12px;">AR F<tspan x="56.487px " y="86.642px ">o</tspan>undation</text><g transform="matrix(1,0,0,1,161.195,-132.421)"><text x="123.33px" y="151.637px" style="font-family:'FiraSans-Regular', 'Fira Sans', sans-serif;font-size:12px;">VR</text><text x="116.928px" y="163.637px" style="font-family:'FiraSans-Regular', 'Fira Sans', sans-serif;font-size:12px;">Apps</text></g><g transform="matrix(1,0,0,1,61.7555,-204.159)"><text x="127.458px" y="283.595px" style="font-family:'FiraSans-Regular', 'Fira Sans', sans-serif;font-size:9px;fill-opacity:0.47;">XR Int<tspan x="151.191px 156.096px 159.255px " y="283.595px 283.595px 283.595px ">era</tspan>ction T<tspan x="191.313px " y="283.595px ">o</tspan>olkit</text><text x="151.061px" y="292.595px" style="font-family:'FiraSans-Regular', 'Fira Sans', sans-serif;font-size:9px;fill-opacity:0.47;">(optional)</text></g><text x="94.51px" y="139.824px" style="font-family:'FiraSans-Regular', 'Fira Sans', sans-serif;font-size:12px;">XR Subs<tspan x="137.482px " y="139.824px ">y</tspan>st<tspan x="153.058px " y="139.824px ">e</tspan>ms / XR SDK</text><g transform="matrix(1,0,0,1,-104.077,-126.285)"><text x="112.892px" y="283.595px" style="font-family:'FiraSans-Regular', 'Fira Sans', sans-serif;font-size:9px;">Displa<tspan x="138.128px " y="283.595px ">y</tspan></text><rect x="112.892" y="284.27" width="29.664" height="0.45"/></g><circle cx="5.672" cy="153.855" r="1.561" style="fill:#ff9800;stroke:#ff9800;stroke-width:1px;"/><circle cx="5.672" cy="174.538" r="1.561" style="fill:none;stroke:#ff9800;stroke-width:1px;"/><circle cx="50.642" cy="174.538" r="1.561" style="fill:#ff9800;stroke:#ff9800;stroke-width:1px;"/><circle cx="89.167" cy="174.538" r="1.561" style="fill:#ff9800;stroke:#ff9800;stroke-width:1px;"/><circle cx="276.134" cy="174.538" r="1.561" style="fill:none;stroke:#ff9800;stroke-width:1px;"/><circle cx="50.642" cy="154.518" r="1.561" style="fill:#ff9800;stroke:#ff9800;stroke-width:1px;"/><circle cx="89.167" cy="154.518" r="1.561" style="fill:none;stroke:#ff9800;stroke-width:1px;"/><circle cx="276.134" cy="154.518" r="1.561" style="fill:#ff9800;stroke:#ff9800;stroke-width:1px;"/><g transform="matrix(1,0,0,1,-60.0695,-126.285)"><text x="112.892px" y="283.595px" style="font-family:'FiraSans-Regular', 'Fira Sans', sans-serif;font-size:9px;">Input</text><rect x="112.892" y="284.27" width="21.762" height="0.45"/></g><g transform="matrix(1,0,0,1,-20.5033,-126.285)"><text x="112.892px" y="283.595px" style="font-family:'FiraSans-Regular', 'Fira Sans', sans-serif;font-size:9px;">En<tspan x="122.828px " y="283.595px ">v</tspan>ir<tspan x="132.998px " y="283.595px ">o</tspan>nment</text><rect x="112.892" y="284.27" width="51.777" height="0.45"/></g><g transform="matrix(1,0,0,1,55.0978,-126.285)"><text x="112.892px" y="283.595px" style="font-family:'FiraSans-Regular', 'Fira Sans', sans-serif;font-size:9px;">F<tspan x="116.771px 121.667px 125.789px " y="283.595px 283.595px 283.595px ">ace</tspan>s</text><rect x="112.892" y="284.27" width="22.005" height="0.45"/></g><g transform="matrix(1,0,0,1,55.0978,-106.505)"><text x="109.913px" y="283.595px" style="font-family:'FiraSans-Regular', 'Fira Sans', sans-serif;font-size:9px;">P<tspan x="114.872px " y="283.595px ">e</tspan>ople</text><rect x="109.913" y="284.27" width="27.963" height="0.45"/></g><g transform="matrix(1,0,0,1,166.264,-126.285)"><text x="112.892px" y="283.595px" style="font-family:'FiraSans-Regular', 'Fira Sans', sans-serif;font-size:9px;">Ra<tspan x="123.008px 127.4px 131.612px " y="283.595px 283.595px 283.595px ">yca</tspan>st</text><rect x="112.892" y="284.27" width="30.978" height="0.45"/></g><g transform="matrix(1,0,0,1,-104.077,-106.505)"><text x="112.892px" y="283.595px" style="font-family:'FiraSans-Regular', 'Fira Sans', sans-serif;font-size:9px;">Camer<tspan x="138.515px " y="283.595px ">a</tspan></text><rect x="112.892" y="284.27" width="30.519" height="0.45"/></g><g transform="matrix(1,0,0,1,-60.0695,-106.505)"><text x="112.892px" y="283.595px" style="font-family:'FiraSans-Regular', 'Fira Sans', sans-serif;font-size:9px;">Pl<tspan x="120.623px " y="283.595px ">a</tspan>nes</text><rect x="112.892" y="284.27" width="27.009" height="0.45"/></g><g transform="matrix(1,0,0,1,-20.5033,-106.505)"><text x="112.892px" y="283.595px" style="font-family:'FiraSans-Regular', 'Fira Sans', sans-serif;font-size:9px;">Imag<tspan x="132.602px " y="283.595px ">e</tspan> T<tspan x="144.275px 147.434px " y="283.595px 283.595px ">ra</tspan>cking</text><rect x="112.892" y="284.27" width="60.84" height="0.45"/></g><g transform="matrix(1,0,0,1,89.9735,-106.505)"><text x="112.892px" y="283.595px" style="font-family:'FiraSans-Regular', 'Fira Sans', sans-serif;font-size:9px;">Object T<tspan x="146.21px 149.369px " y="283.595px 283.595px ">ra</tspan>cking</text><rect x="112.892" y="284.27" width="62.775" height="0.45"/></g><g transform="matrix(1,0,0,1,89.9735,-126.285)"><text x="116.672px" y="283.595px" style="font-family:'FiraSans-Regular', 'Fira Sans', sans-serif;font-size:9px;">C<tspan x="121.532px " y="283.595px ">o</tspan>llabor<tspan x="150.674px " y="283.595px ">a</tspan>tion</text><rect x="116.672" y="284.27" width="55.215" height="0.45"/></g><g transform="matrix(1,0,0,1,166.264,-106.505)"><text x="112.892px" y="283.595px" style="font-family:'FiraSans-Regular', 'Fira Sans', sans-serif;font-size:9px;">Meshing</text><rect x="112.892" y="284.27" width="33.876" height="0.45"/></g><g transform="matrix(1,0,0,1,-108.516,-41.6965)"><text x="112.892px" y="283.595px" style="font-family:'FiraSans-Regular', 'Fira Sans', sans-serif;font-size:9px;">AR C<tspan x="130.739px 135.995px 139.199px " y="283.595px 283.595px 283.595px ">ore</tspan> XR</text><text x="122.09px" y="292.595px" style="font-family:'FiraSans-Regular', 'Fira Sans', sans-serif;font-size:9px;">Plugin</text></g><g transform="matrix(1,0,0,1,-45.3047,-41.6965)"><text x="112.892px" y="283.595px" style="font-family:'FiraSans-Regular', 'Fira Sans', sans-serif;font-size:9px;">ARKit XR</text><text x="117.329px" y="292.595px" style="font-family:'FiraSans-Regular', 'Fira Sans', sans-serif;font-size:9px;">Plugin</text></g><g transform="matrix(1,0,0,1,9.52283,-41.6965)"><text x="112.892px" y="283.595px" style="font-family:'FiraSans-Regular', 'Fira Sans', sans-serif;font-size:9px;">Oculus XR</text><text x="120.362px" y="292.595px" style="font-family:'FiraSans-Regular', 'Fira Sans', sans-serif;font-size:9px;">Plugin</text></g><g transform="matrix(1,0,0,1,69.8781,-41.6965)"><text x="112.892px" y="283.595px" style="font-family:'FiraSans-Regular', 'Fira Sans', sans-serif;font-size:9px;">Windows XR</text><text x="124.754px" y="292.595px" style="font-family:'FiraSans-Regular', 'Fira Sans', sans-serif;font-size:9px;">Plugin</text></g><g transform="matrix(1,0,0,1,146.984,-41.6965)"><text x="112.892px" y="283.595px" style="font-family:'FiraSans-Regular', 'Fira Sans', sans-serif;font-size:9px;">AR Simulation</text><text x="128.732px" y="292.595px" style="font-family:'FiraSans-Regular', 'Fira Sans', sans-serif;font-size:9px;">Plugin</text></g><path d="M69.831,101.816l3,-6l3,6c-1.5,-1.5 -4.5,-1.5 -6,0Z"/><path d="M72.831,129.38l0,-28.764" style="fill:none;stroke:#000;stroke-width:1px;"/><path d="M23.241,198.902l3,-6l3,6c-1.5,-1.5 -4.5,-1.5 -6,0Z"/><path d="M26.241,226.466l0,-28.764" style="fill:none;stroke:#000;stroke-width:1px;"/><path d="M81.236,198.902l3,-6l3,6c-1.5,-1.5 -4.5,-1.5 -6,0Z"/><path d="M84.236,226.466l0,-28.764" style="fill:none;stroke:#000;stroke-width:1px;"/><path d="M139.477,198.902l3,-6l3,6c-1.5,-1.5 -4.5,-1.5 -6,0Z"/><path d="M142.477,226.466l0,-28.764" style="fill:none;stroke:#000;stroke-width:1px;"/><path d="M202.451,198.902l3,-6l3,6c-1.5,-1.5 -4.5,-1.5 -6,0Z"/><path d="M205.451,226.466l0,-28.764" style="fill:none;stroke:#000;stroke-width:1px;"/><path d="M283.19,198.902l3,-6l3,6c-1.5,-1.5 -4.5,-1.5 -6,0Z"/><path d="M286.19,226.466l0,-28.764" style="fill:none;stroke:#000;stroke-width:1px;"/><path d="M236.126,101.816l3,-6l3,6c-1.5,-1.5 -4.5,-1.5 -6,0Z" style="fill:#c2c2c2;"/><path d="M239.126,129.38l0,-28.764" style="fill:none;stroke:#c2c2c2;stroke-width:1px;"/><path d="M307.219,44.708l3,-6l3,6c-1.5,-1.5 -4.5,-1.5 -6,0Z"/><path d="M310.219,132.416l0,-88.908" style="fill:none;stroke:#000;stroke-width:1px;"/><rect x="90.744" y="1.739" width="109.75" height="43.326" style="fill:#fff;"/><g transform="matrix(1,0,0,1,5.86557,-132.421)"><text x="118.837px" y="151.637px" style="font-family:'FiraSans-Regular', 'Fira Sans', sans-serif;font-size:12px;">Y<tspan x="124.729px " y="151.637px ">o</tspan>ur AR</text><text x="129.187px" y="163.637px" style="font-family:'FiraSans-Regular', 'Fira Sans', sans-serif;font-size:12px;">App</text></g><path d="M107.115,44.927l3,-6l3,6c-1.5,-1.5 -4.5,-1.5 -6,0Z"/><path d="M110.115,65.97l0,-22.243" style="fill:none;stroke:#000;stroke-width:1px;"/><path d="M32.455,44.927l3,-6l3,6c-1.5,-1.5 -4.5,-1.5 -6,0Z" style="fill:#c2c2c2;"/><path d="M35.455,65.97l0,-22.243" style="fill:none;stroke:#c2c2c2;stroke-width:1px;"/><path d="M88.436,20.402l6,3l-6,3c1.5,-1.5 1.5,-4.5 0,-6Z" style="fill:#c2c2c2;"/><path d="M67.393,23.402l22.243,0" style="fill:none;stroke:#c2c2c2;stroke-width:1px;"/><rect x="0.126" y="1.739" width="70.658" height="43.326" style="fill:#ebebeb;fill-opacity:0;stroke:#000;stroke-opacity:0.16;stroke-width:1px;"/><g transform="matrix(1,0,0,1,-106.339,-128.487)"><text x="130.571px" y="149.387px" style="font-family:'FiraSans-Regular', 'Fira Sans', sans-serif;font-size:9px;fill-opacity:0.47;">MARS</text><text x="121.697px" y="158.387px" style="font-family:'FiraSans-Regular', 'Fira Sans', sans-serif;font-size:9px;fill-opacity:0.47;">(optional)</text></g><path d="M186.781,44.927l3,-6l3,6c-1.5,-1.5 -4.5,-1.5 -6,0Z" style="fill:#c2c2c2;"/><path d="M189.781,66.882l0,-23.155" style="fill:none;stroke:#c2c2c2;stroke-width:1px;"/><path d="M271.539,44.927l3,-6l3,6c-1.5,-1.5 -4.5,-1.5 -6,0Z" style="fill:#c2c2c2;"/><path d="M274.539,66.882l0,-23.155" style="fill:none;stroke:#c2c2c2;stroke-width:1px;"/></svg>