<?xml version="1.0" encoding="UTF-8" standalone="no"?><!DOCTYPE svg PUBLIC "-//W3C//DTD SVG 1.1//EN" "http://www.w3.org/Graphics/SVG/1.1/DTD/svg11.dtd"><svg width="100%" height="100%" viewBox="0 0 323 517" version="1.1" xmlns="http://www.w3.org/2000/svg" xmlns:xlink="http://www.w3.org/1999/xlink" xml:space="preserve" xmlns:serif="http://www.serif.com/" style="fill-rule:evenodd;clip-rule:evenodd;stroke-linecap:round;stroke-linejoin:round;stroke-miterlimit:1.5;"><rect id="Artboard2" x="0" y="0" width="322.007" height="516.947" style="fill:none;"/><clipPath id="_clip1"><rect x="0" y="0" width="322.007" height="516.947"/></clipPath><g clip-path="url(#_clip1)"><rect x="0.911" y="372.488" width="320.239" height="77.081" style="fill:#ebebeb;"/><rect x="0.911" y="312.208" width="145.41" height="43.326" style="fill:#ebebeb;"/><rect x="0.911" y="142.866" width="278.699" height="151.816" style="fill:#ebebeb;"/><rect x="0.911" y="474.39" width="52.229" height="43.326" style="fill:#ebebeb;"/><rect x="58.906" y="474.39" width="52.229" height="43.326" style="fill:#ebebeb;"/><rect x="117.443" y="474.39" width="52.229" height="43.326" style="fill:#ebebeb;"/><rect x="179.136" y="474.39" width="57.63" height="43.326" style="fill:#ebebeb;"/><rect x="175.74" y="312.208" width="145.41" height="43.326" style="fill:#ebebeb;"/><text x="34.484px" y="338.479px" style="font-family:'FiraSans-Regular', 'Fira Sans', sans-serif;font-size:12px;">AR F<tspan x="57.272px " y="338.479px ">o</tspan>undation</text><g transform="matrix(1,0,0,1,-36.6739,9.57506)"><text x="116.856px" y="151.637px" style="font-family:'FiraSans-Regular', 'Fira Sans', sans-serif;font-size:12px;">Mix<tspan x="135.288px " y="151.637px ">e</tspan>d and Augment<tspan x="224.208px " y="151.637px ">e</tspan>d</text><text x="119.154px" y="163.637px" style="font-family:'FiraSans-Regular', 'Fira Sans', sans-serif;font-size:12px;">R<tspan x="126.234px 132.654px 139.062px " y="163.637px 163.637px 163.637px ">eal</tspan>ity Studio (MAR<tspan x="225.198px " y="163.637px ">S</tspan>)</text></g><text x="190.149px" y="338.479px" style="font-family:'FiraSans-Regular', 'Fira Sans', sans-serif;font-size:12px;">XR Int<tspan x="221.793px 228.333px 232.545px " y="338.479px 338.479px 338.479px ">era</tspan>ction T<tspan x="275.289px " y="338.479px ">o</tspan>olkit</text><text x="95.294px" y="391.661px" style="font-family:'FiraSans-Regular', 'Fira Sans', sans-serif;font-size:12px;">XR Subs<tspan x="138.266px " y="391.661px ">y</tspan>st<tspan x="153.842px " y="391.661px ">e</tspan>ms / XR SDK</text><g transform="matrix(1,0,0,1,-103.292,125.552)"><text x="112.892px" y="283.595px" style="font-family:'FiraSans-Regular', 'Fira Sans', sans-serif;font-size:9px;">Displa<tspan x="138.128px " y="283.595px ">y</tspan></text><rect x="112.892" y="284.27" width="29.664" height="0.45"/></g><g transform="matrix(1,0,0,1,-59.285,125.552)"><text x="112.892px" y="283.595px" style="font-family:'FiraSans-Regular', 'Fira Sans', sans-serif;font-size:9px;">Input</text><rect x="112.892" y="284.27" width="21.762" height="0.45"/></g><g transform="matrix(1,0,0,1,-19.7188,125.552)"><text x="112.892px" y="283.595px" style="font-family:'FiraSans-Regular', 'Fira Sans', sans-serif;font-size:9px;">En<tspan x="122.828px " y="283.595px ">v</tspan>ir<tspan x="132.998px " y="283.595px ">o</tspan>nment</text><rect x="112.892" y="284.27" width="51.777" height="0.45"/></g><g transform="matrix(1,0,0,1,55.8823,125.552)"><text x="112.892px" y="283.595px" style="font-family:'FiraSans-Regular', 'Fira Sans', sans-serif;font-size:9px;">F<tspan x="116.771px 121.667px 125.789px " y="283.595px 283.595px 283.595px ">ace</tspan>s</text><rect x="112.892" y="284.27" width="22.005" height="0.45"/></g><g transform="matrix(1,0,0,1,55.8823,145.332)"><text x="109.913px" y="283.595px" style="font-family:'FiraSans-Regular', 'Fira Sans', sans-serif;font-size:9px;">P<tspan x="114.872px " y="283.595px ">e</tspan>ople</text><rect x="109.913" y="284.27" width="27.963" height="0.45"/></g><g transform="matrix(1,0,0,1,167.049,125.552)"><text x="112.892px" y="283.595px" style="font-family:'FiraSans-Regular', 'Fira Sans', sans-serif;font-size:9px;">Ra<tspan x="123.008px 127.4px 131.612px " y="283.595px 283.595px 283.595px ">yca</tspan>st</text><rect x="112.892" y="284.27" width="30.978" height="0.45"/></g><g transform="matrix(1,0,0,1,-103.292,145.332)"><text x="112.892px" y="283.595px" style="font-family:'FiraSans-Regular', 'Fira Sans', sans-serif;font-size:9px;">Camer<tspan x="138.515px " y="283.595px ">a</tspan></text><rect x="112.892" y="284.27" width="30.519" height="0.45"/></g><g transform="matrix(1,0,0,1,-59.285,145.332)"><text x="112.892px" y="283.595px" style="font-family:'FiraSans-Regular', 'Fira Sans', sans-serif;font-size:9px;">Pl<tspan x="120.623px " y="283.595px ">a</tspan>nes</text><rect x="112.892" y="284.27" width="27.009" height="0.45"/></g><g transform="matrix(1,0,0,1,-19.7188,145.332)"><text x="112.892px" y="283.595px" style="font-family:'FiraSans-Regular', 'Fira Sans', sans-serif;font-size:9px;">Imag<tspan x="132.602px " y="283.595px ">e</tspan> T<tspan x="144.275px 147.434px " y="283.595px 283.595px ">ra</tspan>cking</text><rect x="112.892" y="284.27" width="60.84" height="0.45"/></g><g transform="matrix(1,0,0,1,90.758,145.332)"><text x="112.892px" y="283.595px" style="font-family:'FiraSans-Regular', 'Fira Sans', sans-serif;font-size:9px;">Object T<tspan x="146.21px 149.369px " y="283.595px 283.595px ">ra</tspan>cking</text><rect x="112.892" y="284.27" width="62.775" height="0.45"/></g><g transform="matrix(1,0,0,1,90.758,125.552)"><text x="116.672px" y="283.595px" style="font-family:'FiraSans-Regular', 'Fira Sans', sans-serif;font-size:9px;">C<tspan x="121.532px " y="283.595px ">o</tspan>llabor<tspan x="150.674px " y="283.595px ">a</tspan>tion</text><rect x="116.672" y="284.27" width="55.215" height="0.45"/></g><g transform="matrix(1,0,0,1,-68.6074,-92.2076)"><text x="112.734px" y="283.595px" style="font-family:'FiraSans-Regular', 'Fira Sans', sans-serif;font-size:9px;">Actions</text><rect x="112.734" y="284.27" width="29.979" height="0.45"/></g><g transform="matrix(1,0,0,1,-18.3208,-92.2076)"><text x="104.846px" y="283.595px" style="font-family:'FiraSans-Regular', 'Fira Sans', sans-serif;font-size:9px;">Dat<tspan x="118.634px " y="283.595px ">a</tspan>ba<tspan x="133.592px " y="283.595px ">s</tspan>e</text><rect x="104.846" y="284.27" width="37.854" height="0.45"/></g><text x="114.358px" y="234.182px" style="font-family:'FiraSans-Regular', 'Fira Sans', sans-serif;font-size:12px;">P<tspan x="121.09px 125.362px " y="234.182px 234.182px ">ro</tspan>vider<tspan x="159.778px " y="234.182px ">s</tspan></text><g transform="matrix(1,0,0,1,90.2683,-92.2076)"><text x="98.438px" y="283.595px" style="font-family:'FiraSans-Regular', 'Fira Sans', sans-serif;font-size:9px;">C<tspan x="103.298px " y="283.595px ">o</tspan>mpositing</text><rect x="98.438" y="284.27" width="50.913" height="0.45"/></g><g transform="matrix(1,0,0,1,90.2233,-72.4281)"><text x="109.175px" y="283.595px" style="font-family:'FiraSans-Regular', 'Fira Sans', sans-serif;font-size:9px;">P<tspan x="114.224px 117.428px " y="283.595px 283.595px ">ro</tspan>xies</text><rect x="109.175" y="284.27" width="29.439" height="0.45"/></g><g transform="matrix(1,0,0,1,-69.2554,-72.4281)"><text x="106.236px" y="283.595px" style="font-family:'FiraSans-Regular', 'Fira Sans', sans-serif;font-size:9px;">C<tspan x="111.096px " y="283.595px ">o</tspan>nditions</text><rect x="106.236" y="284.27" width="43.83" height="0.45"/></g><g transform="matrix(1,0,0,1,-18.3208,-72.4281)"><text x="113.499px" y="283.595px" style="font-family:'FiraSans-Regular', 'Fira Sans', sans-serif;font-size:9px;">F<tspan x="117.603px 122.859px 126.063px 130.185px " y="283.595px 283.595px 283.595px 283.595px ">orce</tspan>s</text><rect x="113.499" y="284.27" width="25.794" height="0.45"/></g><g transform="matrix(1,0,0,1,13.4597,-72.4281)"><text x="127.971px" y="283.595px" style="font-family:'FiraSans-Regular', 'Fira Sans', sans-serif;font-size:9px;">Entities</text><rect x="127.971" y="284.27" width="30.681" height="0.45"/></g><g transform="matrix(1,0,0,1,12.3347,-92.2076)"><text x="123.201px" y="283.595px" style="font-family:'FiraSans-Regular', 'Fira Sans', sans-serif;font-size:9px;">R<tspan x="128.511px 133.326px 138.132px " y="283.595px 283.595px 283.595px ">eas</tspan>oning</text><rect x="123.201" y="284.27" width="42.156" height="0.45"/></g><g transform="matrix(1,0,0,1,167.049,145.332)"><text x="112.892px" y="283.595px" style="font-family:'FiraSans-Regular', 'Fira Sans', sans-serif;font-size:9px;">Meshing</text><rect x="112.892" y="284.27" width="33.876" height="0.45"/></g><g transform="matrix(1,0,0,1,-107.665,-30.7995)"><text x="112.892px" y="283.595px" style="font-family:'FiraSans-Regular', 'Fira Sans', sans-serif;font-size:9px;">Displa<tspan x="138.128px " y="283.595px ">y</tspan></text><rect x="112.892" y="284.27" width="29.664" height="0.45"/></g><g transform="matrix(1,0,0,1,-71.8875,-30.7995)"><text x="112.892px" y="283.595px" style="font-family:'FiraSans-Regular', 'Fira Sans', sans-serif;font-size:9px;">Input</text><rect x="112.892" y="284.27" width="21.762" height="0.45"/></g><g transform="matrix(1,0,0,1,-39.0084,-30.7995)"><text x="112.892px" y="283.595px" style="font-family:'FiraSans-Regular', 'Fira Sans', sans-serif;font-size:9px;">En<tspan x="122.828px " y="283.595px ">v</tspan>ir<tspan x="132.998px " y="283.595px ">o</tspan>nment</text><rect x="112.892" y="284.27" width="51.777" height="0.45"/></g><g transform="matrix(1,0,0,1,29.134,-30.7995)"><text x="112.892px" y="283.595px" style="font-family:'FiraSans-Regular', 'Fira Sans', sans-serif;font-size:9px;">F<tspan x="116.771px 121.667px 125.789px " y="283.595px 283.595px 283.595px ">ace</tspan>s</text><rect x="112.892" y="284.27" width="22.005" height="0.45"/></g><g transform="matrix(1,0,0,1,29.134,-11.02)"><text x="109.913px" y="283.595px" style="font-family:'FiraSans-Regular', 'Fira Sans', sans-serif;font-size:9px;">P<tspan x="114.872px " y="283.595px ">e</tspan>ople</text><rect x="109.913" y="284.27" width="27.963" height="0.45"/></g><g transform="matrix(1,0,0,1,127.183,-30.7995)"><text x="112.892px" y="283.595px" style="font-family:'FiraSans-Regular', 'Fira Sans', sans-serif;font-size:9px;">Ra<tspan x="123.008px 127.4px 131.612px " y="283.595px 283.595px 283.595px ">yca</tspan>st</text><rect x="112.892" y="284.27" width="30.978" height="0.45"/></g><g transform="matrix(1,0,0,1,-107.665,-11.02)"><text x="112.892px" y="283.595px" style="font-family:'FiraSans-Regular', 'Fira Sans', sans-serif;font-size:9px;">Camer<tspan x="138.515px " y="283.595px ">a</tspan></text><rect x="112.892" y="284.27" width="30.519" height="0.45"/></g><g transform="matrix(1,0,0,1,-71.8875,-11.02)"><text x="112.892px" y="283.595px" style="font-family:'FiraSans-Regular', 'Fira Sans', sans-serif;font-size:9px;">Pl<tspan x="120.623px " y="283.595px ">a</tspan>nes</text><rect x="112.892" y="284.27" width="27.009" height="0.45"/></g><g transform="matrix(1,0,0,1,-39.0084,-11.02)"><text x="112.892px" y="283.595px" style="font-family:'FiraSans-Regular', 'Fira Sans', sans-serif;font-size:9px;">Imag<tspan x="132.602px " y="283.595px ">e</tspan> T<tspan x="144.275px 147.434px " y="283.595px 283.595px ">ra</tspan>cking</text><rect x="112.892" y="284.27" width="60.84" height="0.45"/></g><g transform="matrix(1,0,0,1,59.123,-11.02)"><text x="112.892px" y="283.595px" style="font-family:'FiraSans-Regular', 'Fira Sans', sans-serif;font-size:9px;">Object T<tspan x="146.21px 149.369px " y="283.595px 283.595px ">ra</tspan>cking</text><rect x="112.892" y="284.27" width="62.775" height="0.45"/></g><g transform="matrix(1,0,0,1,59.123,-30.7995)"><text x="116.672px" y="283.595px" style="font-family:'FiraSans-Regular', 'Fira Sans', sans-serif;font-size:9px;">C<tspan x="121.532px " y="283.595px ">o</tspan>llabor<tspan x="150.674px " y="283.595px ">a</tspan>tion</text><rect x="116.672" y="284.27" width="55.215" height="0.45"/></g><g transform="matrix(1,0,0,1,127.183,-11.02)"><text x="112.892px" y="283.595px" style="font-family:'FiraSans-Regular', 'Fira Sans', sans-serif;font-size:9px;">Meshing</text><rect x="112.892" y="284.27" width="33.876" height="0.45"/></g><g transform="matrix(1,0,0,1,-107.732,210.14)"><text x="112.892px" y="283.595px" style="font-family:'FiraSans-Regular', 'Fira Sans', sans-serif;font-size:9px;">AR C<tspan x="130.739px 135.995px 139.199px " y="283.595px 283.595px 283.595px ">ore</tspan> XR</text><text x="122.09px" y="292.595px" style="font-family:'FiraSans-Regular', 'Fira Sans', sans-serif;font-size:9px;">Plugin</text></g><g transform="matrix(1,0,0,1,-44.5201,210.14)"><text x="112.892px" y="283.595px" style="font-family:'FiraSans-Regular', 'Fira Sans', sans-serif;font-size:9px;">ARKit XR</text><text x="117.329px" y="292.595px" style="font-family:'FiraSans-Regular', 'Fira Sans', sans-serif;font-size:9px;">Plugin</text></g><g transform="matrix(1,0,0,1,10.3074,210.14)"><text x="112.892px" y="283.595px" style="font-family:'FiraSans-Regular', 'Fira Sans', sans-serif;font-size:9px;">Oculus XR</text><text x="120.362px" y="292.595px" style="font-family:'FiraSans-Regular', 'Fira Sans', sans-serif;font-size:9px;">Plugin</text></g><g transform="matrix(1,0,0,1,70.6626,210.14)"><text x="112.892px" y="283.595px" style="font-family:'FiraSans-Regular', 'Fira Sans', sans-serif;font-size:9px;">Windows XR</text><text x="124.754px" y="292.595px" style="font-family:'FiraSans-Regular', 'Fira Sans', sans-serif;font-size:9px;">Plugin</text></g><text x="256.321px" y="493.736px" style="font-family:'FiraSans-Regular', 'Fira Sans', sans-serif;font-size:9px;">...</text><text x="256.321px" y="199.302px" style="font-family:'FiraSans-Regular', 'Fira Sans', sans-serif;font-size:9px;">...</text><path d="M70.616,291.54l3,-6l3,6c-1.5,-1.5 -4.5,-1.5 -6,0Z"/><path d="M73.616,319.104l0,-28.764" style="fill:none;stroke:#000;stroke-width:1px;"/><path d="M70.616,353.653l3,-6l3,6c-1.5,-1.5 -4.5,-1.5 -6,0Z"/><path d="M73.616,381.217l0,-28.764" style="fill:none;stroke:#000;stroke-width:1px;"/><path d="M24.025,450.739l3,-6l3,6c-1.5,-1.5 -4.5,-1.5 -6,0Z"/><path d="M27.025,478.303l0,-28.764" style="fill:none;stroke:#000;stroke-width:1px;"/><path d="M82.02,450.739l3,-6l3,6c-1.5,-1.5 -4.5,-1.5 -6,0Z"/><path d="M85.02,478.303l0,-28.764" style="fill:none;stroke:#000;stroke-width:1px;"/><path d="M140.262,450.739l3,-6l3,6c-1.5,-1.5 -4.5,-1.5 -6,0Z"/><path d="M143.262,478.303l0,-28.764" style="fill:none;stroke:#000;stroke-width:1px;"/><path d="M203.236,450.739l3,-6l3,6c-1.5,-1.5 -4.5,-1.5 -6,0Z"/><path d="M206.236,478.303l0,-28.764" style="fill:none;stroke:#000;stroke-width:1px;"/><path d="M247.695,353.653l3,-6l3,6c-1.5,-1.5 -4.5,-1.5 -6,0Z"/><path d="M250.695,381.217l0,-28.764" style="fill:none;stroke:#000;stroke-width:1px;"/><path d="M202.396,291.154l3,-6l3,6c-1.5,-1.5 -4.5,-1.5 -6,0Z"/><path d="M205.396,318.718l0,-28.764" style="fill:none;stroke:#000;stroke-width:1px;"/><rect x="197.119" y="13.61" width="55.931" height="43.326" style="fill:#ebebeb;"/><rect x="197.119" y="79.653" width="55.931" height="43.326" style="fill:#ebebeb;"/><rect x="264.31" y="79.653" width="55.931" height="43.326" style="fill:#ebebeb;"/><rect x="0.911" y="79.653" width="76.186" height="43.326" style="fill:#ebebeb;"/><rect x="265.203" y="13.61" width="55.931" height="43.326" style="fill:#ebebeb;"/><g transform="matrix(1,0,0,1,94.7881,-120.55)"><text x="123.228px" y="151.637px" style="font-family:'FiraSans-Regular', 'Fira Sans', sans-serif;font-size:12px;">AR</text><text x="116.928px" y="163.637px" style="font-family:'FiraSans-Regular', 'Fira Sans', sans-serif;font-size:12px;">Apps</text></g><g transform="matrix(1,0,0,1,94.7881,-54.5068)"><text x="118.038px" y="151.637px" style="font-family:'FiraSans-Regular', 'Fira Sans', sans-serif;font-size:12px;">Y<tspan x="123.93px " y="151.637px ">o</tspan>ur</text><text x="116.694px" y="163.637px" style="font-family:'FiraSans-Regular', 'Fira Sans', sans-serif;font-size:12px;">C<tspan x="123.174px " y="163.637px ">o</tspan>de</text></g><g transform="matrix(1,0,0,1,161.979,-54.5068)"><text x="118.038px" y="151.637px" style="font-family:'FiraSans-Regular', 'Fira Sans', sans-serif;font-size:12px;">Y<tspan x="123.93px " y="151.637px ">o</tspan>ur</text><text x="116.694px" y="163.637px" style="font-family:'FiraSans-Regular', 'Fira Sans', sans-serif;font-size:12px;">C<tspan x="123.174px " y="163.637px ">o</tspan>de</text></g><g transform="matrix(1,0,0,1,161.979,-120.55)"><text x="123.33px" y="151.637px" style="font-family:'FiraSans-Regular', 'Fira Sans', sans-serif;font-size:12px;">VR</text><text x="116.928px" y="163.637px" style="font-family:'FiraSans-Regular', 'Fira Sans', sans-serif;font-size:12px;">Apps</text></g><g transform="matrix(1,0,0,1,-105.541,-191.351)"><text x="129.315px" y="283.595px" style="font-family:'FiraSans-Regular', 'Fira Sans', sans-serif;font-size:12px;">MARS</text><text x="113.397px" y="295.595px" style="font-family:'FiraSans-Regular', 'Fira Sans', sans-serif;font-size:12px;">C<tspan x="119.877px " y="295.595px ">o</tspan>mp<tspan x="144.177px " y="295.595px ">a</tspan>nion</text><text x="130.911px" y="307.595px" style="font-family:'FiraSans-Regular', 'Fira Sans', sans-serif;font-size:12px;">Apps</text></g><path d="M41.529,144.336l-3,6l-3,-6c1.5,1.5 4.5,1.5 6,0Z"/><path d="M38.529,121.273l0,24.263" style="fill:none;stroke:#000;stroke-width:1px;"/><path d="M204.662,121.619l3,-6l3,6c-1.5,-1.5 -4.5,-1.5 -6,0Z"/><path d="M207.662,149.183l0,-28.764" style="fill:none;stroke:#000;stroke-width:1px;"/><path d="M222.085,55.838l3,-6l3,6c-1.5,-1.5 -4.5,-1.5 -6,0Z"/><path d="M225.085,83.402l0,-28.764" style="fill:none;stroke:#000;stroke-width:1px;"/><path d="M289.276,55.838l3,-6l3,6c-1.5,-1.5 -4.5,-1.5 -6,0Z"/><path d="M292.276,83.402l0,-28.764" style="fill:none;stroke:#000;stroke-width:1px;"/><path d="M238.163,121.971l3,-6l3,6c-1.5,-1.5 -4.5,-1.5 -6,0Z"/><path d="M241.163,142.866l0,-22.095" style="fill:none;stroke:#000;stroke-width:1px;"/><path d="M241.163,319.42l0,-24.739" style="fill:none;stroke:#000;stroke-width:1px;"/><path d="M290.169,119.975l3,-6l3,6c-1.5,-1.5 -4.5,-1.5 -6,0Z"/><path d="M293.169,318.718l0,-199.943" style="fill:none;stroke:#000;stroke-width:1px;"/></g></svg>