<?xml version="1.0" encoding="UTF-8" standalone="no"?><!DOCTYPE svg PUBLIC "-//W3C//DTD SVG 1.1//EN" "http://www.w3.org/Graphics/SVG/1.1/DTD/svg11.dtd"><svg width="100%" height="100%" viewBox="0 0 324 417" version="1.1" xmlns="http://www.w3.org/2000/svg" xmlns:xlink="http://www.w3.org/1999/xlink" xml:space="preserve" xmlns:serif="http://www.serif.com/" style="fill-rule:evenodd;clip-rule:evenodd;stroke-linecap:round;stroke-linejoin:round;stroke-miterlimit:1.5;"><rect id="Artboard3" x="0" y="0" width="323.859" height="416.365" style="fill:none;"/><rect x="0.892" y="269.959" width="320.239" height="77.081" style="fill:#ebebeb;"/><rect x="0.892" y="209.679" width="145.41" height="43.326" style="fill:#ebebeb;"/><rect x="119.476" y="21.279" width="55.931" height="43.326" style="fill:#ebebeb;"/><rect x="265.184" y="144.689" width="55.931" height="43.326" style="fill:#ebebeb;"/><rect x="0.892" y="371.861" width="52.229" height="43.326" style="fill:#ebebeb;"/><rect x="58.887" y="371.861" width="52.229" height="43.326" style="fill:#ebebeb;"/><rect x="117.424" y="371.861" width="52.229" height="43.326" style="fill:#ebebeb;"/><rect x="179.117" y="371.861" width="57.63" height="43.326" style="fill:#ebebeb;"/><rect x="255.939" y="371.861" width="66.96" height="43.326" style="fill:#ebebeb;stroke:#ff9800;stroke-width:1px;"/><rect x="175.721" y="209.679" width="145.41" height="43.326" style="fill:#ebebeb;fill-opacity:0;stroke:#000;stroke-opacity:0.16;stroke-width:1px;"/><text x="34.465px" y="235.95px" style="font-family:'FiraSans-Regular', 'Fira Sans', sans-serif;font-size:12px;">AR F<tspan x="57.253px " y="235.95px ">o</tspan>undation</text><g transform="matrix(1,0,0,1,17.145,-112.881)"><text x="123.228px" y="151.637px" style="font-family:'FiraSans-Regular', 'Fira Sans', sans-serif;font-size:12px;">AR</text><text x="116.928px" y="163.637px" style="font-family:'FiraSans-Regular', 'Fira Sans', sans-serif;font-size:12px;">Apps</text></g><g transform="matrix(1,0,0,1,161.961,10.5287)"><text x="123.33px" y="151.637px" style="font-family:'FiraSans-Regular', 'Fira Sans', sans-serif;font-size:12px;">VR</text><text x="116.928px" y="163.637px" style="font-family:'FiraSans-Regular', 'Fira Sans', sans-serif;font-size:12px;">Apps</text></g><g transform="matrix(1,0,0,1,77.2383,-54.8514)"><text x="127.458px" y="283.595px" style="font-family:'FiraSans-Regular', 'Fira Sans', sans-serif;font-size:9px;fill-opacity:0.47;">XR Int<tspan x="151.191px 156.096px 159.255px " y="283.595px 283.595px 283.595px ">era</tspan>ction T<tspan x="191.313px " y="283.595px ">o</tspan>olkit</text><text x="151.061px" y="292.595px" style="font-family:'FiraSans-Regular', 'Fira Sans', sans-serif;font-size:9px;fill-opacity:0.47;">(optional)</text></g><text x="95.275px" y="289.132px" style="font-family:'FiraSans-Regular', 'Fira Sans', sans-serif;font-size:12px;">XR Subs<tspan x="138.247px " y="289.132px ">y</tspan>st<tspan x="153.823px " y="289.132px ">e</tspan>ms / XR SDK</text><g transform="matrix(1,0,0,1,-103.311,23.0226)"><text x="112.892px" y="283.595px" style="font-family:'FiraSans-Regular', 'Fira Sans', sans-serif;font-size:9px;">Displa<tspan x="138.128px " y="283.595px ">y</tspan></text><rect x="112.892" y="284.27" width="29.664" height="0.45"/></g><circle cx="6.438" cy="303.162" r="1.561" style="fill:#ff9800;stroke:#ff9800;stroke-width:1px;"/><circle cx="6.438" cy="323.846" r="1.561" style="fill:none;stroke:#ff9800;stroke-width:1px;"/><circle cx="51.408" cy="323.846" r="1.561" style="fill:#ff9800;stroke:#ff9800;stroke-width:1px;"/><circle cx="89.933" cy="323.846" r="1.561" style="fill:#ff9800;stroke:#ff9800;stroke-width:1px;"/><circle cx="276.9" cy="323.846" r="1.561" style="fill:none;stroke:#ff9800;stroke-width:1px;"/><circle cx="51.408" cy="303.825" r="1.561" style="fill:#ff9800;stroke:#ff9800;stroke-width:1px;"/><circle cx="89.933" cy="303.825" r="1.561" style="fill:none;stroke:#ff9800;stroke-width:1px;"/><circle cx="276.9" cy="303.825" r="1.561" style="fill:#ff9800;stroke:#ff9800;stroke-width:1px;"/><g transform="matrix(1,0,0,1,-59.3037,23.0226)"><text x="112.892px" y="283.595px" style="font-family:'FiraSans-Regular', 'Fira Sans', sans-serif;font-size:9px;">Input</text><rect x="112.892" y="284.27" width="21.762" height="0.45"/></g><g transform="matrix(1,0,0,1,-19.7375,23.0226)"><text x="112.892px" y="283.595px" style="font-family:'FiraSans-Regular', 'Fira Sans', sans-serif;font-size:9px;">En<tspan x="122.828px " y="283.595px ">v</tspan>ir<tspan x="132.998px " y="283.595px ">o</tspan>nment</text><rect x="112.892" y="284.27" width="51.777" height="0.45"/></g><g transform="matrix(1,0,0,1,55.8636,23.0226)"><text x="112.892px" y="283.595px" style="font-family:'FiraSans-Regular', 'Fira Sans', sans-serif;font-size:9px;">F<tspan x="116.771px 121.667px 125.789px " y="283.595px 283.595px 283.595px ">ace</tspan>s</text><rect x="112.892" y="284.27" width="22.005" height="0.45"/></g><g transform="matrix(1,0,0,1,55.8636,42.8021)"><text x="109.913px" y="283.595px" style="font-family:'FiraSans-Regular', 'Fira Sans', sans-serif;font-size:9px;">P<tspan x="114.872px " y="283.595px ">e</tspan>ople</text><rect x="109.913" y="284.27" width="27.963" height="0.45"/></g><g transform="matrix(1,0,0,1,167.03,23.0226)"><text x="112.892px" y="283.595px" style="font-family:'FiraSans-Regular', 'Fira Sans', sans-serif;font-size:9px;">Ra<tspan x="123.008px 127.4px 131.612px " y="283.595px 283.595px 283.595px ">yca</tspan>st</text><rect x="112.892" y="284.27" width="30.978" height="0.45"/></g><g transform="matrix(1,0,0,1,-103.311,42.8021)"><text x="112.892px" y="283.595px" style="font-family:'FiraSans-Regular', 'Fira Sans', sans-serif;font-size:9px;">Camer<tspan x="138.515px " y="283.595px ">a</tspan></text><rect x="112.892" y="284.27" width="30.519" height="0.45"/></g><g transform="matrix(1,0,0,1,-59.3037,42.8021)"><text x="112.892px" y="283.595px" style="font-family:'FiraSans-Regular', 'Fira Sans', sans-serif;font-size:9px;">Pl<tspan x="120.623px " y="283.595px ">a</tspan>nes</text><rect x="112.892" y="284.27" width="27.009" height="0.45"/></g><g transform="matrix(1,0,0,1,-19.7375,42.8021)"><text x="112.892px" y="283.595px" style="font-family:'FiraSans-Regular', 'Fira Sans', sans-serif;font-size:9px;">Imag<tspan x="132.602px " y="283.595px ">e</tspan> T<tspan x="144.275px 147.434px " y="283.595px 283.595px ">ra</tspan>cking</text><rect x="112.892" y="284.27" width="60.84" height="0.45"/></g><g transform="matrix(1,0,0,1,90.7393,42.8021)"><text x="112.892px" y="283.595px" style="font-family:'FiraSans-Regular', 'Fira Sans', sans-serif;font-size:9px;">Object T<tspan x="146.21px 149.369px " y="283.595px 283.595px ">ra</tspan>cking</text><rect x="112.892" y="284.27" width="62.775" height="0.45"/></g><g transform="matrix(1,0,0,1,90.7393,23.0226)"><text x="116.672px" y="283.595px" style="font-family:'FiraSans-Regular', 'Fira Sans', sans-serif;font-size:9px;">C<tspan x="121.532px " y="283.595px ">o</tspan>llabor<tspan x="150.674px " y="283.595px ">a</tspan>tion</text><rect x="116.672" y="284.27" width="55.215" height="0.45"/></g><g transform="matrix(1,0,0,1,167.03,42.8021)"><text x="112.892px" y="283.595px" style="font-family:'FiraSans-Regular', 'Fira Sans', sans-serif;font-size:9px;">Meshing</text><rect x="112.892" y="284.27" width="33.876" height="0.45"/></g><g transform="matrix(1,0,0,1,-107.75,107.611)"><text x="112.892px" y="283.595px" style="font-family:'FiraSans-Regular', 'Fira Sans', sans-serif;font-size:9px;">AR C<tspan x="130.739px 135.995px 139.199px " y="283.595px 283.595px 283.595px ">ore</tspan> XR</text><text x="122.09px" y="292.595px" style="font-family:'FiraSans-Regular', 'Fira Sans', sans-serif;font-size:9px;">Plugin</text></g><g transform="matrix(1,0,0,1,-44.5388,107.611)"><text x="112.892px" y="283.595px" style="font-family:'FiraSans-Regular', 'Fira Sans', sans-serif;font-size:9px;">ARKit XR</text><text x="117.329px" y="292.595px" style="font-family:'FiraSans-Regular', 'Fira Sans', sans-serif;font-size:9px;">Plugin</text></g><g transform="matrix(1,0,0,1,10.2887,107.611)"><text x="112.892px" y="283.595px" style="font-family:'FiraSans-Regular', 'Fira Sans', sans-serif;font-size:9px;">Oculus XR</text><text x="120.362px" y="292.595px" style="font-family:'FiraSans-Regular', 'Fira Sans', sans-serif;font-size:9px;">Plugin</text></g><g transform="matrix(1,0,0,1,70.6439,107.611)"><text x="112.892px" y="283.595px" style="font-family:'FiraSans-Regular', 'Fira Sans', sans-serif;font-size:9px;">Windows XR</text><text x="124.754px" y="292.595px" style="font-family:'FiraSans-Regular', 'Fira Sans', sans-serif;font-size:9px;">Plugin</text></g><g transform="matrix(1,0,0,1,147.749,107.611)"><text x="112.892px" y="283.595px" style="font-family:'FiraSans-Regular', 'Fira Sans', sans-serif;font-size:9px;">AR Simulation</text><text x="128.732px" y="292.595px" style="font-family:'FiraSans-Regular', 'Fira Sans', sans-serif;font-size:9px;">Plugin</text></g><path d="M70.597,251.123l3,-6l3,6c-1.5,-1.5 -4.5,-1.5 -6,0Z"/><path d="M73.597,278.687l0,-28.764" style="fill:none;stroke:#000;stroke-width:1px;"/><path d="M24.007,348.209l3,-6l3,6c-1.5,-1.5 -4.5,-1.5 -6,0Z"/><path d="M27.007,375.774l0,-28.765" style="fill:none;stroke:#000;stroke-width:1px;"/><path d="M82.002,348.209l3,-6l3,6c-1.5,-1.5 -4.5,-1.5 -6,0Z"/><path d="M85.002,375.774l0,-28.765" style="fill:none;stroke:#000;stroke-width:1px;"/><path d="M140.243,348.209l3,-6l3,6c-1.5,-1.5 -4.5,-1.5 -6,0Z"/><path d="M143.243,375.774l0,-28.765" style="fill:none;stroke:#000;stroke-width:1px;"/><path d="M203.217,348.209l3,-6l3,6c-1.5,-1.5 -4.5,-1.5 -6,0Z"/><path d="M206.217,375.774l0,-28.765" style="fill:none;stroke:#000;stroke-width:1px;"/><path d="M283.956,348.209l3,-6l3,6c-1.5,-1.5 -4.5,-1.5 -6,0Z"/><path d="M286.956,375.774l0,-28.765" style="fill:none;stroke:#000;stroke-width:1px;"/><path d="M247.676,251.123l3,-6l3,6c-1.5,-1.5 -4.5,-1.5 -6,0Z"/><path d="M250.676,278.687l0,-28.764" style="fill:none;stroke:#000;stroke-width:1px;"/><path d="M290.15,188.625l3,-6l3,6c-1.5,-1.5 -4.5,-1.5 -6,0Z"/><path d="M293.15,216.189l0,-28.764" style="fill:none;stroke:#000;stroke-width:1px;"/><rect x="91.51" y="90.17" width="109.75" height="43.326" style="fill:#ebebeb;"/><g transform="matrix(1,0,0,1,17.145,-43.9904)"><text x="118.038px" y="151.637px" style="font-family:'FiraSans-Regular', 'Fira Sans', sans-serif;font-size:12px;">Y<tspan x="123.93px " y="151.637px ">o</tspan>ur</text><text x="116.694px" y="163.637px" style="font-family:'FiraSans-Regular', 'Fira Sans', sans-serif;font-size:12px;">C<tspan x="123.174px " y="163.637px ">o</tspan>de</text></g><path d="M99.413,135.231l3,-6l3,6c-1.5,-1.5 -4.5,-1.5 -6,0Z"/><path d="M102.413,156.273l0,-22.242" style="fill:none;stroke:#000;stroke-width:1px;"/><path d="M99.413,194.235l3,-6l3,6c-1.5,-1.5 -4.5,-1.5 -6,0Z"/><path d="M102.413,215.278l0,-22.243" style="fill:none;stroke:#000;stroke-width:1px;"/><path d="M144.441,65.622l3,-6l3,6c-1.5,-1.5 -4.5,-1.5 -6,0Z"/><path d="M147.441,93.186l0,-28.764" style="fill:none;stroke:#000;stroke-width:1px;"/><rect x="67.084" y="151.047" width="70.658" height="43.326" style="fill:#ebebeb;fill-opacity:0;stroke:#000;stroke-opacity:0.16;stroke-width:1px;"/><g transform="matrix(1,0,0,1,-39.3811,20.8206)"><text x="130.571px" y="149.387px" style="font-family:'FiraSans-Regular', 'Fira Sans', sans-serif;font-size:9px;fill-opacity:0.47;">MARS</text><text x="121.697px" y="158.387px" style="font-family:'FiraSans-Regular', 'Fira Sans', sans-serif;font-size:9px;fill-opacity:0.47;">(optional)</text></g><path d="M187.547,135.231l3,-6l3,6c-1.5,-1.5 -4.5,-1.5 -6,0Z"/><path d="M190.547,216.189l0,-82.158" style="fill:none;stroke:#000;stroke-width:1px;"/></svg>